<?xml version="1.0" standalone="no"?>
<!DOCTYPE svg PUBLIC "-//W3C//DTD SVG 1.1//EN" "http://www.w3.org/Graphics/SVG/1.1/DTD/svg11.dtd" >
<svg xmlns="http://www.w3.org/2000/svg">
<metadata></metadata>
<defs>
<font id="zona_proextrabold_italic" horiz-adv-x="1374" >
<font-face units-per-em="2048" ascent="1690" descent="-358" />
<missing-glyph horiz-adv-x="659" />
<glyph unicode="&#xfb01;" d="M-72 -369l54 275q44 0 72.5 3.5t52 15.5t37 26t26 46t20 63.5t19.5 89.5l135 679h-139l55 285h137l17 82q34 175 148 273t261 98q38 0 74 -2.5t63 -6.5t50 -9t39.5 -10.5t27.5 -9.5t17 -7l6 -2l-51 -256h-7q-7 1 -18 2t-23 2t-25 1.5t-22 0.5q-49 0 -84 -8t-54.5 -19 t-33 -34t-18.5 -41.5t-12 -53.5h714l-215 -1114h-352l160 829h-363l-168 -858q-34 -174 -148 -267t-267 -93q-117 0 -185 20zM1149 1386q0 90 62.5 151.5t144.5 61.5q78 0 131 -54t53 -132q0 -91 -63.5 -152t-147.5 -61q-76 0 -128 54.5t-52 131.5z" />
<glyph unicode="&#xfb02;" horiz-adv-x="1384" d="M-74 -371l54 277q8 -2 22 -2q45 0 74.5 8t50 22t35.5 46.5t24.5 67.5t22.5 99l135 682h-139l55 285h137q20 96 66 175.5t120.5 142.5t187.5 98t255 35q89 0 169 -19t148 -58.5t108 -109t40 -161.5q0 -25 -25 -162l-204 -1055h-353l199 1024q12 59 12 121q0 137 -149 137 q-92 0 -146 -36t-73 -132h264l-55 -285h-265l-168 -860q-33 -169 -145.5 -264.5t-257.5 -95.5q-132 0 -199 20z" />
<glyph unicode="&#xfb03;" horiz-adv-x="2228" d="M-72 -369l54 275q44 0 72.5 3.5t52 15.5t37 26t26 46t20 63.5t19.5 89.5l135 679h-139l55 285h137l9 35q41 177 155 272t262 95q171 0 267 -48l-50 -256q-121 11 -155 11q-70 0 -95 -21t-36 -78l-2 -10h460l15 82q31 179 149.5 274t268.5 95q82 0 149 -11.5t91.5 -21 t29.5 -14.5l-51 -256q-93 6 -95 6q-111 0 -151.5 -34t-50.5 -106l-2 -14h757l-215 -1114h-354l162 829h-404l-159 -821q-34 -172 -151 -266t-269 -94q-109 0 -184 22l53 275q44 0 73 3t53 15t38 26t27 45.5t21 64t19 89.5l125 641h-461l-168 -858q-34 -174 -148 -267 t-267 -93q-117 0 -185 20zM1999 1389q0 90 62.5 151.5t146.5 61.5q78 0 130 -54t52 -133q0 -91 -62.5 -152t-146.5 -61q-77 0 -129.5 55t-52.5 132z" />
<glyph unicode="&#xfb04;" horiz-adv-x="2197" d="M-74 -371l54 277q8 -2 22 -2q55 0 88 10t55.5 41.5t35 72t28.5 119.5l135 682h-139l55 285h137l11 39q31 173 148 268t267 95q171 0 267 -48l-50 -256q-121 11 -155 11q-67 0 -93.5 -19t-35.5 -67l-4 -23h460l7 27q20 91 67 166t121.5 134t184.5 91.5t247 32.5 q71 0 135.5 -10.5t126 -36.5t106.5 -64.5t72 -99t27 -135.5q0 -40 -10 -95l-219 -1124h-355l199 1020q12 68 12 113q0 82 -37.5 115.5t-109.5 33.5q-86 0 -143 -31.5t-74 -115.5l-4 -21h266l-55 -285h-265l-161 -821q-34 -173 -149.5 -267.5t-268.5 -94.5q-109 0 -184 22 l53 275q44 0 73 3t53 15t38 26t27 45.5t21 64t19 89.5l125 643h-461l-168 -860q-34 -174 -148 -267t-267 -93q-115 0 -187 20z" />
<glyph horiz-adv-x="0" />
<glyph horiz-adv-x="682" />
<glyph unicode=" "  horiz-adv-x="659" />
<glyph unicode="&#x09;" horiz-adv-x="659" />
<glyph unicode="&#xa0;" horiz-adv-x="659" />
<glyph unicode="!" horiz-adv-x="632" d="M164 166q0 90 62.5 150.5t144.5 60.5q78 0 131 -53t53 -131q0 -90 -63 -150.5t-148 -60.5q-78 0 -129 53t-51 131zM293 518l121 924h364l-237 -924h-248z" />
<glyph unicode="&#x22;" horiz-adv-x="1038" d="M209 717l182 717h383l-379 -717h-186zM707 717l184 717h381l-377 -717h-188z" />
<glyph unicode="#" horiz-adv-x="1437" d="M121 307l57 299h252l92 246h-231l57 299h281l104 291h258l-106 -291h248l106 291h256l-104 -291h206l-57 -299h-256l-90 -246h233l-57 -299h-280l-117 -321h-258l116 321h-247l-117 -321h-258l119 321h-207zM688 606h248l90 246h-248z" />
<glyph unicode="$" horiz-adv-x="1355" d="M115 119l186 274q172 -90 377 -102l55 278q-80 21 -137.5 41t-116 50.5t-94 66.5t-58 88.5t-22.5 116.5q0 148 78.5 265.5t215 186t308.5 78.5l17 80h151l-16 -84q219 -20 434 -115l-203 -282q-149 62 -291 82l-53 -262q105 -27 179 -57.5t134 -74t89.5 -103t29.5 -136.5 q0 -150 -83 -268t-219 -183t-304 -77l-24 -127h-152l25 127q-153 5 -262 34t-244 103zM682 1018q0 -32 28.5 -54.5t90.5 -43.5l47 231q-64 -5 -115 -39t-51 -94zM829 291q66 9 117 42t51 91q0 38 -30.5 61.5t-87.5 40.5z" />
<glyph unicode="%" horiz-adv-x="1841" d="M270 975q0 138 63.5 250.5t167.5 174.5t226 62q138 0 218.5 -88t80.5 -244q0 -88 -34.5 -174t-93.5 -153t-145.5 -108.5t-183.5 -41.5q-135 0 -217 85.5t-82 236.5zM295 0l1268 1436h254l-1268 -1436h-254zM504 1010q0 -59 29.5 -96t78.5 -37q73 0 127 73.5t54 155.5 q0 59 -30 96t-79 37q-76 0 -128 -74.5t-52 -154.5zM1094 295q0 130 55.5 243t161.5 184t239 71t217 -85t84 -233q0 -93 -33.5 -181.5t-91.5 -158t-145.5 -111.5t-187.5 -42q-133 0 -216 83t-83 230zM1327 336q0 -58 30 -94.5t79 -36.5q73 0 126.5 73.5t53.5 155.5 q0 59 -30 96t-79 37q-77 0 -128.5 -72.5t-51.5 -158.5z" />
<glyph unicode="&#x26;" horiz-adv-x="1425" d="M127 338q0 306 373 469q-62 87 -62 186q0 132 69.5 241t187.5 170.5t257 61.5q168 0 264.5 -92t96.5 -235q0 -73 -31.5 -142t-85 -123.5t-117.5 -96.5t-137 -72l154 -179q50 47 180 207l235 -76l-35 -49q-36 -48 -99.5 -125t-131.5 -147l135 -166l-247 -190l-119 149 q-222 -147 -436 -147q-200 0 -325.5 92.5t-125.5 263.5zM483 412q0 -67 53 -111.5t144 -44.5q99 0 188 66l-221 276q-68 -27 -116 -75t-48 -111zM733 1016q0 -18 5 -36t12 -31t17 -25t17 -18.5t15 -13.5l8 -7q70 5 137.5 69.5t67.5 137.5q0 55 -28.5 90t-78.5 35 q-67 0 -119.5 -64.5t-52.5 -136.5z" />
<glyph unicode="'" horiz-adv-x="557" d="M215 717l182 717h389l-378 -717h-193z" />
<glyph unicode="(" horiz-adv-x="897" d="M205 440q0 141 42.5 275t115.5 245t173.5 210t213 175t237.5 136l80 -193q-243 -152 -387.5 -369t-144.5 -470q0 -320 266 -521l-152 -192q-215 122 -329.5 299.5t-114.5 404.5z" />
<glyph unicode=")" horiz-adv-x="897" d="M68 -72q114 68 208 154t167 190t114 229.5t41 258.5q0 161 -68.5 295t-195.5 233l151 193q211 -127 327 -316t116 -424q0 -176 -59.5 -331t-168 -278.5t-245.5 -220t-308 -175.5z" />
<glyph unicode="*" horiz-adv-x="866" d="M260 961l238 110l-195 113l113 145l180 -129l37 242h168l-62 -242l232 131l55 -147l-238 -111l195 -112l-113 -146l-178 129l-37 -242h-168l60 242l-232 -131z" />
<glyph unicode="+" horiz-adv-x="1310" d="M254 612l57 299h375l74 373h293l-74 -373h377l-58 -299h-376l-74 -372h-291l74 372h-377z" />
<glyph unicode="," horiz-adv-x="550" d="M12 -127q99 0 149.5 28t74.5 81q-57 14 -90 55.5t-33 101.5q0 94 70 166t165 72q72 0 114 -46.5t42 -135.5q0 -203 -129 -331.5t-340 -137.5z" />
<glyph unicode="-" horiz-adv-x="835" d="M186 532l58 299h667l-57 -299h-668z" />
<glyph unicode="." horiz-adv-x="548" d="M109 166q0 90 62 150.5t144 60.5q78 0 131.5 -53t53.5 -131q0 -91 -63.5 -152t-147.5 -61q-76 0 -128 54t-52 132z" />
<glyph unicode="/" horiz-adv-x="1071" d="M-125 -262l1274 1896h289l-1276 -1896h-287z" />
<glyph unicode="0" horiz-adv-x="1495" d="M209 555q0 134 35 264.5t106 246t168 203.5t230 139.5t284 51.5q247 0 390 -150t143 -421q0 -130 -37 -260.5t-109.5 -246.5t-170 -205.5t-228.5 -142t-275 -52.5q-132 0 -235.5 44t-168.5 122t-98.5 181.5t-33.5 225.5zM584 602q0 -127 62 -207t163 -80q70 0 133 33 t108 87t78.5 121t49.5 136.5t16 132.5q0 132 -61.5 216.5t-163.5 84.5q-68 0 -131 -34.5t-108 -91t-78.5 -125.5t-50.5 -140t-17 -133z" />
<glyph unicode="1" horiz-adv-x="854" d="M285 1329l534 115h166l-280 -1444h-365l213 1092l-252 -52z" />
<glyph unicode="2" horiz-adv-x="1277" d="M74 0l24 129q86 102 187 185.5t188 136t174.5 98.5t155.5 83.5t121.5 80.5t82.5 100t29 131q0 83 -52 137t-138 54q-29 0 -61.5 -7.5t-68 -26t-65.5 -46t-54 -70.5t-34 -96h-315l6 33q48 245 216 392.5t445 147.5q199 0 331 -125t132 -317q0 -78 -19 -149t-48 -127 t-78.5 -112t-95 -95.5t-114.5 -85t-119 -74.5t-126 -70h479l-57 -307h-1126z" />
<glyph unicode="3" horiz-adv-x="1269" d="M90 82l184 278q173 -73 414 -73q91 0 168.5 51t77.5 137q0 25 -10 48.5t-34 48.5t-76 40t-126 15h-135l-35 153l354 357h-512l58 307h1030l-31 -164l-422 -432q142 -44 219.5 -122.5t77.5 -205.5q0 -114 -39.5 -206.5t-105.5 -153.5t-156 -102.5t-187 -59.5t-202 -18 q-171 0 -282.5 21t-229.5 81z" />
<glyph unicode="4" horiz-adv-x="1400" d="M106 440l1057 1004h279l-168 -860h188l-55 -299h-188l-58 -285h-350l55 285h-725zM633 584h289l67 331z" />
<glyph unicode="5" horiz-adv-x="1286" d="M96 80l185 280q175 -73 415 -73q98 0 176 66.5t78 162.5q0 60 -44 104t-148 44q-57 0 -139.5 -8t-137.5 -16t-63 -11l-129 84l162 729h970l-57 -307h-668l-51 -226q125 27 277 27q184 0 283.5 -102t99.5 -275q0 -120 -35.5 -217.5t-97.5 -164t-149 -111.5t-186.5 -65.5 t-213.5 -20.5q-179 0 -292 20t-235 80z" />
<glyph unicode="6" horiz-adv-x="1355" d="M201 514q0 134 30 267.5t93 256.5t151.5 217t216 150.5t275.5 56.5q169 0 283 -37.5t212 -113.5l-205 -262q-125 106 -309 106q-74 0 -138 -34.5t-105.5 -89t-67 -113t-33.5 -113.5q61 59 160 96t213 37q56 0 109.5 -12.5t105 -40.5t90.5 -70t62.5 -105.5t23.5 -140.5 q0 -140 -55.5 -253.5t-151 -185t-220.5 -110t-267 -38.5q-214 0 -343.5 146.5t-129.5 385.5zM532 438q0 -72 55 -121t138 -49q106 0 195.5 72.5t89.5 175.5q0 76 -54.5 121t-144.5 45q-105 0 -192 -71t-87 -173z" />
<glyph unicode="7" horiz-adv-x="1247" d="M150 0l798 1137h-633l60 307h1093l-32 -164l-895 -1280h-391z" />
<glyph unicode="8" horiz-adv-x="1292" d="M135 352q0 261 301 422q-98 92 -98 227q0 113 50 202.5t135 145t192 84.5t227 29q92 0 168.5 -20.5t134 -60.5t89.5 -104.5t32 -146.5q0 -212 -209 -356q164 -116 164 -293q0 -107 -41 -193.5t-108 -142t-156.5 -93.5t-182.5 -54t-190 -16q-149 0 -261.5 39.5 t-179.5 124.5t-67 206zM489 410q0 -65 58 -106.5t147 -41.5q116 0 195.5 53.5t79.5 151.5q0 63 -64.5 108.5t-138.5 45.5q-115 0 -196 -57t-81 -154zM653 1014q0 -62 46 -102t116 -40q87 0 158 55.5t71 137.5q0 68 -48.5 108.5t-114.5 40.5q-87 -2 -157.5 -59t-70.5 -141z " />
<glyph unicode="9" horiz-adv-x="1355" d="M168 133l209 262q121 -106 307 -106q76 0 140 35.5t105 90.5t66 112.5t33 111.5q-56 -56 -163 -94.5t-208 -38.5q-55 0 -108.5 12.5t-105 41t-90.5 70t-63 104.5t-24 140q0 174 90.5 309t245.5 207t346 72q223 0 353.5 -148t130.5 -394q0 -185 -46.5 -342t-124.5 -265 t-180 -184t-211.5 -111.5t-220.5 -35.5q-158 0 -270.5 38t-210.5 113zM623 930q0 -76 55.5 -123t142.5 -47q104 0 191.5 72.5t87.5 173.5q0 74 -55.5 123t-139.5 49q-106 0 -194 -73t-88 -175z" />
<glyph unicode=":" horiz-adv-x="579" d="M121 166q0 90 62.5 150.5t144.5 60.5q78 0 131 -53t53 -131q0 -91 -63.5 -152t-147.5 -61q-76 0 -128 54t-52 132zM272 905q0 90 62.5 150.5t146.5 60.5q77 0 130 -53t53 -131q0 -91 -63.5 -152t-145.5 -61q-78 0 -130.5 54t-52.5 132z" />
<glyph unicode=";" horiz-adv-x="577" d="M23 -127q175 0 223 109q-57 14 -90 55.5t-33 101.5q0 94 70 166t165 72q75 0 114.5 -48t39.5 -136q0 -202 -128.5 -329t-338.5 -138zM268 905q0 90 62.5 150.5t146.5 60.5q77 0 129.5 -53t52.5 -131q0 -91 -63 -152t-145 -61q-78 0 -130.5 54t-52.5 132z" />
<glyph unicode="&#x3c;" horiz-adv-x="1310" d="M254 637l31 164l1112 497l-66 -337l-586 -242l492 -242l-66 -338z" />
<glyph unicode="=" horiz-adv-x="1304" d="M209 307l57 301h1002l-58 -301h-1001zM322 889l57 299h1001l-57 -299h-1001z" />
<glyph unicode="&#x3e;" horiz-adv-x="1310" d="M195 139l65 338l586 242l-492 242l66 337l915 -497l-30 -164z" />
<glyph unicode="?" horiz-adv-x="1105" d="M297 1360q135 61 244.5 81.5t271.5 20.5q210 0 328.5 -100.5t118.5 -280.5q0 -143 -73 -252t-195 -166.5t-273 -60.5l-35 -135h-250l35 268l45 82h121q64 0 130 22t116.5 71.5t50.5 113.5q0 58 -48 94.5t-118 36.5q-212 0 -406 -76zM305 166q0 90 62.5 150.5t144.5 60.5 q78 0 131 -53t53 -131q-6 -92 -67 -152.5t-144 -60.5q-77 0 -128.5 53.5t-51.5 132.5z" />
<glyph unicode="@" horiz-adv-x="1976" d="M193 430q0 205 89.5 399.5t237 337.5t348.5 229.5t414 86.5q214 0 383 -98.5t261.5 -270t92.5 -383.5q0 -95 -24.5 -186t-72.5 -170.5t-114.5 -140t-156 -95.5t-191.5 -35q-110 0 -172.5 48.5t-70.5 128.5q-71 -77 -160.5 -120.5t-182.5 -43.5q-106 0 -181.5 48.5 t-109.5 125t-34 172.5q0 104 46.5 216.5t122.5 204.5t185.5 152t224.5 60q92 0 155.5 -47t90.5 -127l47 133l273 -45q-95 -256 -181 -516q-28 -86 -28 -142q0 -100 88 -100q62 0 115.5 30.5t90.5 79.5t63.5 111t39 124.5t12.5 119.5q0 178 -77.5 322.5t-219.5 228.5t-321 84 q-176 0 -349 -72t-306.5 -191.5t-216 -287.5t-82.5 -348q0 -179 77 -324t218.5 -229t320.5 -84q301 0 555 180l72 -94q-141 -103 -300.5 -160t-322.5 -57q-165 0 -305 55t-237.5 153t-152 236.5t-54.5 300.5zM870 545q0 -57 34 -93t91 -36q92 0 166 79t74 171 q0 56 -34.5 92.5t-92.5 36.5q-91 0 -164.5 -79t-73.5 -171z" />
<glyph unicode="A" horiz-adv-x="1609" d="M16 0l981 1444h174l422 -1444h-381l-67 254h-586l-162 -254h-381zM748 553h329l-96 360z" />
<glyph unicode="B" horiz-adv-x="1460" d="M135 0l281 1444h671q112 0 184 -79.5t72 -188.5q0 -86 -41.5 -159t-113.5 -108q143 -21 223 -123.5t80 -255.5q0 -146 -74.5 -269t-195.5 -192t-258 -69h-828zM547 307h270q124 0 211.5 57t87.5 164q0 80 -67.5 117t-225.5 37h-200zM670 944h188q57 0 99 32.5t42 82.5 q0 35 -28 56.5t-82 21.5h-180z" />
<glyph unicode="C" horiz-adv-x="1503" d="M215 606q0 173 65 330.5t178.5 275t278 187t353.5 69.5q174 0 320 -75t226 -203l-303 -236q-38 80 -119 128t-176 48q-113 0 -216 -67t-165.5 -177t-62.5 -231q0 -146 88 -241t225 -95q94 0 189.5 48t158.5 127l230 -238q-124 -127 -292 -200.5t-339 -73.5 q-134 0 -252.5 48t-203 131t-134 198.5t-49.5 246.5z" />
<glyph unicode="D" horiz-adv-x="1558" d="M135 0l277 1444h612q260 0 430 -170t170 -428q0 -161 -68 -316t-179.5 -271t-265 -187.5t-316.5 -71.5h-660zM543 328h276q118 0 219 65t159 170.5t58 222.5q0 142 -82 236t-210 94h-263z" />
<glyph unicode="E" horiz-adv-x="1357" d="M135 0l281 1444h1102l-62 -307h-747l-58 -287h621l-55 -299h-623l-49 -244h792l-57 -307h-1145z" />
<glyph unicode="F" horiz-adv-x="1320" d="M135 0l281 1444h1126l-59 -307h-774l-91 -449h662l-57 -309h-662l-74 -379h-352z" />
<glyph unicode="G" horiz-adv-x="1581" d="M213 559q0 169 75 333t200.5 289t301 202t363.5 77q178 0 314 -54t223 -153l-279 -249q-50 59 -136 90.5t-190 31.5q-94 0 -185.5 -44t-160 -115t-111 -164.5t-42.5 -188.5q0 -139 90 -228t235 -89q139 0 281 76l18 92h-295l58 274h659l-112 -546q-324 -211 -676 -211 q-184 0 -328.5 75t-223.5 206.5t-79 295.5z" />
<glyph unicode="H" horiz-adv-x="1550" d="M135 0l281 1444h352l-133 -682h575l133 682h355l-281 -1444h-354l88 455h-576l-88 -455h-352z" />
<glyph unicode="I" horiz-adv-x="647" d="M141 0l281 1444h364l-280 -1444h-365z" />
<glyph unicode="J" horiz-adv-x="1165" d="M100 403q0 8 1 24.5t1 23.5l318 28q0 -75 40.5 -119.5t117.5 -44.5q70 0 128 49.5t70 116.5l189 963h364l-168 -854q-32 -163 -94.5 -282.5t-148 -189.5t-183 -103t-211.5 -33q-190 0 -307 119t-117 302z" />
<glyph unicode="K" horiz-adv-x="1484" d="M135 0l281 1444h352l-121 -610l662 610h436l-766 -719l506 -725h-475l-318 449l-143 -130l-62 -319h-352z" />
<glyph unicode="L" horiz-adv-x="1255" d="M135 0l281 1444h362l-223 -1145h709l-56 -299h-1073z" />
<glyph unicode="M" horiz-adv-x="1779" d="M135 0l281 1444h172l432 -758l731 758h174l-280 -1444h-365l129 657l-491 -507l-291 507l-129 -657h-363z" />
<glyph unicode="N" horiz-adv-x="1603" d="M135 0l281 1444h172l641 -791l157 791h365l-281 -1444h-174l-643 791l-155 -791h-363z" />
<glyph unicode="O" horiz-adv-x="1708" d="M207 616q0 168 64.5 322.5t177 270t276.5 184.5t352 69q195 0 352.5 -86t245.5 -234.5t88 -330.5q0 -188 -70.5 -345.5t-190 -262.5t-276.5 -163t-331 -58q-194 0 -352 83.5t-247 228.5t-89 322zM584 653q0 -145 99 -241.5t251 -96.5q117 0 222 61t170 167t65 229 q0 150 -100 252t-253 102q-119 0 -224.5 -67t-167.5 -176.5t-62 -229.5z" />
<glyph unicode="P" d="M135 0l281 1444h608q107 0 192 -21.5t141 -59t92.5 -91t52.5 -114t16 -132.5q0 -172 -56 -305.5t-158.5 -218t-242 -127.5t-311.5 -43h-187l-65 -332h-363zM621 629h147q168 0 268.5 77t100.5 234q0 90 -58 144.5t-176 54.5h-184z" />
<glyph unicode="Q" horiz-adv-x="1708" d="M203 629q0 160 70.5 313t188 267t278.5 183.5t333 69.5q193 0 350 -86t245.5 -235t88.5 -330q0 -282 -207 -518l133 -125l-190 -201l-150 144q-207 -129 -454 -129q-194 0 -351.5 85t-246 233.5t-88.5 328.5zM575 670q0 -152 100.5 -253.5t254.5 -101.5q91 0 164 33 l-78 74l188 201l96 -91q37 47 60.5 110.5t23.5 129.5q0 150 -100.5 252t-251.5 102q-117 0 -223 -62t-170 -168t-64 -226z" />
<glyph unicode="R" horiz-adv-x="1462" d="M135 0l281 1444h639q129 0 230 -33t163.5 -91t94.5 -133.5t32 -162.5q0 -232 -97 -382.5t-292 -238.5l244 -403h-433l-182 334q-37 -2 -110 -2h-142l-65 -332h-363zM621 627h202q165 0 261 78t96 235q0 197 -219 197h-242z" />
<glyph unicode="S" horiz-adv-x="1331" d="M111 119l172 274q120 -61 231 -82.5t252 -21.5q36 0 71 6.5t69.5 21t55.5 42t21 65.5q0 43 -54.5 75t-185.5 62q-89 20 -152.5 38.5t-128.5 48.5t-104.5 66t-64.5 89t-25 119q0 241 166.5 393.5t452.5 152.5t559 -116l-191 -285q-97 41 -209 67.5t-206 26.5 q-72 0 -133.5 -37t-61.5 -102q0 -46 55 -76t193 -61q112 -30 191 -63t143 -80.5t95.5 -114t31.5 -152.5q0 -112 -38 -199t-100.5 -142t-150 -90.5t-178 -49.5t-193.5 -14q-187 0 -308.5 28.5t-274.5 110.5z" />
<glyph unicode="T" horiz-adv-x="1351" d="M276 1137l62 307h1243l-61 -307h-439l-221 -1137h-364l221 1137h-441z" />
<glyph unicode="U" horiz-adv-x="1552" d="M223 487q0 49 8 93l166 864h353q-160 -856 -160 -924q0 -112 61 -161.5t180 -49.5q155 0 248.5 87t130.5 280l150 768h352l-168 -864q-26 -131 -80 -234t-125.5 -170.5t-163.5 -112t-189 -63t-206 -18.5q-256 0 -406.5 135t-150.5 370z" />
<glyph unicode="V" horiz-adv-x="1556" d="M305 1444h393l197 -830l524 830h398l-955 -1444h-166z" />
<glyph unicode="W" horiz-adv-x="2287" d="M313 1444h394l122 -750l521 750h145l219 -750l422 750h393l-856 -1444h-143l-223 842l-553 -842h-144z" />
<glyph unicode="X" horiz-adv-x="1490" d="M31 0l624 731l-325 713h403l209 -440l385 440h399l-602 -713l340 -731h-409l-217 457l-396 -457h-411z" />
<glyph unicode="Y" horiz-adv-x="1464" d="M283 1444h413l205 -567l428 567h414l-733 -957l-97 -487h-364l96 487z" />
<glyph unicode="Z" horiz-adv-x="1419" d="M84 0l29 156l925 981h-704l59 307h1223l-33 -162l-921 -975h733l-58 -307h-1253z" />
<glyph unicode="[" horiz-adv-x="899" d="M90 -260l330 1696h670l-52 -260h-376l-230 -1174h377l-49 -262h-670z" />
<glyph unicode="\" horiz-adv-x="1069" d="M268 1634h289l539 -1896h-289z" />
<glyph unicode="]" horiz-adv-x="901" d="M37 -260l49 262h377l231 1174h-377l50 260h669l-329 -1696h-670z" />
<glyph unicode="^" horiz-adv-x="1009" d="M274 1004l431 440h155l260 -440h-246l-131 231l-225 -231h-244z" />
<glyph unicode="_" horiz-adv-x="1224" d="M-55 -264l39 203h1230l-40 -203h-1229z" />
<glyph unicode="`" horiz-adv-x="1009" d="M571 1874l385 31l152 -373h-211z" />
<glyph unicode="a" d="M166 401q0 115 31 224t90.5 201.5t141.5 162t190.5 109t230.5 39.5q139 0 272 -76l11 53h352l-215 -1114h-352l12 66q-155 -84 -305 -84q-201 0 -330 114t-129 305zM520 483q0 -90 60 -140t168 -50q129 0 239 76l74 379q-78 75 -207 75q-94 0 -172 -49.5t-120 -127.5 t-42 -163z" />
<glyph unicode="b" horiz-adv-x="1382" d="M113 0l299 1544h352l-92 -477q155 68 301 68q204 0 332.5 -113t128.5 -309q0 -176 -57 -318t-153.5 -231t-218.5 -136.5t-257 -47.5q-149 0 -275 69l-8 -49h-352zM537 369q79 -76 206 -76q135 0 234.5 95t99.5 233q0 93 -58.5 147.5t-168.5 54.5q-128 0 -240 -75z" />
<glyph unicode="c" horiz-adv-x="1169" d="M162 426q0 144 44 264t116.5 200.5t168.5 137t198 82t206 25.5q134 0 238 -61.5t161 -168.5l-264 -209q-25 59 -75.5 93t-118.5 34q-132 0 -228 -99.5t-96 -234.5q0 -85 61 -140.5t156 -55.5q69 0 134.5 34t109.5 93l182 -205q-99 -111 -229 -172t-269 -61 q-215 0 -355 128t-140 316z" />
<glyph unicode="d" horiz-adv-x="1382" d="M166 399q0 144 52.5 278t142 235t217.5 162t270 61q146 0 276 -68l93 477h352l-299 -1544h-352l8 47q-137 -67 -318 -67q-194 0 -318 115t-124 304zM518 492q0 -96 59 -147.5t171 -51.5q129 0 239 76l74 379q-75 75 -207 75q-137 0 -236.5 -102t-99.5 -229z" />
<glyph unicode="e" horiz-adv-x="1245" d="M162 412q0 143 48.5 273.5t136.5 230.5t220 159.5t289 59.5q143 0 246 -60.5t152 -160.5t49 -228q0 -68 -35 -227h-762q6 -89 61.5 -143t155.5 -54q67 0 144 37.5t132 99.5l187 -182q-53 -59 -102 -98.5t-114 -72.5t-147.5 -48.5t-187.5 -15.5q-214 0 -343.5 121 t-129.5 309zM545 664h430q4 28 4 38q0 71 -49 114.5t-125 43.5q-82 0 -152 -55.5t-108 -140.5z" />
<glyph unicode="f" horiz-adv-x="819" d="M-74 -371l54 277q8 -2 22 -2q56 0 88.5 9.5t55.5 41t35 71.5t28 121l135 682h-139l55 285h137l17 82q35 179 149 274t262 95q83 0 151.5 -12t92 -20.5t31.5 -14.5l-51 -256q-93 6 -95 6q-49 0 -83.5 -8t-54.5 -18.5t-33.5 -33.5t-18.5 -41.5t-12 -52.5h264l-55 -285h-265 l-166 -856q-34 -174 -146.5 -269t-264.5 -95q-115 0 -193 20z" />
<glyph unicode="g" horiz-adv-x="1382" d="M90 -313l115 254q12 -5 61.5 -19t132.5 -30.5t140 -16.5q112 0 189.5 28.5t120.5 75.5t71 121q-139 -59 -285 -59q-211 0 -337 115t-126 313q0 192 86 344t240.5 237t349.5 85q145 0 276 -64l9 43h352l-170 -872q-14 -72 -29.5 -129.5t-44 -125t-65 -119t-92.5 -102 t-126 -83t-167 -52.5t-213 -20q-56 0 -112 4t-102.5 10.5t-88.5 14.5t-75 16t-56.5 15t-38 11.5t-15.5 4.5zM524 522q0 -77 59 -123.5t160 -46.5q148 0 252 70l68 332q-75 69 -209 69t-232 -89t-98 -212z" />
<glyph unicode="h" horiz-adv-x="1298" d="M113 0l299 1544h352l-90 -465q127 56 264 56q209 0 303 -77t94 -249q0 -43 -25 -187.5t-116 -621.5h-352q129 671 129 692q0 67 -38 99t-118 32q-115 0 -201 -61l-149 -762h-352z" />
<glyph unicode="i" horiz-adv-x="595" d="M119 0l215 1114h352l-215 -1114h-352zM369 1386q0 90 61.5 151.5t144.5 61.5q78 0 130.5 -54t52.5 -132q0 -91 -62.5 -152t-146.5 -61q-77 0 -128.5 54.5t-51.5 131.5z" />
<glyph unicode="j" horiz-adv-x="598" d="M-135 -369l53 275q44 0 72.5 3t52 15t37.5 26.5t26.5 45.5t20 64t18.5 90l189 964h354l-221 -1143q-34 -172 -150.5 -266t-265.5 -94q-118 0 -186 20zM369 1386q0 90 62.5 151.5t146.5 61.5q76 0 129 -54t53 -132q0 -91 -63.5 -152t-145.5 -61q-77 0 -129.5 54.5 t-52.5 131.5z" />
<glyph unicode="k" horiz-adv-x="1236" d="M113 0l299 1544h352l-160 -815l434 385h408l-475 -438l268 -676h-389l-162 401l-174 -145l-49 -256h-352z" />
<glyph unicode="l" horiz-adv-x="593" d="M119 0l299 1544h354l-299 -1544h-354z" />
<glyph unicode="m" horiz-adv-x="1994" d="M115 0l215 1114h352l-10 -49q124 70 266 70q265 0 344 -129q178 129 356 129q208 0 303 -77t95 -247q0 -85 -21 -199l-119 -612h-354l119 612q8 41 8 80q0 67 -37 99t-116 32q-102 0 -197 -65v-17q0 -36 -19 -133l-116 -608h-353l119 612q8 44 8 84q0 65 -34.5 96 t-108.5 31q-112 0 -201 -67l-147 -756h-352z" />
<glyph unicode="n" horiz-adv-x="1300" d="M113 0l215 1114h352l-10 -49q134 70 268 70q208 0 303.5 -77t95.5 -247q0 -80 -22 -199l-119 -612h-354l119 612q10 52 10 80q0 131 -156 131q-114 0 -203 -67l-147 -756h-352z" />
<glyph unicode="o" horiz-adv-x="1349" d="M160 455q0 141 49.5 265.5t140 217t227 146t300.5 53.5q222 0 373 -139t151 -336q0 -135 -40.5 -248.5t-109 -192t-160.5 -133.5t-195 -80.5t-212 -25.5q-222 0 -373 138t-151 335zM514 506q0 -90 59 -151.5t156 -61.5q133 0 228.5 89t95.5 222q0 97 -61 158t-158 61 q-132 0 -226 -97.5t-94 -219.5z" />
<glyph unicode="p" horiz-adv-x="1382" d="M41 -358l287 1472h352l-8 -47q152 68 301 68q206 0 332.5 -117.5t126.5 -319.5q0 -138 -54.5 -269.5t-146 -229.5t-218 -157.5t-263.5 -59.5q-149 0 -277 67l-80 -407h-352zM537 369q76 -76 206 -76q136 0 235 98t99 225q0 94 -59 150.5t-168 56.5q-131 0 -240 -75z" />
<glyph unicode="q" horiz-adv-x="1382" d="M168 426q0 139 54.5 269.5t145 227t216.5 154.5t262 58q148 0 278 -68l9 47h352l-287 -1472h-352l80 407q-140 -67 -318 -67q-202 0 -321 121t-119 323zM518 479q0 -84 58 -135t157 -51q141 0 254 76l76 379q-81 75 -209 75q-93 0 -171.5 -50t-121.5 -129t-43 -165z" />
<glyph unicode="r" horiz-adv-x="894" d="M115 0l215 1114h352l-25 -123q161 141 371 144q23 0 33 -2l-76 -383q-61 12 -115 12q-72 0 -128 -21t-90 -57.5t-54 -76t-29 -85.5l-102 -522h-352z" />
<glyph unicode="s" horiz-adv-x="1056" d="M74 88l178 256q105 -49 180 -69.5t168 -20.5q53 0 96 20.5t43 63.5q0 24 -34 39t-136 39q-84 19 -142 40t-108 52.5t-75 77.5t-25 106q0 206 138.5 324.5t367.5 118.5q125 0 225.5 -24.5t204.5 -66.5l-168 -253q-179 69 -321 69q-117 0 -123 -63q0 -33 39.5 -52 t150.5 -43q170 -37 252 -98.5t82 -169.5q0 -101 -31 -180.5t-81.5 -129.5t-120 -83t-141.5 -46t-152 -13q-154 0 -253.5 21.5t-213.5 84.5z" />
<glyph unicode="t" horiz-adv-x="872" d="M203 829l53 285h145l84 430h353l-84 -430h272l-53 -285h-273q-52 -255 -67 -335t-15 -119q0 -57 27 -78t103 -21q40 0 112 7l-49 -256q-4 -4 -32.5 -13.5t-98 -20.5t-150.5 -11q-129 0 -208.5 67.5t-79.5 200.5q0 40 10 92l94 487h-143z" />
<glyph unicode="u" horiz-adv-x="1302" d="M168 305q0 42 66.5 392t84.5 417h353q-10 -44 -70.5 -364.5t-60.5 -337.5q0 -61 38.5 -90t120.5 -29q87 0 205 86l146 735h354l-215 -1114h-354l10 51q-61 -33 -137 -51t-142 -18q-199 0 -299 82t-100 241z" />
<glyph unicode="v" horiz-adv-x="1275" d="M240 1114h368l144 -524l346 524h368l-745 -1114h-164z" />
<glyph unicode="w" horiz-adv-x="1761" d="M242 1114h348l88 -543l334 543h168l120 -543l302 543h348l-627 -1114h-172l-152 606l-391 -606h-168z" />
<glyph unicode="x" horiz-adv-x="1204" d="M23 0l493 573l-272 541h393l127 -274l235 274h394l-484 -541l275 -573h-379l-148 279l-258 -279h-376z" />
<glyph unicode="y" horiz-adv-x="1296" d="M33 -313l114 254q78 -23 112.5 -32.5t105.5 -21.5t135 -12q132 0 211.5 44.5t126.5 129.5q-128 -67 -267 -67q-208 0 -307.5 83t-99.5 250q0 41 118 640q20 102 31 159h353q-6 -45 -70 -356t-64 -357q0 -63 35 -85.5t127 -22.5q91 0 205 86l148 735h352l-164 -850 q-14 -71 -23 -111.5t-27 -105t-35.5 -102.5t-47.5 -90t-64.5 -82.5t-84.5 -65.5t-109.5 -53t-138 -30.5t-170.5 -12.5q-42 0 -78.5 1t-64 1.5t-59 4.5t-47 4.5t-45.5 7t-38 7.5t-41 10.5t-37.5 11t-45 14t-46.5 14.5z" />
<glyph unicode="z" horiz-adv-x="1159" d="M47 0l29 168l676 661h-500l55 285h1022l-29 -166l-677 -663h528l-53 -285h-1051z" />
<glyph unicode="{" horiz-adv-x="978" d="M152 438l51 260q68 0 116 6.5t85.5 15.5t63.5 36.5t43.5 50.5t33.5 78t26 98t27 131q13 66 37 117.5t53.5 87t73.5 60.5t86.5 39.5t102.5 22.5t111.5 10.5t123.5 2.5l-43 -221q-67 0 -114 -10t-78.5 -28.5t-53 -52t-34 -72t-23.5 -97.5l-27 -137q-23 -115 -74.5 -177.5 t-148.5 -91.5q67 -20 98 -60t31 -108q0 -63 -27.5 -180t-27.5 -176q0 -75 48.5 -108t170.5 -33l-43 -221q-74 0 -126.5 3t-110 11t-96 25t-71 43.5t-48 67.5t-15.5 95q0 63 25.5 182.5t25.5 178.5q0 88 -57.5 119.5t-214.5 31.5z" />
<glyph unicode="|" horiz-adv-x="704" d="M164 -262l368 1896h273l-369 -1896h-272z" />
<glyph unicode="}" horiz-adv-x="978" d="M14 -319l45 221q67 0 113 10t76 27.5t51 52t32.5 71t24.5 97.5l31 143q25 117 74.5 177.5t146.5 86.5q-67 22 -97 63t-30 109q0 62 24.5 178.5t24.5 174.5q0 76 -46 108.5t-167 32.5l43 221q71 0 122 -2.5t108 -11t95 -25t71 -43t49 -67.5t16 -95q0 -64 -22.5 -195 t-22.5 -163q0 -89 57 -121.5t214 -32.5l-50 -260q-47 0 -84 -2t-68.5 -9t-55 -13t-44 -22t-34.5 -28.5t-27.5 -39.5t-21.5 -47.5t-17.5 -60t-16 -69.5t-16.5 -84l-8 -43q-15 -76 -43.5 -133t-72 -93.5t-90.5 -59.5t-114.5 -34.5t-126.5 -15t-143 -3.5z" />
<glyph unicode="~" horiz-adv-x="1024" d="M174 465q33 160 121.5 252t196.5 92q68 0 170.5 -40t132.5 -40q80 0 149 117l152 -19q-30 -153 -119 -248.5t-193 -95.5q-53 0 -114.5 20t-113 40t-79.5 20q-82 0 -153 -117z" />
<glyph unicode="&#xa1;" horiz-adv-x="634" d="M166 0l237 924h248l-121 -924h-364zM389 1249q0 90 63 150.5t148 60.5q78 0 129 -53t51 -131q0 -90 -62.5 -150.5t-144.5 -60.5q-78 0 -131 53t-53 131z" />
<glyph unicode="&#xa2;" horiz-adv-x="1177" d="M197 690q0 173 95.5 320t252.5 233t340 96l41 123h221l-51 -164q140 -54 229 -176l-244 -188q-39 55 -75 78l-187 -578q129 26 209 131l199 -188q-96 -103 -225.5 -161.5t-268.5 -59.5l-51 -156h-225l61 199q-148 59 -234.5 190t-86.5 301zM504 707q0 -69 27.5 -127 t78.5 -95l189 576q-127 -25 -211 -124t-84 -230z" />
<glyph unicode="&#xa3;" horiz-adv-x="1308" d="M88 0l31 164l227 115q9 145 19 229h-177l50 262h155q44 334 218.5 514t435.5 180q143 0 249.5 -70.5t149.5 -189.5l-268 -205q-21 58 -72.5 93.5t-124.5 35.5q-67 0 -118.5 -58t-76.5 -138t-26 -162h457l-50 -262h-434q-1 -22 -6 -98t-6 -111h571l-55 -299h-1149z" />
<glyph unicode="&#xa4;" horiz-adv-x="1992" d="M78 -229h8l25 -76l16 76h8l19 -76l24 76h8l-28 -86h-8l-19 71l-16 -71h-9zM154 45v180h61q38 0 64 -26.5t26 -63.5t-24.5 -63.5t-59.5 -26.5h-67zM201 -229h8l24 -76l17 76h8l18 -76l25 76h8l-28 -86h-9l-18 71l-16 -71h-9zM203 88h14q17 0 28 13.5t11 33.5q0 19 -12 32 t-29 13h-12v-92zM319 45v180h130v-41h-80v-24h53v-35h-53v-41h86v-39h-136zM328 -229h8l24 -76l17 76h8l18 -76l25 76h8l-28 -86h-9l-18 71l-16 -71h-9zM385 922q0 116 64.5 210t168.5 136q42 104 137 168.5t212 64.5q116 0 210 -64.5t136 -168.5q104 -42 168.5 -136 t64.5 -210q0 -117 -64.5 -212t-168.5 -137q-42 -104 -136 -168.5t-210 -64.5q-117 0 -212 64.5t-137 168.5q-104 42 -168.5 137t-64.5 212zM440 -311q0 8 9 8q8 0 8 -8t-8 -8q-9 0 -9 8zM467 59l18 37q32 -14 62 -14q20 0 20 12t-28 19q-34 7 -51 18.5t-17 38.5q0 25 18 41 t50 16q31 0 73 -14l-20 -39q-32 12 -53 12q-19 0 -19 -12q0 -11 31 -18q67 -13 67 -56q0 -28 -19.5 -43.5t-53.5 -15.5q-41 0 -78 18zM479 -231h8v-86h-8v86zM510 -231h8l51 -72v72h9v-86h-9l-51 73v-73h-8v86zM596 -231h61v-9h-26v-77h-8v77h-27v9zM635 45v180h49v-180h-49 zM678 -231h53v-9h-45v-36h41v-9h-41v-24h45v-8h-53v86zM692 602h88v141l142 -141v275h-230v-275zM692 965h230v274l-142 -141v141h-88v-274zM698 135q0 38 28.5 65t68.5 27q44 0 73 -26l-32 -33q-18 14 -41 14q-19 0 -32 -13.5t-13 -33.5q0 -22 13 -36.5t32 -14.5q12 0 28 8 v8h-32v35h83v-67q-29 -24 -79 -27q-40 0 -68.5 28t-28.5 66zM750 -231h8v-78h41v-8h-49v86zM817 -231h8v-78h41v-8h-49v86zM885 -231h8v-86h-8v86zM893 45v180h22l97 -94v94h49v-180h-23l-96 92v-92h-49zM911 -274q0 19 13 32t30 13q18 0 33 -15l-6 -6q-9 12 -27 12 q-14 0 -24 -10.5t-10 -25.5q0 -14 10.5 -24.5t25.5 -10.5q6 0 12.5 2t9.5 4l3 2v10h-20v8h28v-22q-13 -12 -33 -12t-32.5 12t-12.5 31zM1008 -231h53v-9h-45v-36h41v-9h-41v-24h45v-8h-53v86zM1010 602h71q65 0 111.5 47t46.5 113q0 69 -49 115h-180v-275zM1010 965h180 q49 46 49 114q0 66 -46.5 113t-111.5 47h-71v-274zM1079 -231h8l52 -72v72h8v-86h-8l-52 73v-73h-8v86zM1083 45v180h131v-41h-81v-24h55v-35h-55v-41h86v-39h-136zM1163 -231h62v-9h-27v-77h-8v77h-27v9zM1241 45v180h62q38 0 64 -26.5t26 -63.5t-24.5 -63.5t-59.5 -26.5 h-68zM1243 -231h25q18 0 30.5 -12.5t12.5 -30.5t-13.5 -30.5t-29.5 -12.5h-25v86zM1251 -240v-69h17q14 0 24.5 10.5t10.5 24.5q0 15 -10.5 24.5t-24.5 9.5h-17zM1290 88h15q17 0 27.5 13t10.5 34q0 19 -11.5 32t-28.5 13h-13v-92zM1329 -231h53v-9h-45v-36h41v-9h-41v-24 h45v-8h-53v86zM1397 -299l6 4q7 -14 24 -14q6 0 11.5 4.5t5.5 11.5q0 11 -17 17q-24 10 -24 24q0 9 6.5 16t15.5 7q15 0 23 -15l-6 -4q-7 10 -17 10q-5 0 -9.5 -4t-4.5 -10q0 -10 19 -16q22 -8 22 -25q0 -10 -7 -17t-18 -7q-23 0 -30 18zM1454 45v180h80q53 0 53 -39 q0 -19 -16 -32q35 -14 35 -54q0 -23 -15 -39t-41 -16h-96zM1473 -231h8v-86h-8v86zM1499 -274q0 19 13 32t30 13q18 0 33 -15l-6 -6q-9 12 -27 12q-14 0 -24.5 -10.5t-10.5 -25.5q0 -14 11 -24.5t26 -10.5q6 0 12.5 2t9.5 4l3 2v10h-21v8h29v-22q-13 -12 -33 -12t-32.5 12 t-12.5 31zM1501 84h23q30 0 30 22q0 21 -36 21h-17v-43zM1501 162h29q14 0 14 10q0 12 -12 12h-31v-22zM1593 223h56l37 -65l36 65h58l-70 -119v-59h-49v59zM1597 -231h9l51 -72v72h8v-86h-8l-51 73v-73h-9v86zM1679 -311q0 8 9 8q8 0 8 -8t-8 -8q-9 0 -9 8zM1704 -274 q0 19 13 32t30 13q18 0 33 -15l-6 -6q-9 12 -27 12q-14 0 -24.5 -10.5t-10.5 -25.5q0 -14 11 -24.5t26 -10.5q6 0 12.5 2t9.5 4l3 2v10h-21v8h29v-22q-13 -12 -33 -12t-32.5 12t-12.5 31zM1800 -231h23q13 0 22.5 -10.5t9.5 -22.5q0 -22 -18 -31l21 -22h-13l-16 18h-21v-18 h-8v86zM1808 -240v-51h15q10 1 17 9.5t7 17.5q0 10 -7.5 17t-16.5 7h-15z" />
<glyph unicode="&#xa5;" horiz-adv-x="1488" d="M203 160l43 229h391l16 100h-387l43 230h258l-274 725h414l202 -567l432 567h412l-557 -725h258l-43 -230h-387l-23 -100h390l-43 -229h-390l-32 -160h-365l33 160h-391z" />
<glyph unicode="&#xa6;" horiz-adv-x="702" d="M164 -260l151 784h273l-152 -784h-272zM379 850l153 784h273l-154 -784h-272z" />
<glyph unicode="&#xa7;" horiz-adv-x="1282" d="M158 82l176 240q91 -51 161.5 -71t159.5 -20q70 0 114 30.5t44 64.5q0 28 -42 50t-105.5 35.5t-137 34t-137 44.5t-105.5 69t-42 105q0 167 198 270q-3 2 -7.5 6.5t-16 18t-20.5 28.5t-16 38t-7 46q0 115 73 205.5t186.5 137t242.5 46.5q133 0 269.5 -28t225.5 -66 l-166 -254q-82 33 -190 58.5t-197 25.5q-50 0 -87.5 -21.5t-37.5 -62.5q0 -26 44 -44.5t155 -43.5q24 -5 66 -14.5t65 -14.5t59 -14t56.5 -16t48.5 -18.5t44 -23t34 -27.5t27 -34t15.5 -40.5t6.5 -49.5q0 -87 -60.5 -169.5t-136.5 -104.5q33 -38 33 -109q0 -92 -48 -172 t-124 -131.5t-168.5 -81t-183.5 -29.5q-153 0 -252 21.5t-217 85.5zM508 739q0 -24 24 -43t71.5 -33.5t91 -24.5t111 -23t103.5 -21q123 19 133 86q0 56 -221 106q-118 29 -198 54q-46 -10 -80.5 -42t-34.5 -59z" />
<glyph unicode="&#xa8;" horiz-adv-x="1024" d="M455 1655q0 77 54 129.5t124 52.5q61 0 101 -39.5t40 -101.5q0 -77 -54 -130t-122 -53q-63 0 -103 40t-40 102zM883 1659q0 76 54 127t124 51q62 0 102.5 -40t40.5 -101q0 -77 -54.5 -130t-123.5 -53q-61 0 -102 42t-41 104z" />
<glyph unicode="&#xa9;" horiz-adv-x="1699" d="M233 651q0 161 68 312t181 262t268.5 178t322.5 67q141 0 263.5 -52.5t207.5 -142.5t133.5 -213t48.5 -261q0 -104 -29 -207t-82 -193t-129.5 -167.5t-168.5 -133t-203 -87t-229 -31.5q-141 0 -263 52.5t-207 142t-133.5 213t-48.5 261.5zM330 655q0 -248 159.5 -413.5 t407.5 -165.5q187 0 354 94.5t270 261t103 361.5q0 162 -70 294.5t-198.5 209.5t-292.5 77q-141 0 -275 -57.5t-234.5 -153.5t-162 -229.5t-61.5 -278.5zM563 686q0 189 141 328t334 139q97 0 177 -42.5t128 -117.5l-172 -135q-47 98 -157 98q-96 0 -169 -80t-73 -182 q0 -88 53.5 -145t139.5 -57q101 0 174 100l139 -137q-67 -74 -161 -117t-193 -43q-155 0 -258 113.5t-103 277.5z" />
<glyph unicode="&#xaa;" horiz-adv-x="1038" d="M279 950q0 129 64 242.5t173.5 181.5t233.5 68q100 0 188 -51l6 34h250l-152 -776h-249l8 41q-107 -57 -209 -57q-152 0 -232.5 90.5t-80.5 226.5zM522 999q0 -62 41.5 -104.5t116.5 -42.5q87 0 162 53l53 264q-57 54 -141 54q-95 0 -163.5 -68t-68.5 -156z" />
<glyph unicode="&#xab;" horiz-adv-x="1267" d="M170 545l465 532l192 -170l-344 -362l203 -361l-258 -172zM698 545l463 532l193 -170l-344 -362l204 -361l-260 -172z" />
<glyph unicode="&#xac;" horiz-adv-x="1216" d="M219 760l55 299h1045l-127 -662h-291l70 363h-752z" />
<glyph unicode="&#xad;" horiz-adv-x="835" d="M186 532l58 299h667l-57 -299h-668z" />
<glyph unicode="&#xae;" horiz-adv-x="1699" d="M233 651q0 161 68 312t181 262t268.5 178t322.5 67q141 0 263.5 -52.5t207.5 -142.5t133.5 -213t48.5 -261q0 -104 -29 -207t-82 -193t-129.5 -167.5t-168.5 -133t-203 -87t-229 -31.5q-141 0 -263 52.5t-207 142t-133.5 213t-48.5 261.5zM330 655q0 -248 159.5 -413.5 t407.5 -165.5q187 0 354 94.5t270 261t103 361.5q0 162 -70 294.5t-198.5 209.5t-292.5 77q-141 0 -275 -57.5t-234.5 -153.5t-162 -229.5t-61.5 -278.5zM563 315l164 834h381q150 0 218.5 -64.5t68.5 -171.5q0 -111 -48.5 -200t-127.5 -138l112 -141l-172 -149l-178 223 q-10 -2 -33 -2h-135l-39 -191h-211zM842 659h114q101 0 155 58t54 137q0 54 -30 87.5t-95 33.5h-137z" />
<glyph unicode="&#xaf;" horiz-adv-x="1024" d="M489 1550l43 224h648l-43 -224h-648z" />
<glyph unicode="&#xb0;" horiz-adv-x="966" d="M319 1067q0 102 58 196.5t155.5 153t206.5 58.5q137 0 233.5 -95t96.5 -231q0 -102 -58 -195.5t-155.5 -151t-206.5 -57.5q-140 0 -235 93t-95 229zM504 1081q0 -67 46.5 -112t119.5 -45q85 0 149 62.5t64 148.5q0 69 -47.5 114t-118.5 45q-85 0 -149 -64t-64 -149z" />
<glyph unicode="&#xb1;" horiz-adv-x="1310" d="M135 0l55 297h1045l-55 -297h-1045zM283 760l55 297h377l73 375h293l-75 -375h376l-55 -297h-377l-73 -375h-291l73 375h-376z" />
<glyph unicode="&#xb2;" horiz-adv-x="849" d="M207 612l18 90q44 60 118 113t144 89.5t135.5 74t105.5 83.5t40 101q0 50 -32 79.5t-81 29.5q-48 0 -98 -36.5t-61 -107.5h-189q29 151 138 243.5t251 92.5q116 0 193.5 -73t77.5 -185q0 -61 -22 -117t-52.5 -95.5t-80 -81t-86 -65t-89.5 -54.5h262l-35 -181h-657z" />
<glyph unicode="&#xb3;" horiz-adv-x="849" d="M197 662l108 161q100 -45 240 -45q55 0 98 30.5t43 80.5q0 32 -32.5 58t-110.5 26h-78l-21 88l203 203h-293q29 143 35 178h594l-16 -94l-246 -248q174 -54 174 -180q0 -77 -37 -140t-96.5 -101t-128.5 -58.5t-139 -20.5q-97 0 -161 13t-136 49z" />
<glyph unicode="&#xb4;" horiz-adv-x="1024" d="M299 1532l229 373l379 -31l-397 -342h-211z" />
<glyph unicode="&#xb5;" horiz-adv-x="1312" d="M41 -356l287 1472h352l-119 -614q-8 -39 -8 -76q0 -69 37 -101t119 -32q112 0 204 67l146 754h354l-215 -1114h-354l8 45q-111 -63 -231 -63q-92 0 -150 49l-78 -387h-352z" />
<glyph unicode="&#xb6;" horiz-adv-x="1210" d="M221 840q0 114 38.5 212t104.5 167.5t154.5 118.5t188 72.5t204.5 23.5h449l-279 -1434h-399l88 461h-43q-232 0 -369 98.5t-137 280.5zM668 950q0 -46 35.5 -70t97.5 -24h49l51 244h-29q-85 0 -144.5 -38.5t-59.5 -111.5z" />
<glyph unicode="&#xb7;" horiz-adv-x="555" d="M203 627q0 91 62.5 152t146.5 61q76 0 129 -54t53 -131q0 -91 -63.5 -153t-145.5 -62q-77 0 -129.5 55t-52.5 132z" />
<glyph unicode="&#xb8;" horiz-adv-x="878" d="M133 -385l2 117q49 -2 72 -2q158 4 158 63q0 45 -127 45l180 164h207l-70 -111q35 -20 35 -71q0 -91 -94.5 -149t-294.5 -58z" />
<glyph unicode="&#xb9;" horiz-adv-x="831" d="M449 1376l311 68h94l-162 -832h-211l123 627l-147 -29z" />
<glyph unicode="&#xba;" horiz-adv-x="1038" d="M276 965q0 105 45 196.5t118 152t165 95.5t187 35q156 0 255 -94t99 -238q0 -111 -45 -204t-119 -151t-164 -90t-184 -32q-157 0 -257 94t-100 236zM522 1004q0 -64 42.5 -107t109.5 -43q93 0 159 62t66 159q0 64 -42 107t-109 43q-90 0 -158 -67.5t-68 -153.5z" />
<glyph unicode="&#xbb;" horiz-adv-x="1265" d="M119 184l344 361l-203 362l260 170l256 -532l-463 -533zM645 184l344 361l-203 362l261 170l256 -532l-463 -533z" />
<glyph unicode="&#xbc;" horiz-adv-x="1863" d="M287 0l1267 1436h254l-1267 -1436h-254zM397 1376l314 68h94l-162 -832h-211l123 627l-147 -29zM1038 254l609 580h161l-98 -498h115l-35 -174h-113l-30 -162h-203l29 162h-416zM1346 336h161l39 186z" />
<glyph unicode="&#xbd;" horiz-adv-x="1945" d="M289 0l1267 1436h254l-1267 -1436h-254zM397 1376l314 68h94l-162 -832h-211l123 627l-147 -29zM1143 0l16 90q44 60 118.5 113t144.5 89.5t135 74t105 83.5t40 101q0 50 -32 79t-79 29q-48 0 -98.5 -36t-62.5 -107h-187q29 151 137 243.5t252 92.5q116 0 193.5 -73 t77.5 -185q0 -61 -22 -117t-53 -96t-80.5 -81t-86.5 -65t-90 -55h262l-33 -180h-657z" />
<glyph unicode="&#xbe;" horiz-adv-x="1871" d="M197 662l108 161q100 -45 240 -45q55 0 98 30.5t43 80.5q0 32 -32.5 58t-110.5 26h-78l-21 88l203 203h-293q29 143 35 178h594l-16 -94l-246 -248q174 -54 174 -180q0 -62 -23.5 -115t-62.5 -89.5t-89.5 -63t-104.5 -39t-109 -13.5q-57 0 -84 2q-116 8 -225 60zM301 0 l1268 1436h254l-1268 -1436h-254zM1051 254l608 580h162l-99 -498h115l-35 -174h-112l-31 -162h-203l29 162h-416zM1358 336h162l39 186z" />
<glyph unicode="&#xbf;" horiz-adv-x="1105" d="M125 360q0 214 154.5 344.5t386.5 135.5l34 135h250l-35 -268l-45 -82h-120q-64 0 -130 -22t-116.5 -71.5t-50.5 -113.5q0 -59 48 -95t117 -36q215 0 406 75l63 -280q-135 -61 -244.5 -81.5t-271.5 -20.5q-210 0 -328 100t-118 280zM688 1249q6 92 67 152.5t144 60.5 q77 0 128.5 -53.5t51.5 -132.5q0 -90 -62.5 -150.5t-144.5 -60.5q-78 0 -131 53t-53 131z" />
<glyph unicode="&#xc0;" horiz-adv-x="1609" d="M16 0l981 1444h174l422 -1444h-381l-67 254h-586l-162 -254h-381zM647 1874l385 31l152 -373h-211zM748 553h329l-96 360z" />
<glyph unicode="&#xc1;" horiz-adv-x="1609" d="M16 0l981 1444h174l422 -1444h-381l-67 254h-586l-162 -254h-381zM748 553h329l-96 360zM983 1532l229 373l379 -31l-397 -342h-211z" />
<glyph unicode="&#xc2;" horiz-adv-x="1609" d="M16 0l981 1444h174l422 -1444h-381l-67 254h-586l-162 -254h-381zM692 1532l367 332h213l239 -332h-233l-145 170l-211 -170h-230zM748 553h329l-96 360z" />
<glyph unicode="&#xc3;" horiz-adv-x="1609" d="M16 0l981 1444h174l422 -1444h-381l-67 254h-586l-162 -254h-381zM672 1520q34 160 122 252t195 92q54 0 115 -20t112 -40t80 -20q80 0 148 119l153 -21q-33 -153 -122.5 -248.5t-192.5 -95.5q-53 0 -114.5 20.5t-113 41t-79.5 20.5q-79 0 -148 -117zM748 553h329 l-96 360z" />
<glyph unicode="&#xc4;" horiz-adv-x="1609" d="M16 0l981 1444h174l422 -1444h-381l-67 254h-586l-162 -254h-381zM739 1655q0 77 54.5 129.5t124.5 52.5q62 0 101.5 -39.5t39.5 -101.5q0 -77 -54 -130t-122 -53q-63 0 -103.5 40t-40.5 102zM748 553h329l-96 360zM1167 1659q0 76 54.5 127t124.5 51q62 0 102.5 -40 t40.5 -101q0 -77 -54.5 -130t-123.5 -53q-61 0 -102.5 42t-41.5 104z" />
<glyph unicode="&#xc5;" horiz-adv-x="1609" d="M16 0l928 1366q-50 29 -78 81.5t-28 115.5q0 111 77.5 185.5t180.5 74.5q96 0 161.5 -66t65.5 -162q0 -73 -36 -132.5t-95 -94.5l401 -1368h-381l-67 254h-586l-162 -254h-381zM748 553h329l-96 360zM958 1561q0 -40 29.5 -70.5t71.5 -30.5q54 0 93.5 37.5t39.5 95.5 q0 40 -30 70.5t-70 30.5q-54 0 -94 -37.5t-40 -95.5z" />
<glyph unicode="&#xc6;" horiz-adv-x="2156" d="M-4 0l993 1444h1327l-61 -307h-748l-57 -287h621l-56 -299h-622l-50 -244h793l-57 -307h-1145l49 254h-440l-166 -254h-381zM731 553h309l109 553h-53z" />
<glyph unicode="&#xc7;" horiz-adv-x="1503" d="M215 606q0 173 65 330.5t178.5 275t278 187t353.5 69.5q174 0 320 -75t226 -203l-303 -236q-38 80 -119 128t-176 48q-113 0 -216 -67t-165.5 -177t-62.5 -231q0 -146 88 -241t225 -95q94 0 189.5 48t158.5 127l230 -238q-101 -103 -233 -172t-271 -92l-63 -101 q34 -19 34 -71q0 -91 -94.5 -149t-294.5 -58l-67 2l2 117q48 -2 71 -2q158 4 158 63q0 45 -127 45l164 150q-240 31 -394.5 203t-154.5 415z" />
<glyph unicode="&#xc8;" horiz-adv-x="1357" d="M135 0l281 1444h1102l-62 -307h-747l-58 -287h621l-55 -299h-623l-49 -244h792l-57 -307h-1145zM535 1874l385 31l151 -373h-211z" />
<glyph unicode="&#xc9;" horiz-adv-x="1357" d="M135 0l281 1444h1102l-62 -307h-747l-58 -287h621l-55 -299h-623l-49 -244h792l-57 -307h-1145zM831 1532l230 373l379 -31l-398 -342h-211z" />
<glyph unicode="&#xca;" horiz-adv-x="1357" d="M135 0l281 1444h1102l-62 -307h-747l-58 -287h621l-55 -299h-623l-49 -244h792l-57 -307h-1145zM573 1532l367 332h213l240 -332h-234l-145 170l-211 -170h-230z" />
<glyph unicode="&#xcb;" horiz-adv-x="1357" d="M135 0l281 1444h1102l-62 -307h-747l-58 -287h621l-55 -299h-623l-49 -244h792l-57 -307h-1145zM627 1655q0 77 54 129.5t124 52.5q61 0 101 -39.5t40 -101.5q0 -77 -54 -130t-122 -53q-63 0 -103 40t-40 102zM1055 1659q0 76 54 127t124 51q62 0 102.5 -40t40.5 -101 q0 -77 -54.5 -130t-123.5 -53q-61 0 -102 42t-41 104z" />
<glyph unicode="&#xcc;" horiz-adv-x="647" d="M141 0l281 1444h364l-280 -1444h-365zM184 1901l385 30l152 -372h-211z" />
<glyph unicode="&#xcd;" horiz-adv-x="647" d="M141 0l281 1444h364l-280 -1444h-365zM512 1559l229 372l379 -30l-397 -342h-211z" />
<glyph unicode="&#xce;" horiz-adv-x="647" d="M141 0l281 1444h364l-280 -1444h-365zM223 1559l367 331h213l239 -331h-233l-145 170l-211 -170h-230z" />
<glyph unicode="&#xcf;" horiz-adv-x="647" d="M141 0l281 1444h364l-280 -1444h-365zM276 1681q0 77 54.5 130t124.5 53q61 0 101 -40t40 -102q0 -77 -53.5 -129.5t-122.5 -52.5q-63 0 -103.5 39.5t-40.5 101.5zM705 1686q0 76 54 127t124 51q62 0 102.5 -40.5t40.5 -101.5q0 -77 -54.5 -129.5t-123.5 -52.5 q-61 0 -102 42t-41 104z" />
<glyph unicode="&#xd0;" horiz-adv-x="1705" d="M223 573l56 295h170l114 576h613q174 0 311.5 -74t213 -203t75.5 -290q0 -186 -68.5 -350.5t-182.5 -279t-266.5 -181t-316.5 -66.5h-659l110 573h-170zM696 328h277q90 0 172.5 44t140 114t91.5 157t34 172q0 131 -83 216t-216 85h-260l-49 -248h270l-55 -295h-273z" />
<glyph unicode="&#xd1;" horiz-adv-x="1603" d="M135 0l281 1444h172l641 -791l157 791h365l-281 -1444h-174l-643 791l-155 -791h-363zM659 1520q34 160 122.5 252t195.5 92q54 0 115 -20t112 -40t80 -20q80 0 148 119l153 -21q-33 -153 -122.5 -248.5t-192.5 -95.5q-53 0 -114.5 20.5t-113 41t-79.5 20.5 q-79 0 -148 -117z" />
<glyph unicode="&#xd2;" horiz-adv-x="1708" d="M207 616q0 168 64.5 322.5t177 270t276.5 184.5t352 69q195 0 352.5 -86t245.5 -234.5t88 -330.5q0 -188 -70.5 -345.5t-190 -262.5t-276.5 -163t-331 -58q-194 0 -352 83.5t-247 228.5t-89 322zM584 653q0 -145 99 -241.5t251 -96.5q117 0 222 61t170 167t65 229 q0 150 -100 252t-253 102q-119 0 -224.5 -67t-167.5 -176.5t-62 -229.5zM700 1874l385 31l152 -373h-211z" />
<glyph unicode="&#xd3;" horiz-adv-x="1708" d="M207 616q0 168 64.5 322.5t177 270t276.5 184.5t352 69q195 0 352.5 -86t245.5 -234.5t88 -330.5q0 -188 -70.5 -345.5t-190 -262.5t-276.5 -163t-331 -58q-194 0 -352 83.5t-247 228.5t-89 322zM584 653q0 -145 99 -241.5t251 -96.5q117 0 222 61t170 167t65 229 q0 150 -100 252t-253 102q-119 0 -224.5 -67t-167.5 -176.5t-62 -229.5zM965 1532l229 373l379 -31l-397 -342h-211z" />
<glyph unicode="&#xd4;" horiz-adv-x="1708" d="M207 616q0 168 64.5 322.5t177 270t276.5 184.5t352 69q195 0 352.5 -86t245.5 -234.5t88 -330.5q0 -188 -70.5 -345.5t-190 -262.5t-276.5 -163t-331 -58q-194 0 -352 83.5t-247 228.5t-89 322zM584 653q0 -145 99 -241.5t251 -96.5q117 0 222 61t170 167t65 229 q0 150 -100 252t-253 102q-119 0 -224.5 -67t-167.5 -176.5t-62 -229.5zM739 1532l367 332h213l240 -332h-234l-145 170l-211 -170h-230z" />
<glyph unicode="&#xd5;" horiz-adv-x="1708" d="M207 616q0 168 64.5 322.5t177 270t276.5 184.5t352 69q195 0 352.5 -86t245.5 -234.5t88 -330.5q0 -188 -70.5 -345.5t-190 -262.5t-276.5 -163t-331 -58q-194 0 -352 83.5t-247 228.5t-89 322zM584 653q0 -145 99 -241.5t251 -96.5q117 0 222 61t170 167t65 229 q0 150 -100 252t-253 102q-119 0 -224.5 -67t-167.5 -176.5t-62 -229.5zM719 1520q34 160 122 252t195 92q54 0 115 -20t112 -40t80 -20q80 0 148 119l154 -21q-33 -153 -123 -248.5t-193 -95.5q-53 0 -114.5 20.5t-113 41t-79.5 20.5q-79 0 -148 -117z" />
<glyph unicode="&#xd6;" horiz-adv-x="1708" d="M207 616q0 168 64.5 322.5t177 270t276.5 184.5t352 69q195 0 352.5 -86t245.5 -234.5t88 -330.5q0 -188 -70.5 -345.5t-190 -262.5t-276.5 -163t-331 -58q-194 0 -352 83.5t-247 228.5t-89 322zM584 653q0 -145 99 -241.5t251 -96.5q117 0 222 61t170 167t65 229 q0 150 -100 252t-253 102q-119 0 -224.5 -67t-167.5 -176.5t-62 -229.5zM793 1655q0 77 54 129.5t124 52.5q61 0 101 -39.5t40 -101.5q0 -77 -54 -130t-122 -53q-63 0 -103 40t-40 102zM1221 1659q0 76 54 127t124 51q62 0 102.5 -40t40.5 -101q0 -77 -54.5 -130t-123.5 -53 q-61 0 -102 42t-41 104z" />
<glyph unicode="&#xd7;" horiz-adv-x="1304" d="M170 309l405 338l-274 338l248 209l272 -336l408 336l164 -209l-406 -338l275 -338l-246 -211l-275 336l-405 -336z" />
<glyph unicode="&#xd8;" horiz-adv-x="1703" d="M82 0l252 238q-127 168 -127 378q0 168 64.5 322.5t177 270t276.5 184.5t352 69q240 0 418 -129l121 111h297l-271 -256q121 -166 121 -377q0 -188 -70.5 -345.5t-190 -262.5t-276.5 -163t-331 -58q-233 0 -410 116l-104 -98h-299zM584 653q0 -84 32 -141l613 561 q-85 53 -191 53q-119 0 -224.5 -67t-167.5 -176.5t-62 -229.5zM756 358q73 -43 178 -43q117 0 222 61t170 167t65 229q0 79 -33 141z" />
<glyph unicode="&#xd9;" horiz-adv-x="1552" d="M223 487q0 49 8 93l166 864h353q-160 -856 -160 -924q0 -112 61 -161.5t180 -49.5q155 0 248.5 87t130.5 280l150 768h352l-168 -864q-26 -131 -80 -234t-125.5 -170.5t-163.5 -112t-189 -63t-206 -18.5q-256 0 -406.5 135t-150.5 370zM627 1874l385 31l151 -373h-211z " />
<glyph unicode="&#xda;" horiz-adv-x="1552" d="M223 487q0 49 8 93l166 864h353q-160 -856 -160 -924q0 -112 61 -161.5t180 -49.5q155 0 248.5 87t130.5 280l150 768h352l-168 -864q-26 -131 -80 -234t-125.5 -170.5t-163.5 -112t-189 -63t-206 -18.5q-256 0 -406.5 135t-150.5 370zM918 1532l229 373l379 -31 l-398 -342h-210z" />
<glyph unicode="&#xdb;" horiz-adv-x="1552" d="M223 487q0 49 8 93l166 864h353q-160 -856 -160 -924q0 -112 61 -161.5t180 -49.5q155 0 248.5 87t130.5 280l150 768h352l-168 -864q-26 -131 -80 -234t-125.5 -170.5t-163.5 -112t-189 -63t-206 -18.5q-256 0 -406.5 135t-150.5 370zM666 1532l366 332h213l240 -332 h-234l-145 170l-211 -170h-229z" />
<glyph unicode="&#xdc;" horiz-adv-x="1552" d="M223 487q0 49 8 93l166 864h353q-160 -856 -160 -924q0 -112 61 -161.5t180 -49.5q155 0 248.5 87t130.5 280l150 768h352l-168 -864q-26 -131 -80 -234t-125.5 -170.5t-163.5 -112t-189 -63t-206 -18.5q-256 0 -406.5 135t-150.5 370zM719 1655q0 77 54 129.5t124 52.5 q61 0 101 -39.5t40 -101.5q0 -77 -54 -130t-122 -53q-63 0 -103 40t-40 102zM1147 1659q0 76 54 127t124 51q62 0 102.5 -40t40.5 -101q0 -77 -54.5 -130t-123.5 -53q-61 0 -102 42t-41 104z" />
<glyph unicode="&#xdd;" horiz-adv-x="1464" d="M283 1444h413l205 -567l428 567h414l-733 -957l-97 -487h-364l96 487zM891 1532l229 373l379 -31l-397 -342h-211z" />
<glyph unicode="&#xde;" horiz-adv-x="1372" d="M135 0l281 1444h362l-37 -178h148q293 0 442.5 -90t149.5 -302q0 -156 -58.5 -287.5t-158 -219t-231.5 -136.5t-279 -49h-222l-34 -182h-363zM588 479h213q132 0 221.5 91.5t89.5 217.5q0 179 -209 179h-217z" />
<glyph unicode="&#xdf;" horiz-adv-x="1376" d="M41 -356l270 1384q32 163 130 287t232.5 187t284.5 63q203 0 322 -90.5t119 -253.5q0 -114 -50 -209.5t-139 -159.5q96 -41 147.5 -110.5t51.5 -157.5q0 -114 -39.5 -213t-105.5 -169t-151.5 -120.5t-177.5 -75t-183 -24.5q-64 0 -93 6l58 295q20 -4 33 -4 q133 3 220 81.5t87 190.5q0 139 -240 139l51 264q83 0 140 67t57 144q0 51 -43.5 82t-116.5 31q-95 0 -155 -55.5t-72 -124.5l-283 -1454h-354z" />
<glyph unicode="&#xe0;" d="M166 401q0 115 31 224t90.5 201.5t141.5 162t190.5 109t230.5 39.5q139 0 272 -76l11 53h352l-215 -1114h-352l12 66q-155 -84 -305 -84q-201 0 -330 114t-129 305zM481 1585l385 31l152 -373h-211zM520 483q0 -90 60 -140t168 -50q129 0 239 76l74 379q-78 75 -207 75 q-94 0 -172 -49.5t-120 -127.5t-42 -163z" />
<glyph unicode="&#xe1;" d="M166 401q0 115 31 224t90.5 201.5t141.5 162t190.5 109t230.5 39.5q139 0 272 -76l11 53h352l-215 -1114h-352l12 66q-155 -84 -305 -84q-201 0 -330 114t-129 305zM520 483q0 -90 60 -140t168 -50q129 0 239 76l74 379q-78 75 -207 75q-94 0 -172 -49.5t-120 -127.5 t-42 -163zM743 1243l230 373l379 -31l-398 -342h-211z" />
<glyph unicode="&#xe2;" d="M166 401q0 115 31 224t90.5 201.5t141.5 162t190.5 109t230.5 39.5q139 0 272 -76l11 53h352l-215 -1114h-352l12 66q-155 -84 -305 -84q-201 0 -330 114t-129 305zM520 483q0 -90 60 -140t168 -50q129 0 239 76l74 379q-78 75 -207 75q-94 0 -172 -49.5t-120 -127.5 t-42 -163zM520 1243l367 332h213l239 -332h-233l-145 170l-211 -170h-230z" />
<glyph unicode="&#xe3;" d="M166 401q0 115 31 224t90.5 201.5t141.5 162t190.5 109t230.5 39.5q139 0 272 -76l11 53h352l-215 -1114h-352l12 66q-155 -84 -305 -84q-201 0 -330 114t-129 305zM500 1231q34 160 122 252t195 92q54 0 115 -20t112 -40t80 -20q80 0 148 119l153 -21 q-33 -153 -122.5 -248.5t-192.5 -95.5q-53 0 -114.5 20.5t-113 41t-79.5 20.5q-79 0 -148 -117zM520 483q0 -90 60 -140t168 -50q129 0 239 76l74 379q-78 75 -207 75q-94 0 -172 -49.5t-120 -127.5t-42 -163z" />
<glyph unicode="&#xe4;" d="M166 401q0 115 31 224t90.5 201.5t141.5 162t190.5 109t230.5 39.5q139 0 272 -76l11 53h352l-215 -1114h-352l12 66q-155 -84 -305 -84q-201 0 -330 114t-129 305zM520 483q0 -90 60 -140t168 -50q129 0 239 76l74 379q-78 75 -207 75q-94 0 -172 -49.5t-120 -127.5 t-42 -163zM573 1366q0 77 54.5 129.5t124.5 52.5q62 0 101.5 -40t39.5 -101q0 -77 -53.5 -129.5t-122.5 -52.5q-63 0 -103.5 39.5t-40.5 101.5zM1001 1370q0 76 54.5 127t124.5 51q62 0 102.5 -40t40.5 -101q0 -77 -54.5 -129.5t-123.5 -52.5q-61 0 -102.5 41.5t-41.5 103.5 z" />
<glyph unicode="&#xe5;" d="M166 401q0 115 31 224t90.5 201.5t141.5 162t190.5 109t230.5 39.5q139 0 272 -76l11 53h352l-215 -1114h-352l12 66q-155 -84 -305 -84q-201 0 -330 114t-129 305zM520 483q0 -90 60 -140t168 -50q129 0 239 76l74 379q-78 75 -207 75q-94 0 -172 -49.5t-120 -127.5 t-42 -163zM705 1462q0 111 77.5 185.5t180.5 74.5q96 0 161.5 -65.5t65.5 -161.5q0 -112 -78.5 -187t-181.5 -75q-96 0 -160.5 66.5t-64.5 162.5zM825 1460q0 -40 29.5 -70t71.5 -30q54 0 93.5 37.5t39.5 95.5q0 40 -30.5 70t-70.5 30q-54 0 -93.5 -37.5t-39.5 -95.5z" />
<glyph unicode="&#xe6;" horiz-adv-x="2232" d="M168 412q0 187 91 353.5t249 268t342 101.5q147 0 276 -74l9 53h354l-16 -78q166 99 362 99q213 0 329.5 -126t116.5 -323q0 -72 -34 -227h-762q6 -89 61.5 -143t155.5 -54q67 0 144 37.5t132 99.5l187 -182q-53 -59 -102 -98.5t-114 -72.5t-147.5 -48.5t-187.5 -15.5 q-197 0 -326 104l-14 -86h-352l10 66q-158 -84 -322 -84q-197 0 -319.5 117t-122.5 313zM522 481q0 -92 62 -139t178 -47q120 0 229 74l74 379q-81 75 -207 75q-140 0 -238 -105t-98 -237zM1524 664h430q4 28 4 38q0 71 -49 114.5t-125 43.5q-82 0 -152 -55.5t-108 -140.5z " />
<glyph unicode="&#xe7;" horiz-adv-x="1169" d="M162 426q0 144 44 264t116.5 200.5t168.5 137t198 82t206 25.5q134 0 238 -61.5t161 -168.5l-264 -209q-25 59 -75.5 93t-118.5 34q-132 0 -228 -99.5t-96 -234.5q0 -85 61 -140.5t156 -55.5q69 0 134.5 34t109.5 93l182 -205q-143 -161 -342 -215l-70 -109 q35 -20 35 -71q0 -91 -94.5 -149t-294.5 -58l-67 2l2 117q48 -2 71 -2q158 4 158 63q0 45 -127 45l162 148q-188 22 -307 145.5t-119 294.5z" />
<glyph unicode="&#xe8;" horiz-adv-x="1245" d="M162 412q0 143 48.5 273.5t136.5 230.5t220 159.5t289 59.5q143 0 246 -60.5t152 -160.5t49 -228q0 -68 -35 -227h-762q6 -89 61.5 -143t155.5 -54q67 0 144 37.5t132 99.5l187 -182q-53 -59 -102 -98.5t-114 -72.5t-147.5 -48.5t-187.5 -15.5q-214 0 -343.5 121 t-129.5 309zM432 1585l385 31l152 -373h-211zM545 664h430q4 28 4 38q0 71 -49 114.5t-125 43.5q-82 0 -152 -55.5t-108 -140.5z" />
<glyph unicode="&#xe9;" horiz-adv-x="1245" d="M162 412q0 143 48.5 273.5t136.5 230.5t220 159.5t289 59.5q143 0 246 -60.5t152 -160.5t49 -228q0 -68 -35 -227h-762q6 -89 61.5 -143t155.5 -54q67 0 144 37.5t132 99.5l187 -182q-53 -59 -102 -98.5t-114 -72.5t-147.5 -48.5t-187.5 -15.5q-214 0 -343.5 121 t-129.5 309zM545 664h430q4 28 4 38q0 71 -49 114.5t-125 43.5q-82 0 -152 -55.5t-108 -140.5zM750 1243l229 373l379 -31l-397 -342h-211z" />
<glyph unicode="&#xea;" horiz-adv-x="1245" d="M162 412q0 143 48.5 273.5t136.5 230.5t220 159.5t289 59.5q143 0 246 -60.5t152 -160.5t49 -228q0 -68 -35 -227h-762q6 -89 61.5 -143t155.5 -54q67 0 144 37.5t132 99.5l187 -182q-53 -59 -102 -98.5t-114 -72.5t-147.5 -48.5t-187.5 -15.5q-214 0 -343.5 121 t-129.5 309zM469 1243l367 332h213l239 -332h-233l-146 170l-211 -170h-229zM545 664h430q4 28 4 38q0 71 -49 114.5t-125 43.5q-82 0 -152 -55.5t-108 -140.5z" />
<glyph unicode="&#xeb;" horiz-adv-x="1245" d="M162 412q0 143 48.5 273.5t136.5 230.5t220 159.5t289 59.5q143 0 246 -60.5t152 -160.5t49 -228q0 -68 -35 -227h-762q6 -89 61.5 -143t155.5 -54q67 0 144 37.5t132 99.5l187 -182q-53 -59 -102 -98.5t-114 -72.5t-147.5 -48.5t-187.5 -15.5q-214 0 -343.5 121 t-129.5 309zM522 1366q0 77 54 129.5t124 52.5q62 0 102 -40t40 -101q0 -77 -53.5 -129.5t-122.5 -52.5q-63 0 -103.5 39.5t-40.5 101.5zM545 664h430q4 28 4 38q0 71 -49 114.5t-125 43.5q-82 0 -152 -55.5t-108 -140.5zM950 1370q0 76 54 127t124 51q62 0 103 -40t41 -101 q0 -77 -54.5 -129.5t-123.5 -52.5q-61 0 -102.5 41.5t-41.5 103.5z" />
<glyph unicode="&#xec;" horiz-adv-x="595" d="M90 1565l385 30l152 -372h-211zM121 0l213 1114h354l-215 -1114h-352z" />
<glyph unicode="&#xed;" horiz-adv-x="595" d="M121 0l213 1114h354l-215 -1114h-352zM418 1223l229 372l379 -30l-397 -342h-211z" />
<glyph unicode="&#xee;" horiz-adv-x="595" d="M121 0l213 1114h354l-215 -1114h-352zM129 1223l367 331h213l239 -331h-233l-146 170l-211 -170h-229z" />
<glyph unicode="&#xef;" horiz-adv-x="595" d="M121 0l213 1114h354l-215 -1114h-352zM182 1346q0 77 54 129.5t124 52.5q62 0 102 -40t40 -102q0 -77 -53.5 -129.5t-122.5 -52.5q-63 0 -103.5 40t-40.5 102zM610 1350q0 76 54 127t124 51q62 0 103 -40.5t41 -101.5q0 -77 -54.5 -129.5t-123.5 -52.5q-61 0 -102.5 42 t-41.5 104z" />
<glyph unicode="&#xf0;" horiz-adv-x="1327" d="M131 420q0 121 50 228t140 186.5t223.5 125.5t291.5 46q52 0 88 -5q-45 80 -86 140l-316 -101l-88 172l309 103q-26 44 -73.5 123.5t-63.5 105.5h381l78 -125l248 80l84 -172l-234 -76q102 -164 156.5 -298t54.5 -269q0 -141 -61.5 -271.5t-162 -224.5t-233.5 -150 t-272 -56q-224 0 -369 125t-145 313zM481 469q0 -83 61.5 -139t157.5 -56q82 0 157 45.5t119 116t44 142.5q0 85 -61.5 140.5t-157.5 55.5q-128 0 -224 -95t-96 -210z" />
<glyph unicode="&#xf1;" horiz-adv-x="1300" d="M113 0l215 1114h352l-10 -49q134 70 268 70q208 0 303.5 -77t95.5 -247q0 -80 -22 -199l-119 -612h-354l119 612q10 52 10 80q0 131 -156 131q-114 0 -203 -67l-147 -756h-352zM451 1210q34 160 122 252t195 92q54 0 115 -20t112 -39.5t80 -19.5q80 0 148 118l153 -20 q-33 -153 -122.5 -248.5t-192.5 -95.5q-53 0 -114.5 20.5t-113 41t-79.5 20.5q-79 0 -148 -117z" />
<glyph unicode="&#xf2;" horiz-adv-x="1349" d="M160 455q0 141 49.5 265.5t140 217t227 146t300.5 53.5q222 0 373 -139t151 -336q0 -135 -40.5 -248.5t-109 -192t-160.5 -133.5t-195 -80.5t-212 -25.5q-222 0 -373 138t-151 335zM463 1565l385 30l151 -372h-211zM514 506q0 -90 59 -151.5t156 -61.5q133 0 228.5 89 t95.5 222q0 97 -61 158t-158 61q-132 0 -226 -97.5t-94 -219.5z" />
<glyph unicode="&#xf3;" horiz-adv-x="1349" d="M160 455q0 141 49.5 265.5t140 217t227 146t300.5 53.5q222 0 373 -139t151 -336q0 -135 -40.5 -248.5t-109 -192t-160.5 -133.5t-195 -80.5t-212 -25.5q-222 0 -373 138t-151 335zM514 506q0 -90 59 -151.5t156 -61.5q133 0 228.5 89t95.5 222q0 97 -61 158t-158 61 q-132 0 -226 -97.5t-94 -219.5zM776 1223l230 372l378 -30l-397 -342h-211z" />
<glyph unicode="&#xf4;" horiz-adv-x="1349" d="M160 455q0 141 49.5 265.5t140 217t227 146t300.5 53.5q222 0 373 -139t151 -336q0 -135 -40.5 -248.5t-109 -192t-160.5 -133.5t-195 -80.5t-212 -25.5q-222 0 -373 138t-151 335zM500 1223l366 331h213l240 -331h-234l-145 170l-211 -170h-229zM514 506 q0 -90 59 -151.5t156 -61.5q133 0 228.5 89t95.5 222q0 97 -61 158t-158 61q-132 0 -226 -97.5t-94 -219.5z" />
<glyph unicode="&#xf5;" horiz-adv-x="1349" d="M160 455q0 141 49.5 265.5t140 217t227 146t300.5 53.5q222 0 373 -139t151 -336q0 -135 -40.5 -248.5t-109 -192t-160.5 -133.5t-195 -80.5t-212 -25.5q-222 0 -373 138t-151 335zM479 1210q34 160 122.5 252t195.5 92q54 0 115 -20t112 -39.5t80 -19.5q79 0 147 118 l154 -20q-33 -153 -122.5 -248.5t-192.5 -95.5q-53 0 -115 20.5t-113.5 41t-79.5 20.5q-78 0 -147 -117zM514 506q0 -90 59 -151.5t156 -61.5q133 0 228.5 89t95.5 222q0 97 -61 158t-158 61q-132 0 -226 -97.5t-94 -219.5z" />
<glyph unicode="&#xf6;" horiz-adv-x="1349" d="M160 455q0 141 49.5 265.5t140 217t227 146t300.5 53.5q222 0 373 -139t151 -336q0 -135 -40.5 -248.5t-109 -192t-160.5 -133.5t-195 -80.5t-212 -25.5q-222 0 -373 138t-151 335zM514 506q0 -90 59 -151.5t156 -61.5q133 0 228.5 89t95.5 222q0 97 -61 158t-158 61 q-132 0 -226 -97.5t-94 -219.5zM553 1346q0 77 54 129.5t124 52.5q61 0 101 -40t40 -102q0 -77 -53.5 -129.5t-122.5 -52.5q-63 0 -103 40t-40 102zM981 1350q0 76 54 127t124 51q62 0 103 -40.5t41 -101.5q0 -77 -55 -129.5t-124 -52.5q-61 0 -102 42t-41 104z" />
<glyph unicode="&#xf7;" horiz-adv-x="1077" d="M186 535l60 299h913l-59 -299h-914zM389 193q0 82 57 136t132 54q69 0 116 -48.5t47 -117.5q0 -82 -56.5 -137t-131.5 -55q-69 0 -116.5 49.5t-47.5 118.5zM571 1145q0 82 57 136t132 54q69 0 116.5 -47.5t47.5 -116.5q0 -83 -57 -138.5t-132 -55.5q-70 0 -117 49 t-47 119z" />
<glyph unicode="&#xf8;" horiz-adv-x="1351" d="M57 0l197 182q-94 124 -94 273q0 141 49.5 265.5t140 217t227 146t300.5 53.5q175 0 313 -95l82 76h250l-209 -194q88 -122 88 -262q0 -135 -40.5 -248.5t-109 -192t-160.5 -133.5t-195 -80.5t-212 -25.5q-169 0 -305 84l-72 -66h-250zM510 498q0 -36 16 -60l408 365 q-48 20 -100 20q-89 0 -164.5 -48.5t-117.5 -123t-42 -153.5zM639 309q36 -16 90 -16q130 0 225 87t95 216q0 33 -13 70z" />
<glyph unicode="&#xf9;" horiz-adv-x="1302" d="M168 305q0 42 66.5 392t84.5 417h353q-10 -44 -70.5 -364.5t-60.5 -337.5q0 -61 38.5 -90t120.5 -29q87 0 205 86l146 735h354l-215 -1114h-354l10 51q-61 -33 -137 -51t-142 -18q-199 0 -299 82t-100 241zM440 1565l385 30l152 -372h-211z" />
<glyph unicode="&#xfa;" horiz-adv-x="1302" d="M168 305q0 42 66.5 392t84.5 417h353q-10 -44 -70.5 -364.5t-60.5 -337.5q0 -61 38.5 -90t120.5 -29q87 0 205 86l146 735h354l-215 -1114h-354l10 51q-61 -33 -137 -51t-142 -18q-199 0 -299 82t-100 241zM774 1223l230 372l378 -30l-397 -342h-211z" />
<glyph unicode="&#xfb;" horiz-adv-x="1302" d="M168 305q0 42 66.5 392t84.5 417h353q-10 -44 -70.5 -364.5t-60.5 -337.5q0 -61 38.5 -90t120.5 -29q87 0 205 86l146 735h354l-215 -1114h-354l10 51q-61 -33 -137 -51t-142 -18q-199 0 -299 82t-100 241zM475 1223l367 331h213l239 -331h-233l-146 170l-210 -170h-230z " />
<glyph unicode="&#xfc;" horiz-adv-x="1302" d="M168 305q0 42 66.5 392t84.5 417h353q-10 -44 -70.5 -364.5t-60.5 -337.5q0 -61 38.5 -90t120.5 -29q87 0 205 86l146 735h354l-215 -1114h-354l10 51q-61 -33 -137 -51t-142 -18q-199 0 -299 82t-100 241zM528 1346q0 77 54.5 129.5t124.5 52.5q61 0 101 -40t40 -102 q0 -77 -53.5 -129.5t-122.5 -52.5q-63 0 -103.5 40t-40.5 102zM956 1350q0 76 54.5 127t124.5 51q62 0 102.5 -40.5t40.5 -101.5q0 -77 -54.5 -129.5t-123.5 -52.5q-61 0 -102.5 42t-41.5 104z" />
<glyph unicode="&#xfd;" horiz-adv-x="1296" d="M33 -313l114 254q78 -23 112.5 -32.5t105.5 -21.5t135 -12q132 0 211.5 44.5t126.5 129.5q-128 -67 -267 -67q-208 0 -307.5 83t-99.5 250q0 41 118 640q20 102 31 159h353q-6 -45 -70 -356t-64 -357q0 -63 35 -85.5t127 -22.5q91 0 205 86l148 735h352l-164 -850 q-14 -71 -23 -111.5t-27 -105t-35.5 -102.5t-47.5 -90t-64.5 -82.5t-84.5 -65.5t-109.5 -53t-138 -30.5t-170.5 -12.5q-42 0 -78.5 1t-64 1.5t-59 4.5t-47 4.5t-45.5 7t-38 7.5t-41 10.5t-37.5 11t-45 14t-46.5 14.5zM745 1223l230 372l379 -30l-398 -342h-211z" />
<glyph unicode="&#xfe;" horiz-adv-x="1382" d="M41 -358l371 1902h352l-92 -477q152 68 301 68q202 0 330.5 -111.5t128.5 -304.5q0 -142 -52 -276.5t-141.5 -236t-217.5 -163t-271 -61.5q-149 0 -277 67l-80 -407h-352zM537 369q76 -76 206 -76q137 0 235.5 97t98.5 226q0 94 -59 150.5t-168 56.5q-131 0 -240 -75z " />
<glyph unicode="&#xff;" horiz-adv-x="1296" d="M33 -313l114 254q78 -23 112.5 -32.5t105.5 -21.5t135 -12q132 0 211.5 44.5t126.5 129.5q-128 -67 -267 -67q-208 0 -307.5 83t-99.5 250q0 41 118 640q20 102 31 159h353q-6 -45 -70 -356t-64 -357q0 -63 35 -85.5t127 -22.5q91 0 205 86l148 735h352l-164 -850 q-14 -71 -23 -111.5t-27 -105t-35.5 -102.5t-47.5 -90t-64.5 -82.5t-84.5 -65.5t-109.5 -53t-138 -30.5t-170.5 -12.5q-42 0 -78.5 1t-64 1.5t-59 4.5t-47 4.5t-45.5 7t-38 7.5t-41 10.5t-37.5 11t-45 14t-46.5 14.5zM520 1346q0 77 54 129.5t124 52.5q62 0 102 -40t40 -102 q0 -77 -53.5 -129.5t-122.5 -52.5q-63 0 -103.5 40t-40.5 102zM948 1350q0 76 54 127t124 51q62 0 103 -40.5t41 -101.5q0 -77 -54.5 -129.5t-123.5 -52.5q-61 0 -102.5 42t-41.5 104z" />
<glyph unicode="&#x152;" horiz-adv-x="2183" d="M207 567q0 132 38 259.5t114.5 239t181 196t248 133.5t305.5 49h1249l-59 -307h-750l-57 -287h622l-57 -299h-621l-49 -244h791l-58 -307h-1306q-123 0 -233 45t-188.5 121.5t-124.5 181t-46 219.5zM575 627q0 -109 48.5 -179.5t128 -99.5t190.5 -29h80l158 805h-56 q-84 0 -164.5 -21.5t-150 -64t-122 -101.5t-82.5 -139t-30 -171z" />
<glyph unicode="&#x153;" horiz-adv-x="2109" d="M158 455q0 141 49.5 265t140 216.5t227.5 146.5t302 54q116 0 218.5 -44.5t172.5 -119.5q186 162 450 162q143 0 246 -60.5t152 -160.5t49 -228q0 -68 -35 -227h-762q6 -89 61.5 -143t155.5 -54q67 0 145 37.5t132 99.5l186 -182q-53 -59 -102 -98.5t-114 -72.5 t-147.5 -48.5t-187.5 -15.5q-229 0 -364 141q-90 -69 -207.5 -105t-241.5 -36q-147 0 -268.5 64t-189.5 172t-68 237zM502 506q0 -90 58 -151.5t155 -61.5q134 0 228.5 89.5t94.5 221.5q0 97 -61 158t-156 61q-134 0 -226.5 -97t-92.5 -220zM1407 664h430q4 28 4 38 q0 71 -49 114.5t-125 43.5q-82 0 -152 -55.5t-108 -140.5z" />
<glyph unicode="&#x178;" horiz-adv-x="1464" d="M283 1444h413l205 -567l428 567h414l-733 -957l-97 -487h-364l96 487zM676 1655q0 77 54 129.5t124 52.5q62 0 101.5 -39.5t39.5 -101.5q0 -77 -54 -130t-122 -53q-63 0 -103 40t-40 102zM1104 1659q0 76 54 127t124 51q62 0 102.5 -40t40.5 -101q0 -77 -54.5 -130 t-123.5 -53q-61 0 -102 42t-41 104z" />
<glyph unicode="&#x2c6;" horiz-adv-x="1024" d="M397 1532l367 332h213l240 -332h-234l-145 170l-211 -170h-230z" />
<glyph unicode="&#x2dc;" horiz-adv-x="1024" d="M373 1520q34 160 122 252t195 92q54 0 115 -20t112 -40t80 -20q80 0 148 119l153 -21q-33 -153 -122.5 -248.5t-192.5 -95.5q-53 0 -114.5 20.5t-113 41t-79.5 20.5q-79 0 -148 -117z" />
<glyph unicode="&#x2000;" horiz-adv-x="965" />
<glyph unicode="&#x2001;" horiz-adv-x="1931" />
<glyph unicode="&#x2002;" horiz-adv-x="965" />
<glyph unicode="&#x2003;" horiz-adv-x="1931" />
<glyph unicode="&#x2004;" horiz-adv-x="643" />
<glyph unicode="&#x2005;" horiz-adv-x="482" />
<glyph unicode="&#x2006;" horiz-adv-x="321" />
<glyph unicode="&#x2007;" horiz-adv-x="321" />
<glyph unicode="&#x2008;" horiz-adv-x="241" />
<glyph unicode="&#x2009;" horiz-adv-x="386" />
<glyph unicode="&#x200a;" horiz-adv-x="107" />
<glyph unicode="&#x2010;" horiz-adv-x="835" d="M186 532l58 299h667l-57 -299h-668z" />
<glyph unicode="&#x2011;" horiz-adv-x="835" d="M186 532l58 299h667l-57 -299h-668z" />
<glyph unicode="&#x2012;" horiz-adv-x="835" d="M186 532l58 299h667l-57 -299h-668z" />
<glyph unicode="&#x2013;" horiz-adv-x="1081" d="M184 532l58 299h913l-57 -299h-914z" />
<glyph unicode="&#x2014;" horiz-adv-x="1839" d="M186 532l58 299h1669l-55 -299h-1672z" />
<glyph unicode="&#x2018;" horiz-adv-x="559" d="M287 993q0 205 125 326.5t315 124.5l21 -137q-93 -1 -140.5 -27t-66.5 -74q52 -12 83 -51.5t31 -95.5q0 -88 -69 -154.5t-152 -66.5q-69 0 -108 39.5t-39 115.5z" />
<glyph unicode="&#x2019;" horiz-adv-x="555" d="M248 977q93 1 140 26.5t67 73.5q-53 12 -84 51.5t-31 96.5q0 88 68 154.5t153 66.5q68 0 108 -39.5t40 -114.5q0 -205 -124.5 -327t-316.5 -125z" />
<glyph unicode="&#x201a;" horiz-adv-x="559" d="M20 -100q93 0 140 25.5t67 74.5q-53 11 -84.5 50.5t-31.5 94.5q0 89 68.5 156.5t152.5 67.5q68 0 107.5 -39.5t39.5 -114.5q0 -206 -123.5 -328t-314.5 -125z" />
<glyph unicode="&#x201c;" horiz-adv-x="1069" d="M285 985q0 66 14.5 127.5t47.5 120t82.5 102.5t125.5 71.5t170 29.5l20 -138q-93 0 -140 -25.5t-66 -74.5q51 -11 82.5 -50.5t31.5 -94.5q0 -88 -67.5 -156t-151.5 -68q-69 0 -109 40.5t-40 115.5zM801 985q0 66 14.5 127.5t47.5 120t82.5 102.5t125.5 71.5t170 29.5 l21 -138q-93 0 -140.5 -25.5t-66.5 -74.5q51 -11 82.5 -50.5t31.5 -94.5q0 -88 -67.5 -156t-151.5 -68q-69 0 -109 40.5t-40 115.5z" />
<glyph unicode="&#x201d;" horiz-adv-x="1067" d="M254 977q93 1 140 26.5t67 73.5q-53 12 -84 51.5t-31 96.5q0 88 68 154.5t151 66.5q68 0 109 -40t41 -114q0 -205 -124.5 -327t-316.5 -125zM770 977q93 1 140 26.5t67 73.5q-53 12 -84 51.5t-31 96.5q0 88 68 154.5t153 66.5q68 0 108 -39.5t40 -114.5 q0 -205 -124.5 -327t-315.5 -125z" />
<glyph unicode="&#x201e;" horiz-adv-x="1036" d="M23 -100q93 0 139.5 25t66.5 75q-52 10 -83 49.5t-31 95.5q0 89 68 156.5t151 67.5q68 0 108.5 -39.5t40.5 -114.5q0 -206 -124.5 -328t-315.5 -125zM539 -100q93 0 139.5 25t66.5 75q-52 10 -83 49.5t-31 95.5q0 89 68 156.5t153 67.5q68 0 107.5 -39.5t39.5 -114.5 q0 -206 -124.5 -328t-315.5 -125z" />
<glyph unicode="&#x2022;" horiz-adv-x="995" d="M342 702q0 130 92.5 218t214.5 88q112 0 188 -77t76 -188q0 -133 -91 -221t-214 -88q-114 0 -190 77t-76 191z" />
<glyph unicode="&#x2026;" horiz-adv-x="1644" d="M111 168q0 90 62 150.5t144 60.5q78 0 131.5 -53.5t53.5 -130.5q0 -91 -63.5 -152t-147.5 -61q-77 0 -128.5 53.5t-51.5 132.5zM659 168q0 90 62.5 150.5t146.5 60.5q76 0 129.5 -53.5t53.5 -130.5q0 -91 -63.5 -152t-145.5 -61q-78 0 -130.5 54t-52.5 132zM1210 168 q0 90 62.5 150.5t146.5 60.5q76 0 129.5 -53.5t53.5 -130.5q0 -91 -63.5 -152t-145.5 -61q-78 0 -130.5 54t-52.5 132z" />
<glyph unicode="&#x202f;" horiz-adv-x="386" />
<glyph unicode="&#x2039;" horiz-adv-x="716" d="M166 545l465 532l192 -170l-344 -362l203 -361l-258 -172z" />
<glyph unicode="&#x203a;" horiz-adv-x="710" d="M96 184l344 361l-202 362l260 170l256 -532l-463 -533z" />
<glyph unicode="&#x205f;" horiz-adv-x="482" />
<glyph unicode="&#x20ac;" horiz-adv-x="1441" d="M162 496l18 166h142q0 8 6 49.5t12 66.5h-143l20 164h164q90 240 281 379t421 139q165 0 295 -70t205 -200l-272 -213q-31 50 -57.5 78.5t-78.5 49.5t-126 21q-79 0 -154 -50t-125 -134h330l-21 -164h-372q-19 -53 -19 -116h375l-19 -166h-329q25 -83 84.5 -132 t138.5 -49q57 0 101.5 10t80.5 32.5t61.5 45t59.5 60.5l219 -213q-106 -129 -253 -198.5t-310 -69.5q-232 0 -388.5 137t-182.5 377h-164z" />
<glyph unicode="&#x2122;" horiz-adv-x="1423" d="M285 1298l24 134h555l-24 -134h-195l-98 -505h-164l98 505h-196zM842 793l123 639h77l195 -334l324 334h77l-122 -639h-164l57 286l-219 -221l-129 221l-57 -286h-162z" />
<glyph unicode="&#x25fc;" horiz-adv-x="1116" d="M0 0v1116h1116v-1116h-1116z" />
</font>
</defs>
</svg>
