<?xml version="1.0" standalone="no"?>
<!DOCTYPE svg PUBLIC "-//W3C//DTD SVG 1.1//EN" "http://www.w3.org/Graphics/SVG/1.1/DTD/svg11.dtd" >
<svg xmlns="http://www.w3.org/2000/svg">
<metadata></metadata>
<defs>
<font id="zona_proregular_italic" horiz-adv-x="1509" >
<font-face units-per-em="2048" ascent="1690" descent="-358" />
<missing-glyph horiz-adv-x="659" />
<glyph unicode="&#xfb01;" horiz-adv-x="1228" d="M-113 -371l27 138q24 -3 55 -3q108 0 173 61t91 195l185 947h-187l27 141h186l11 53q39 203 139.5 297t245.5 94q152 0 229 -28l-27 -129q-47 14 -147 14q-70 0 -118 -18.5t-79.5 -59.5t-49.5 -92t-34 -131h668l-213 -1108h-172l188 967h-497l-197 -1016 q-31 -160 -138 -247t-245 -87q-59 0 -121 12zM1147 1391q0 49 33.5 80.5t79.5 31.5q41 0 70.5 -28t29.5 -68q0 -49 -34.5 -82t-80.5 -33q-42 0 -70 28.5t-28 70.5z" />
<glyph unicode="&#xfb02;" horiz-adv-x="1267" d="M-115 -373l29 137q7 0 25 -1t30 -1q108 0 173 62t91 196l185 947h-187l27 141h186q42 219 167 332.5t366 113.5q180 0 272 -90.5t92 -234.5q0 -39 -16 -121l-215 -1108h-172l207 1067q20 110 20 150q0 91 -58.5 143.5t-156.5 52.5q-152 0 -227.5 -71t-108.5 -234h357 l-27 -141h-356l-197 -1016q-32 -166 -146.5 -249t-262.5 -83q-22 0 -56.5 4t-40.5 4z" />
<glyph unicode="&#xfb03;" horiz-adv-x="2000" d="M-113 -371l27 138q24 -3 55 -3q108 0 173 61t91 195l185 947h-187l27 141h186l7 31q38 188 143.5 278t247.5 90q101 0 217 -32l-25 -129q-94 16 -174 16q-102 0 -154.5 -57t-84.5 -175l-7 -22h586l10 51q79 395 398 395q101 0 217 -32l-27 -129q-72 14 -147 14 q-128 0 -190 -66.5t-85 -197.5l-6 -35h684l-213 -1108h-172l189 967h-515l-190 -981q-17 -88 -57.5 -153.5t-96.5 -103.5t-120 -56.5t-136 -18.5q-54 0 -96 10l27 137q16 -2 57 -2q109 0 174.5 61t91.5 195l177 912h-586l-197 -1016q-31 -160 -138 -247t-245 -87 q-59 0 -121 12zM1917 1391q0 49 34.5 81.5t80.5 32.5q40 0 69 -29t29 -69q0 -49 -34.5 -82t-80.5 -33q-41 0 -69.5 29.5t-28.5 69.5z" />
<glyph unicode="&#xfb04;" horiz-adv-x="2025" d="M-115 -373l29 137q32 -2 55 -2q108 0 173 62t91 196l185 947h-187l27 141h186l13 66q30 159 137.5 246t247.5 87q117 0 217 -32l-25 -129q-94 16 -174 16q-92 0 -152.5 -49t-80.5 -146l-13 -59h586l19 90q34 165 171 260.5t345 95.5q100 0 182 -31.5t135 -101t53 -166.5 q0 -36 -20 -133l-219 -1122h-172l215 1092q18 87 18 122q0 96 -60.5 147.5t-160.5 51.5q-124 0 -208.5 -53.5t-108.5 -163.5l-19 -88h356l-26 -141h-357l-190 -981q-17 -87 -56.5 -152.5t-95 -104t-120 -57t-138.5 -18.5q-46 0 -96 8l27 139q32 -4 57 -4q109 0 174.5 62 t91.5 196l177 912h-586l-197 -1016q-31 -160 -138 -247t-245 -87q-40 0 -123 10z" />
<glyph horiz-adv-x="0" />
<glyph horiz-adv-x="682" />
<glyph unicode=" "  horiz-adv-x="659" />
<glyph unicode="&#x09;" horiz-adv-x="659" />
<glyph unicode="&#xa0;" horiz-adv-x="659" />
<glyph unicode="!" horiz-adv-x="464" d="M150 86q0 50 33 82.5t79 32.5q41 0 70.5 -29.5t29.5 -69.5q0 -49 -34 -81.5t-80 -32.5q-42 0 -70 29t-28 69zM258 414l166 1028h176l-229 -1028h-113z" />
<glyph unicode="&#x22;" horiz-adv-x="712" d="M238 854l149 580h186l-243 -580h-92zM588 854l149 580h187l-244 -580h-92z" />
<glyph unicode="#" horiz-adv-x="1392" d="M135 387l29 141h276l148 406h-281l29 141h303l121 330h131l-121 -330h369l121 330h131l-121 -330h270l-27 -141h-294l-150 -406h299l-27 -141h-323l-139 -381h-129l139 381h-371l-139 -381h-129l139 381h-254zM571 528h369l147 406h-368z" />
<glyph unicode="$" horiz-adv-x="1312" d="M131 117l92 135q119 -65 207.5 -88.5t214.5 -28.5l100 518q-81 21 -136 38.5t-113.5 45.5t-93.5 59t-57.5 77t-22.5 102q0 112 50.5 204t133.5 151t185 92t210 36l17 82h92l-17 -84q119 -9 232 -38.5t192 -71.5l-100 -140q-64 36 -160.5 61t-191.5 33l-101 -501 q80 -19 140 -38t118 -47t94.5 -61t59 -78.5t22.5 -101.5q0 -93 -34 -172t-91.5 -135t-134 -96.5t-160.5 -61t-171 -24.5l-25 -129h-92l24 129q-149 3 -247.5 29.5t-235.5 103.5zM506 1018q0 -71 70 -115.5t202 -79.5l94 484q-65 -3 -127.5 -21.5t-117 -52t-88 -89.5 t-33.5 -126zM737 135q68 4 131.5 22.5t120 52.5t91 91t34.5 129q0 41 -21 73.5t-63.5 56t-86.5 39t-109 32.5z" />
<glyph unicode="%" horiz-adv-x="1841" d="M287 985q0 97 36.5 185t97 150.5t142.5 99t170 36.5q129 0 209 -80.5t80 -222.5q0 -125 -58 -237t-160.5 -181t-223.5 -69q-131 0 -212 84.5t-81 234.5zM360 0l1268 1436h131l-1267 -1436h-132zM403 985q0 -95 52.5 -149t136.5 -54q133 0 223 111t90 260q0 87 -51 136.5 t-133 49.5q-133 0 -225.5 -102t-92.5 -252zM1094 307q0 97 36.5 185t97 150.5t142.5 99t170 36.5q129 0 209 -80.5t80 -222.5q0 -93 -34.5 -182t-93.5 -156t-141.5 -108t-173.5 -41q-131 0 -211.5 84.5t-80.5 234.5zM1210 307q0 -95 52.5 -149t136.5 -54q133 0 223 111 t90 260q0 87 -51 137t-133 50q-133 0 -225.5 -102.5t-92.5 -252.5z" />
<glyph unicode="&#x26;" horiz-adv-x="1398" d="M158 307q0 88 32.5 161.5t92 127t124.5 91t148 69.5q-55 73 -83 137.5t-28 136.5q0 113 61.5 210.5t165.5 154.5t224 57q83 0 146 -25t98.5 -68t53 -95.5t17.5 -112.5q0 -83 -38.5 -156.5t-104.5 -128t-135.5 -93t-149.5 -68.5l287 -345q110 94 272 293l117 -43 q-11 -12 -57 -68t-75.5 -90t-81 -88t-99.5 -98l153 -180l-122 -96l-144 176q-238 -174 -452 -174q-199 0 -310.5 83.5t-111.5 231.5zM330 322q0 -83 78.5 -139t224.5 -56q150 0 323 135l-323 389q-303 -123 -303 -329zM594 1024q0 -43 20 -87.5t39 -69.5t58 -70 q65 19 124.5 49t114.5 72.5t88 102t33 126.5q0 77 -52.5 127.5t-148.5 50.5q-112 0 -194 -93.5t-82 -207.5z" />
<glyph unicode="'" horiz-adv-x="423" d="M268 854l150 580h190l-246 -580h-94z" />
<glyph unicode="(" horiz-adv-x="819" d="M219 434q0 142 40 276.5t109.5 245.5t167 209.5t208 175t235.5 136.5l39 -101q-139 -76 -253 -172t-201.5 -211.5t-136 -253.5t-48.5 -284q0 -187 90 -337t256 -255l-78 -101q-205 117 -316.5 286.5t-111.5 385.5z" />
<glyph unicode=")" horiz-adv-x="819" d="M41 -137q137 74 249 168t199.5 208.5t136 253t48.5 287.5q0 371 -340 596l78 101q205 -119 317.5 -298.5t112.5 -402.5q0 -144 -40 -276t-109 -238.5t-167 -201t-208 -166.5t-238 -132z" />
<glyph unicode="*" horiz-adv-x="845" d="M274 938l285 133l-233 135l67 86l215 -157l45 292h99l-70 -292l279 157l30 -86l-284 -135l233 -133l-66 -86l-217 156l-45 -291h-98l70 291l-277 -156z" />
<glyph unicode="+" horiz-adv-x="1310" d="M281 690l26 141h441l86 441h141l-86 -441h440l-26 -141h-441l-86 -440h-141l86 440h-440z" />
<glyph unicode="," horiz-adv-x="391" d="M-31 -186q75 6 130 53t75 123q-34 4 -54 27t-20 57q0 51 38 89t89 38q40 0 63 -26t23 -73q0 -153 -101.5 -254.5t-229.5 -107.5z" />
<glyph unicode="-" horiz-adv-x="835" d="M213 608l27 144h645l-27 -144h-645z" />
<glyph unicode="." horiz-adv-x="376" d="M94 86q0 49 34.5 82t80.5 33q41 0 69.5 -29.5t28.5 -69.5q0 -49 -34 -81.5t-80 -32.5q-41 0 -70 29t-29 69z" />
<glyph unicode="/" horiz-adv-x="942" d="M-111 -262l1274 1896h148l-1276 -1896h-146z" />
<glyph unicode="0" horiz-adv-x="1495" d="M223 555q0 133 37 264.5t108.5 245t168 201t224.5 138t269 50.5q237 0 379.5 -153t142.5 -404q0 -135 -37 -267.5t-108.5 -247.5t-168 -203.5t-223.5 -139.5t-267 -51q-250 0 -387.5 155.5t-137.5 411.5zM393 580q0 -210 102 -323.5t283 -113.5q105 0 201.5 43 t168.5 115.5t126.5 163.5t82 190.5t27.5 194.5q0 206 -103 327t-282 121q-106 0 -203 -43.5t-168.5 -116.5t-125.5 -166t-81.5 -194t-27.5 -198z" />
<glyph unicode="1" horiz-adv-x="802" d="M319 1350l445 94h96l-280 -1444h-177l248 1278l-323 -70z" />
<glyph unicode="2" horiz-adv-x="1277" d="M94 0l15 72q75 87 168 161.5t180.5 122.5t180.5 94.5t172 82t150.5 81.5t122 95t80 121t29.5 161q0 134 -83 219.5t-228 85.5q-170 0 -297.5 -107.5t-161.5 -299.5h-156l6 33q46 240 213.5 387t427.5 147q193 0 320 -122t127 -312q0 -105 -29.5 -193.5t-78 -151.5 t-116.5 -119t-140.5 -95t-154 -79.5t-153.5 -73t-142.5 -75t-117.5 -85.5h778l-28 -150h-1084z" />
<glyph unicode="3" horiz-adv-x="1259" d="M119 80l92 137q99 -46 196 -63t232 -17q114 0 217.5 41.5t173.5 128.5t70 201q0 45 -17.5 84.5t-56 74.5t-109.5 55.5t-167 20.5h-70l-18 72l479 479h-746l29 150h999l-16 -84l-502 -506q170 -17 268.5 -104.5t98.5 -219.5q0 -114 -40.5 -207t-108 -154t-158.5 -103 t-187 -60t-198 -18q-151 0 -253 19.5t-208 72.5z" />
<glyph unicode="4" horiz-adv-x="1349" d="M150 449l1054 995h133l-182 -930h219l-28 -147h-220l-69 -367h-172l69 367h-786zM416 514h567l129 655z" />
<glyph unicode="5" horiz-adv-x="1267" d="M119 74l90 137q98 -42 198 -58t240 -16q121 0 226 48t172 143t67 217q0 111 -78.5 179.5t-230.5 68.5q-90 0 -217.5 -23.5t-196.5 -46.5l-67 45l147 676h932l-31 -152h-778l-94 -422q75 24 178.5 42t195.5 18q197 0 304.5 -99t107.5 -266q0 -142 -56 -255t-151 -182.5 t-213.5 -105.5t-251.5 -36q-165 0 -273.5 18t-219.5 70z" />
<glyph unicode="6" horiz-adv-x="1359" d="M225 494q0 277 100.5 496t278.5 339.5t402 120.5q147 0 245.5 -36t192.5 -107l-103 -129q-155 127 -362 127q-121 0 -224.5 -51.5t-172.5 -135.5t-112 -183.5t-56 -203.5q95 110 222 155.5t286 45.5q89 0 167.5 -22t140.5 -64.5t98 -111.5t36 -156q0 -136 -59 -250 t-156 -187t-218.5 -113t-250.5 -40q-204 0 -329.5 139.5t-125.5 366.5zM389 432q0 -116 91.5 -201.5t226.5 -85.5q90 0 177 29t155.5 81t110.5 130.5t42 169.5q0 115 -93 171t-249 56q-81 0 -162 -24t-148 -67t-109 -111t-42 -148z" />
<glyph unicode="7" horiz-adv-x="1198" d="M246 0l913 1294h-809l31 150h1030l-16 -84l-959 -1360h-190z" />
<glyph unicode="8" horiz-adv-x="1298" d="M158 336q0 88 31.5 164.5t85 131.5t121.5 93.5t145 58.5q-78 28 -124 93t-46 151q0 89 35.5 162t93.5 120.5t134 79.5t153.5 46t156.5 14q119 0 209 -29t146.5 -96.5t56.5 -167.5q0 -136 -81 -236t-206 -137q107 -30 172.5 -112t65.5 -193q0 -103 -40 -188t-105 -140 t-151.5 -93t-176 -54t-181.5 -16q-214 0 -354.5 95t-140.5 253zM330 367q0 -113 95.5 -170.5t252.5 -57.5q68 0 132.5 11.5t124.5 37.5t104.5 64t71 93.5t26.5 123.5q0 109 -96.5 169t-252.5 60q-86 0 -165.5 -19.5t-146 -58t-106.5 -104t-40 -149.5zM526 1036 q0 -86 79 -138t210 -52q70 0 136 17t121.5 50t89.5 88t34 123q0 176 -287 176q-71 0 -136 -14.5t-122 -44t-91 -82.5t-34 -123z" />
<glyph unicode="9" horiz-adv-x="1357" d="M195 137l104 129q155 -127 363 -127q96 0 183.5 38.5t150.5 99t113 137.5t78.5 152.5t39.5 144.5q-68 -93 -207.5 -146t-288.5 -53q-83 0 -160 23t-141 67t-102.5 116.5t-38.5 162.5q0 124 52 232t140 181.5t204.5 115.5t244.5 42q224 0 353.5 -135t129.5 -383 q0 -187 -59.5 -360.5t-161 -302.5t-246 -206t-305.5 -77q-146 0 -249.5 38.5t-196.5 110.5zM461 907q0 -121 93 -183t247 -62q109 0 211.5 42.5t170.5 125.5t68 186q0 122 -91.5 207.5t-227.5 85.5q-119 0 -226 -49.5t-176 -143t-69 -209.5z" />
<glyph unicode=":" horiz-adv-x="452" d="M129 86q0 49 34.5 82t80.5 33q41 0 69.5 -29.5t28.5 -69.5q0 -49 -34.5 -81.5t-80.5 -32.5q-41 0 -69.5 29t-28.5 69zM307 989q0 49 34.5 82t80.5 33q41 0 69.5 -29t28.5 -69q0 -50 -34 -82.5t-80 -32.5q-41 0 -70 29t-29 69z" />
<glyph unicode=";" horiz-adv-x="448" d="M0 -186q74 6 129.5 52.5t75.5 123.5q-34 4 -54 27t-20 57q0 51 38 89t89 38q47 0 65.5 -31t18.5 -88q-14 -152 -108 -243t-222 -99zM307 989q0 49 34.5 82t78.5 33q41 0 70.5 -29t29.5 -69q0 -50 -34 -82.5t-80 -32.5q-42 0 -70.5 29t-28.5 69z" />
<glyph unicode="&#x3c;" horiz-adv-x="1265" d="M250 674l16 84l1086 485l-31 -160l-836 -368l695 -367l-33 -160z" />
<glyph unicode="=" horiz-adv-x="1282" d="M215 342l29 143h979l-29 -143h-979zM330 934l28 143h979l-28 -143h-979z" />
<glyph unicode="&#x3e;" horiz-adv-x="1267" d="M203 188l33 160l833 367l-692 368l33 160l897 -485l-17 -84z" />
<glyph unicode="?" horiz-adv-x="1105" d="M283 1352q129 62 233.5 83t257.5 21q214 0 332.5 -98.5t118.5 -276.5q0 -110 -48 -201t-128 -148.5t-180 -89.5t-210 -34l-53 -223h-123l47 295l27 41h57q83 0 162 21.5t145 62t106 106.5t40 148q0 116 -86 183t-229 67q-129 0 -226.5 -19.5t-208.5 -70.5zM379 86 q0 49 35 82t78 33q41 0 70.5 -29.5t29.5 -69.5q-3 -50 -36.5 -82t-78.5 -32q-42 0 -70 29t-28 69z" />
<glyph unicode="@" horiz-adv-x="1976" d="M195 416q0 210 91.5 407.5t240.5 341.5t348.5 231t406.5 87q156 0 293 -54.5t234 -148.5t152.5 -225t55.5 -279q0 -123 -37 -241.5t-104.5 -215t-173.5 -156t-232 -59.5q-107 0 -160 44t-53 122q0 30 9 68q-83 -97 -188 -153t-210 -56q-148 0 -230.5 93.5t-82.5 236.5 q0 112 47 226t124.5 203.5t186 145.5t222.5 56t189.5 -63t96.5 -167l66 189l139 -23q-198 -571 -223 -645q-10 -31 -10 -68q0 -112 127 -112q86 0 164 51.5t130.5 132t83.5 177t31 186.5q0 186 -81.5 333.5t-232 231.5t-343.5 84q-152 0 -300.5 -52.5t-269 -146t-213 -214 t-143.5 -264t-51 -288.5q0 -292 177.5 -476.5t471.5 -184.5q324 0 578 186l14 -18q23 -31 29 -37q-288 -215 -633 -215q-218 0 -386 93.5t-259.5 259t-91.5 376.5zM709 502q0 -100 58 -164t155 -64q104 0 202.5 70t156.5 174t58 203q0 97 -60.5 160t-156.5 63 q-79 0 -156.5 -40.5t-133 -104t-89.5 -143t-34 -154.5z" />
<glyph unicode="A" d="M39 0l948 1444h96l390 -1444h-185l-92 362h-743l-230 -362h-184zM545 506h616l-174 698z" />
<glyph unicode="B" horiz-adv-x="1435" d="M174 0l281 1444h569q119 0 192.5 -70.5t73.5 -185.5q0 -80 -43.5 -157t-111.5 -113q149 -20 228 -130t79 -272q0 -140 -72.5 -259t-195.5 -188t-265 -69h-735zM375 150h481q170 0 288 106t118 254q0 132 -76 211.5t-230 79.5h-454zM524 934h394q84 0 143 63.5t59 135.5 q0 74 -50 117.5t-132 43.5h-342z" />
<glyph unicode="C" horiz-adv-x="1548" d="M236 606q0 148 45.5 281.5t126.5 236.5t189.5 179t239 115.5t269.5 39.5q182 0 330 -73.5t233 -200.5l-147 -115q-64 103 -181.5 164t-261.5 61q-177 0 -329.5 -90t-242 -242.5t-89.5 -328.5q0 -207 136.5 -344t350.5 -137q133 0 262 60t226 163l110 -113 q-124 -127 -289 -200.5t-335 -73.5q-132 0 -251.5 49t-205 132t-136 197.5t-50.5 239.5z" />
<glyph unicode="D" d="M174 0l279 1444h499q164 0 300 -72.5t219 -211.5t83 -318q0 -161 -69 -316t-182.5 -270t-266.5 -185.5t-313 -70.5h-549zM373 158h362q123 0 241 56.5t204 147t139 209.5t53 240q0 213 -118 344t-330 131h-332z" />
<glyph unicode="E" horiz-adv-x="1318" d="M174 0l281 1444h1001l-29 -150h-831l-102 -520h704l-27 -147h-704l-94 -477h874l-28 -150h-1045z" />
<glyph unicode="F" horiz-adv-x="1286" d="M174 0l281 1444h1022l-29 -150h-852l-125 -641h737l-26 -149h-740l-98 -504h-170z" />
<glyph unicode="G" horiz-adv-x="1619" d="M236 565q0 181 76.5 346.5t202.5 284t295.5 188.5t348.5 70q174 0 309.5 -54.5t221.5 -152.5l-136 -121q-71 78 -181.5 122t-248.5 44q-181 0 -345 -96t-264.5 -258.5t-100.5 -345.5q0 -194 135.5 -321.5t347.5 -127.5q251 0 477 142l53 272h-483l27 135h659l-96 -493 q-148 -100 -320 -155.5t-350 -55.5q-137 0 -255 44t-199.5 121t-127.5 183.5t-46 228.5z" />
<glyph unicode="H" d="M174 0l281 1444h170l-144 -739h819l144 739h172l-281 -1444h-172l107 555h-819l-107 -555h-170z" />
<glyph unicode="I" horiz-adv-x="530" d="M176 0l281 1444h178l-281 -1444h-178z" />
<glyph unicode="J" horiz-adv-x="1216" d="M131 424l158 14q0 -127 78 -207.5t208 -80.5q163 0 273 110t145 289l176 895h174l-167 -854q-57 -290 -219.5 -446t-409.5 -156q-192 0 -304 123t-112 313z" />
<glyph unicode="K" horiz-adv-x="1429" d="M174 0l281 1444h170l-166 -858l952 858h215l-776 -705l514 -739h-234l-421 610l-299 -268l-66 -342h-170z" />
<glyph unicode="L" horiz-adv-x="1226" d="M174 0l281 1444h176l-254 -1299h801l-27 -145h-977z" />
<glyph unicode="M" horiz-adv-x="1785" d="M174 0l281 1444h92l440 -959l813 959h92l-280 -1444h-176l202 1044l-708 -851l-377 851l-203 -1044h-176z" />
<glyph unicode="N" horiz-adv-x="1583" d="M174 0l281 1444h92l751 -1114l218 1114h174l-281 -1444h-92l-752 1114l-215 -1114h-176z" />
<glyph unicode="O" horiz-adv-x="1740" d="M233 616q0 167 63.5 320t175 267.5t274.5 182.5t350 68q144 0 270.5 -50t215.5 -135.5t140.5 -204.5t51.5 -253q0 -149 -45.5 -280t-126 -229.5t-188.5 -169.5t-236.5 -107.5t-266.5 -36.5q-143 0 -269.5 49t-216 133t-141 200t-51.5 246zM414 631q0 -204 146.5 -342.5 t367.5 -138.5q132 0 253 47t212.5 130t145.5 205t54 263q0 139 -66 252.5t-184 179t-264 65.5q-187 0 -341 -92t-239 -243.5t-85 -325.5z" />
<glyph unicode="P" horiz-adv-x="1351" d="M174 0l281 1444h571q120 0 208.5 -29.5t139.5 -83.5t75 -121t24 -149q0 -151 -53.5 -270t-148.5 -194.5t-221 -115t-274 -39.5h-342l-84 -442h-176zM463 588h325q142 0 256.5 55.5t181 159.5t66.5 239q0 123 -74 187.5t-247 64.5h-371z" />
<glyph unicode="Q" horiz-adv-x="1740" d="M231 623q0 163 66 315t179.5 265.5t275 182t342.5 68.5q144 0 270.5 -50t215.5 -135.5t140.5 -204.5t51.5 -253q0 -189 -79 -345.5t-218 -268.5l114 -113l-98 -100l-127 125q-209 -121 -455 -121q-143 0 -269.5 49t-216 134t-141 202.5t-51.5 249.5zM412 637 q0 -207 146.5 -347t367.5 -140q169 0 315 73l-106 107l98 102l119 -119q110 80 174.5 204.5t64.5 277.5q0 139 -66 252.5t-184 179t-264 65.5q-187 0 -340.5 -90t-239 -240t-85.5 -325z" />
<glyph unicode="R" horiz-adv-x="1400" d="M174 0l281 1444h532q137 0 237.5 -29t158.5 -82.5t85 -121t27 -152.5q0 -218 -114 -367.5t-314 -210.5l272 -481h-211l-243 446q-82 -4 -127 -4h-324l-84 -442h-176zM463 588h348q218 0 361 118t143 314q0 138 -75 206t-247 68h-393z" />
<glyph unicode="S" horiz-adv-x="1310" d="M131 117l88 135q134 -72 233.5 -94.5t256.5 -22.5q70 0 138.5 17t129 50t98 89.5t37.5 126.5q0 39 -17 70t-43.5 53t-73.5 41.5t-90.5 32.5t-111.5 30q-87 21 -147.5 39t-125.5 47t-104 62.5t-64.5 82.5t-25.5 109q0 115 52.5 207.5t138.5 149t190 86.5t215 30 q281 0 496 -110l-94 -140q-83 44 -207 72.5t-232 28.5q-88 0 -172 -30.5t-144 -96t-60 -150.5q0 -37 18 -67.5t46.5 -52.5t77 -43t96.5 -35.5t118 -32.5q83 -22 143 -42.5t120.5 -51t97.5 -65.5t60 -85t23 -111q0 -107 -42 -190.5t-107 -133.5t-154 -82t-173.5 -44 t-174.5 -12q-158 0 -262 27t-248 106z" />
<glyph unicode="T" horiz-adv-x="1351" d="M346 1294l31 150h1167l-31 -150h-495l-250 -1294h-178l252 1294h-496z" />
<glyph unicode="U" horiz-adv-x="1546" d="M268 457q0 50 19 147l159 840h172q-144 -731 -161 -850q-11 -71 -11 -107q0 -169 90 -254.5t263 -85.5q211 0 348.5 125.5t179.5 343.5l162 828h170l-168 -864q-47 -266 -237.5 -426t-452.5 -160q-259 0 -396 121.5t-137 341.5z" />
<glyph unicode="V" horiz-adv-x="1556" d="M348 1444h191l299 -1155l749 1155h193l-953 -1444h-88z" />
<glyph unicode="W" horiz-adv-x="2287" d="M336 1444h188l195 -1118l657 1118h82l217 -1118l633 1118h189l-836 -1444h-80l-221 1153l-668 -1153h-80z" />
<glyph unicode="X" horiz-adv-x="1449" d="M70 0l688 725l-400 719h199l340 -590l569 590h199l-682 -719l408 -725h-203l-344 594l-572 -594h-202z" />
<glyph unicode="Y" horiz-adv-x="1374" d="M315 1444h201l303 -766l600 766h203l-750 -948l-96 -496h-176l94 496z" />
<glyph unicode="Z" horiz-adv-x="1359" d="M96 0l15 76l1142 1218h-858l31 150h1112l-16 -78l-1143 -1216h917l-28 -150h-1172z" />
<glyph unicode="[" horiz-adv-x="696" d="M125 -260l330 1696h460l-24 -127h-318l-278 -1442h315l-24 -127h-461z" />
<glyph unicode="\" horiz-adv-x="925" d="M270 1634h146l538 -1896h-145z" />
<glyph unicode="]" horiz-adv-x="718" d="M31 -260l22 127h318l278 1442h-315l26 127h459l-330 -1696h-458z" />
<glyph unicode="^" horiz-adv-x="927" d="M274 1004l431 440h83l259 -440h-134l-190 327l-317 -327h-132z" />
<glyph unicode="_" horiz-adv-x="1198" d="M-39 -168l21 105h1208l-21 -105h-1208z" />
<glyph unicode="`" horiz-adv-x="935" d="M580 1868l194 14l219 -336h-119z" />
<glyph unicode="a" horiz-adv-x="1370" d="M195 434q0 138 56.5 267t149.5 222t220 149t262 56q107 0 201 -32.5t157 -89.5l21 102h170l-215 -1108h-168l20 111q-189 -123 -410 -123q-208 0 -336 123.5t-128 322.5zM365 461q0 -143 96.5 -232.5t253.5 -89.5q221 0 385 129l110 576q-52 63 -140.5 98t-192.5 35 q-136 0 -255 -74t-188 -193t-69 -249z" />
<glyph unicode="b" horiz-adv-x="1372" d="M156 0l299 1544h170l-105 -532q188 116 408 116q209 0 337 -122.5t128 -319.5q0 -146 -58 -277.5t-153 -222.5t-219.5 -144.5t-255.5 -53.5q-109 0 -204.5 32t-158.5 89l-18 -109h-170zM377 272q114 -133 334 -133q133 0 252 73.5t189.5 192.5t70.5 248 q0 141 -96.5 232.5t-254.5 91.5q-222 0 -383 -129z" />
<glyph unicode="c" horiz-adv-x="1193" d="M190 436q0 160 59.5 293t160 219t230 133t271.5 47q125 0 222.5 -53t154.5 -147l-131 -103q-41 71 -112.5 111.5t-161.5 40.5q-101 0 -196.5 -38t-168 -104.5t-116.5 -164t-44 -207.5q0 -139 102 -231.5t261 -92.5q89 0 176 42t158 114l88 -102q-94 -96 -212.5 -148.5 t-242.5 -52.5q-223 0 -360.5 124.5t-137.5 319.5z" />
<glyph unicode="d" horiz-adv-x="1372" d="M193 440q0 137 59 265t154.5 220t220.5 147.5t254 55.5q220 0 362 -116l105 532h168l-299 -1544h-168l18 106q-164 -114 -399 -114q-220 0 -347.5 118.5t-127.5 329.5zM362 459q0 -143 97.5 -231.5t255.5 -88.5q220 0 385 133l110 576q-113 129 -333 129 q-134 0 -254 -74.5t-190.5 -194.5t-70.5 -249z" />
<glyph unicode="e" horiz-adv-x="1284" d="M193 438q0 182 90 341t247.5 254t343.5 95q208 0 323.5 -120.5t115.5 -315.5q0 -70 -25 -188h-930q-2 -12 -2 -39q0 -147 96 -237.5t248 -90.5q114 0 217 42.5t177 119.5l94 -90q-211 -221 -535 -221q-217 0 -338.5 126t-121.5 324zM387 637h762q4 36 4 55 q0 137 -81.5 217t-225.5 80q-155 0 -281.5 -99.5t-177.5 -252.5z" />
<glyph unicode="f" horiz-adv-x="780" d="M-115 -373l29 137q7 0 25 -1t30 -1q109 0 173 59.5t91 198.5l185 947h-187l27 141h186l11 51q41 207 136.5 301t227.5 94q145 0 250 -30l-27 -129q-72 14 -147 14q-70 0 -118 -18.5t-79.5 -59.5t-49.5 -92t-34 -131h357l-27 -141h-356l-189 -977q-15 -80 -44 -144.5 t-75 -117.5t-115 -82t-157 -29q-68 0 -123 10z" />
<glyph unicode="g" horiz-adv-x="1372" d="M135 -311l58 127q194 -64 350 -64q101 0 184 22t138.5 57t97 85t64.5 100t36 107q-188 -111 -399 -111q-212 0 -340.5 121.5t-128.5 317.5q0 187 95 343.5t252.5 245t338.5 88.5q106 0 201 -32t159 -88l19 100h170l-185 -948q-105 -541 -704 -541q-95 0 -184.5 14.5 t-125.5 25t-96 30.5zM362 471q0 -133 101 -219t262 -86q222 0 377 123l106 557q-53 62 -139 96.5t-192 34.5q-133 0 -252.5 -71.5t-191 -188.5t-71.5 -246z" />
<glyph unicode="h" horiz-adv-x="1304" d="M156 0l299 1544h170l-105 -536q170 122 393 122q190 0 294 -88t104 -262q0 -61 -19 -162l-121 -616h-170l121 616q13 80 13 111q0 122 -74 186t-203 64q-198 0 -369 -125l-163 -854h-170z" />
<glyph unicode="i" horiz-adv-x="491" d="M160 0l213 1108h170l-213 -1108h-170zM408 1391q0 49 34 80.5t80 31.5q40 0 69.5 -28.5t29.5 -67.5q0 -49 -34.5 -82t-80.5 -33q-41 0 -69.5 29t-28.5 70z" />
<glyph unicode="j" horiz-adv-x="489" d="M-184 -371l26 138q24 -3 56 -3q108 0 173 61t91 195l211 1088h170l-224 -1157q-31 -159 -138 -246.5t-244 -87.5q-59 0 -121 12zM406 1391q0 49 34 80.5t80 31.5q41 0 69.5 -28t28.5 -68q0 -50 -34 -82.5t-80 -32.5q-41 0 -69.5 29t-28.5 70z" />
<glyph unicode="k" horiz-adv-x="1247" d="M156 0l299 1544h170l-211 -1089l800 653h207l-510 -426l299 -682h-192l-246 553l-401 -322l-45 -231h-170z" />
<glyph unicode="l" horiz-adv-x="489" d="M158 0l299 1544h172l-299 -1544h-172z" />
<glyph unicode="m" horiz-adv-x="2033" d="M156 0l215 1108h168l-19 -107q78 61 177 94t204 33q250 0 332 -165q86 79 192 122t220 43q189 0 292 -88t103 -262q0 -61 -19 -162l-118 -616h-170l118 616q13 72 13 109q0 122 -74 187t-201 65q-173 0 -325 -129q4 -36 4 -55q0 -72 -21 -179l-117 -614h-169l118 616 q13 60 13 115q0 119 -65.5 182.5t-180.5 63.5q-193 0 -357 -125l-163 -852h-170z" />
<glyph unicode="n" horiz-adv-x="1306" d="M156 0l213 1108h170l-21 -107q172 127 395 127q190 0 294 -88t104 -262q0 -61 -19 -162l-121 -616h-170l121 616q13 80 13 111q0 122 -74 186t-203 64q-198 0 -369 -125l-163 -852h-170z" />
<glyph unicode="o" horiz-adv-x="1386" d="M193 457q0 135 49 256.5t137.5 214t223.5 146.5t296 54q220 0 370 -137.5t150 -331.5q0 -133 -40.5 -245t-108.5 -189.5t-159.5 -131.5t-192.5 -79.5t-207 -25.5q-143 0 -262.5 63.5t-187.5 171.5t-68 234zM365 477q0 -141 102.5 -239.5t259.5 -98.5q100 0 192.5 32.5 t166.5 93.5t118.5 158t44.5 216q0 142 -104.5 240t-261.5 98q-116 0 -214.5 -41.5t-164 -110.5t-102.5 -159.5t-37 -188.5z" />
<glyph unicode="p" horiz-adv-x="1376" d="M84 -358l285 1466h170l-19 -100q84 56 192 88t216 32q209 0 338 -123t129 -321q0 -137 -58 -266.5t-153 -223t-221 -150t-256 -56.5q-224 0 -363 116l-90 -462h-170zM377 268q110 -129 334 -129q134 0 253.5 73.5t190 192.5t70.5 248q0 141 -97.5 232.5t-255.5 91.5 q-220 0 -385 -133z" />
<glyph unicode="q" horiz-adv-x="1376" d="M197 440q0 143 58.5 272.5t154 219.5t220 143t253.5 53q107 0 202 -32t160 -88l19 100h170l-285 -1466h-170l90 462q-167 -110 -391 -110t-352.5 115.5t-128.5 330.5zM362 457q0 -139 101 -226.5t260 -87.5q220 0 379 125l110 576q-53 63 -138.5 98t-192.5 35 q-138 0 -259 -75t-190.5 -195t-69.5 -250z" />
<glyph unicode="r" horiz-adv-x="890" d="M156 0l215 1108h168l-41 -217q75 109 180.5 173t228.5 64q71 0 131 -32l-47 -176q-74 32 -153 32q-151 0 -261.5 -113t-142.5 -278l-108 -561h-170z" />
<glyph unicode="s" horiz-adv-x="1083" d="M104 90l91 127q211 -92 387 -92q75 0 145 21.5t122 72t52 121.5q0 61 -67 95t-213 65q-70 15 -119 29t-97.5 35t-78 46t-48 61t-18.5 81q0 89 42.5 162.5t111.5 119t152.5 70t170.5 24.5q205 0 402 -86l-82 -127q-154 74 -350 74q-67 0 -131.5 -21t-110.5 -66.5 t-47 -104.5q0 -60 65.5 -93t214.5 -63q88 -18 150 -38.5t112.5 -50t75.5 -71t25 -96.5q0 -86 -32 -155.5t-83.5 -113.5t-120 -74t-136.5 -42t-138 -12q-235 0 -447 102z" />
<glyph unicode="t" horiz-adv-x="823" d="M231 967l27 141h184l84 436h172l-86 -436h377l-26 -141h-377l-119 -643q-6 -30 -6 -56q0 -71 45 -102t133 -31q87 0 160 15l-25 -130q-100 -32 -205 -32q-132 0 -210 60t-78 190q0 36 12 98l123 631h-185z" />
<glyph unicode="u" horiz-adv-x="1320" d="M215 317q0 34 3 67t6.5 63.5t16 98.5t23.5 123.5t37.5 189.5t48.5 249h170q-131 -664 -131 -721q0 -121 74 -184.5t203 -63.5q200 0 381 133l163 836h168l-213 -1108h-170l23 115q-165 -123 -412 -123q-183 0 -287 85t-104 240z" />
<glyph unicode="v" horiz-adv-x="1253" d="M260 1108h180l242 -832l559 832h180l-749 -1108h-86z" />
<glyph unicode="w" horiz-adv-x="1746" d="M248 1108h172l153 -832l467 832h93l147 -832l475 832h172l-639 -1108h-88l-162 852l-489 -852h-88z" />
<glyph unicode="x" horiz-adv-x="1193" d="M55 0l555 559l-340 549h197l264 -422l430 422h197l-553 -549l342 -559h-193l-274 422l-436 -422h-189z" />
<glyph unicode="y" horiz-adv-x="1318" d="M94 -311l58 127q77 -24 120.5 -35.5t114.5 -21t154 -9.5q93 0 168 22.5t122.5 56t85.5 85t58.5 96.5t38.5 103q-177 -125 -408 -125q-184 0 -289.5 90.5t-105.5 253.5q0 31 2 47q3 31 36.5 213.5t66.5 349.5l32 166h170l-127 -702q-4 -20 -4 -56q0 -110 74.5 -160.5 t200.5 -50.5q201 0 382 133l162 836h170l-145 -756q-43 -226 -73 -317q-74 -228 -229 -326q-145 -92 -378 -92q-47 0 -87 1.5t-68.5 3t-60.5 6.5t-48 7t-48 10.5t-43 12t-49.5 15.5t-52.5 16z" />
<glyph unicode="z" horiz-adv-x="1191" d="M86 0l16 88l947 879h-740l27 141h997l-16 -84l-948 -885h768l-25 -139h-1026z" />
<glyph unicode="{" horiz-adv-x="847" d="M166 510l24 127q47 0 84 2t69.5 9t56 13.5t44.5 22.5t34.5 29t27 40t22 47.5t18 60t16 70t16.5 83.5l28 151q10 55 29.5 97.5t43 72t58 51t67.5 33.5t79 18.5t85.5 8.5t92.5 2l-23 -115q-143 0 -212.5 -45.5t-94.5 -177.5l-37 -190q-32 -163 -82.5 -242.5t-152.5 -104.5 q65 -15 94 -56.5t29 -115.5q0 -88 -39 -248.5t-39 -228.5q0 -70 60.5 -96.5t178.5 -26.5l-24 -114q-67 0 -113 3t-95.5 15t-78.5 32.5t-48 58t-19 89.5q0 83 37.5 242t37.5 238q0 86 -57 115.5t-217 29.5z" />
<glyph unicode="|" horiz-adv-x="583" d="M164 -262l368 1896h136l-369 -1896h-135z" />
<glyph unicode="}" horiz-adv-x="843" d="M10 -313l23 114q71 0 119 9t87.5 33.5t63 68.5t37.5 113l43 215q32 163 80.5 237t150.5 96q-65 17 -92.5 59t-27.5 116t57 362q8 39 8 76q0 85 -54 116t-175 31l22 115q66 0 111.5 -3.5t94 -15.5t77.5 -33.5t48 -60t19 -92.5q0 -77 -31.5 -223t-31.5 -221q0 -98 56 -130 t212 -32l-24 -127q-79 0 -130.5 -5t-92 -24t-62.5 -39t-42 -69t-30 -94t-26 -132l-33 -178q-10 -54 -29.5 -96.5t-43.5 -72t-59 -50.5t-68.5 -33t-79.5 -19t-85.5 -9t-91.5 -2z" />
<glyph unicode="~" horiz-adv-x="970" d="M184 494q35 125 109 193.5t172 68.5q52 0 110 -23.5t111 -47t92 -23.5q47 0 92.5 38.5t73.5 108.5l88 -12q-34 -123 -107.5 -191.5t-156.5 -68.5q-51 0 -111 23.5t-113.5 47t-90.5 23.5q-114 0 -181 -148z" />
<glyph unicode="&#xa1;" horiz-adv-x="477" d="M207 0l229 1028h113l-166 -1028h-176zM444 1339q0 49 34.5 82t80.5 33q42 0 70 -29t28 -69q0 -50 -33 -82.5t-79 -32.5q-41 0 -71 29t-30 69z" />
<glyph unicode="&#xa2;" horiz-adv-x="1177" d="M203 668q0 110 40 211.5t110.5 181t162.5 139t200 92t218 33.5l43 137h121l-51 -157q156 -37 256 -175l-125 -92q-32 47 -84 82t-93 43l-272 -848q197 0 348 154l94 -94q-96 -94 -213 -146.5t-241 -52.5q-6 0 -17 1t-16 1l-57 -178h-121l63 197q-181 41 -273.5 168 t-92.5 303zM358 676q0 -121 69.5 -211.5t188.5 -124.5l273 846q-96 0 -191.5 -39t-170.5 -105.5t-122 -163t-47 -202.5z" />
<glyph unicode="&#xa3;" horiz-adv-x="1308" d="M88 0l16 84l232 55q8 209 35 443h-156l25 133h147q17 167 65.5 301.5t128.5 233.5t198 152.5t265 53.5q143 0 250 -70.5t150 -189.5l-135 -94q-34 91 -113.5 140.5t-189.5 49.5q-100 0 -183 -46.5t-137.5 -126.5t-86 -183.5t-36.5 -220.5h588l-27 -133h-575 q-29 -361 -33 -437h748l-27 -145h-1149z" />
<glyph unicode="&#xa4;" horiz-adv-x="1992" d="M78 -229h8l25 -76l16 76h8l19 -76l24 76h8l-28 -86h-8l-19 71l-16 -71h-9zM154 45v180h61q38 0 64 -26.5t26 -63.5t-24.5 -63.5t-59.5 -26.5h-67zM201 -229h8l24 -76l17 76h8l18 -76l25 76h8l-28 -86h-9l-18 71l-16 -71h-9zM203 88h14q17 0 28 13.5t11 33.5q0 19 -12 32 t-29 13h-12v-92zM319 45v180h130v-41h-80v-24h53v-35h-53v-41h86v-39h-136zM328 -229h8l24 -76l17 76h8l18 -76l25 76h8l-28 -86h-9l-18 71l-16 -71h-9zM385 922q0 116 64.5 210t168.5 136q42 104 137 168.5t212 64.5q116 0 210 -64.5t136 -168.5q104 -42 168.5 -136 t64.5 -210q0 -117 -64.5 -212t-168.5 -137q-42 -104 -136 -168.5t-210 -64.5q-117 0 -212 64.5t-137 168.5q-104 42 -168.5 137t-64.5 212zM440 -311q0 8 9 8q8 0 8 -8t-8 -8q-9 0 -9 8zM467 59l18 37q32 -14 62 -14q20 0 20 12t-28 19q-34 7 -51 18.5t-17 38.5q0 25 18 41 t50 16q31 0 73 -14l-20 -39q-32 12 -53 12q-19 0 -19 -12q0 -11 31 -18q67 -13 67 -56q0 -28 -19.5 -43.5t-53.5 -15.5q-41 0 -78 18zM479 -231h8v-86h-8v86zM510 -231h8l51 -72v72h9v-86h-9l-51 73v-73h-8v86zM596 -231h61v-9h-26v-77h-8v77h-27v9zM635 45v180h49v-180h-49 zM678 -231h53v-9h-45v-36h41v-9h-41v-24h45v-8h-53v86zM692 602h88v141l142 -141v275h-230v-275zM692 965h230v274l-142 -141v141h-88v-274zM698 135q0 38 28.5 65t68.5 27q44 0 73 -26l-32 -33q-18 14 -41 14q-19 0 -32 -13.5t-13 -33.5q0 -22 13 -36.5t32 -14.5q12 0 28 8 v8h-32v35h83v-67q-29 -24 -79 -27q-40 0 -68.5 28t-28.5 66zM750 -231h8v-78h41v-8h-49v86zM817 -231h8v-78h41v-8h-49v86zM885 -231h8v-86h-8v86zM893 45v180h22l97 -94v94h49v-180h-23l-96 92v-92h-49zM911 -274q0 19 13 32t30 13q18 0 33 -15l-6 -6q-9 12 -27 12 q-14 0 -24 -10.5t-10 -25.5q0 -14 10.5 -24.5t25.5 -10.5q6 0 12.5 2t9.5 4l3 2v10h-20v8h28v-22q-13 -12 -33 -12t-32.5 12t-12.5 31zM1008 -231h53v-9h-45v-36h41v-9h-41v-24h45v-8h-53v86zM1010 602h71q65 0 111.5 47t46.5 113q0 69 -49 115h-180v-275zM1010 965h180 q49 46 49 114q0 66 -46.5 113t-111.5 47h-71v-274zM1079 -231h8l52 -72v72h8v-86h-8l-52 73v-73h-8v86zM1083 45v180h131v-41h-81v-24h55v-35h-55v-41h86v-39h-136zM1163 -231h62v-9h-27v-77h-8v77h-27v9zM1241 45v180h62q38 0 64 -26.5t26 -63.5t-24.5 -63.5t-59.5 -26.5 h-68zM1243 -231h25q18 0 30.5 -12.5t12.5 -30.5t-13.5 -30.5t-29.5 -12.5h-25v86zM1251 -240v-69h17q14 0 24.5 10.5t10.5 24.5q0 15 -10.5 24.5t-24.5 9.5h-17zM1290 88h15q17 0 27.5 13t10.5 34q0 19 -11.5 32t-28.5 13h-13v-92zM1329 -231h53v-9h-45v-36h41v-9h-41v-24 h45v-8h-53v86zM1397 -299l6 4q7 -14 24 -14q6 0 11.5 4.5t5.5 11.5q0 11 -17 17q-24 10 -24 24q0 9 6.5 16t15.5 7q15 0 23 -15l-6 -4q-7 10 -17 10q-5 0 -9.5 -4t-4.5 -10q0 -10 19 -16q22 -8 22 -25q0 -10 -7 -17t-18 -7q-23 0 -30 18zM1454 45v180h80q53 0 53 -39 q0 -19 -16 -32q35 -14 35 -54q0 -23 -15 -39t-41 -16h-96zM1473 -231h8v-86h-8v86zM1499 -274q0 19 13 32t30 13q18 0 33 -15l-6 -6q-9 12 -27 12q-14 0 -24.5 -10.5t-10.5 -25.5q0 -14 11 -24.5t26 -10.5q6 0 12.5 2t9.5 4l3 2v10h-21v8h29v-22q-13 -12 -33 -12t-32.5 12 t-12.5 31zM1501 84h23q30 0 30 22q0 21 -36 21h-17v-43zM1501 162h29q14 0 14 10q0 12 -12 12h-31v-22zM1593 223h56l37 -65l36 65h58l-70 -119v-59h-49v59zM1597 -231h9l51 -72v72h8v-86h-8l-51 73v-73h-9v86zM1679 -311q0 8 9 8q8 0 8 -8t-8 -8q-9 0 -9 8zM1704 -274 q0 19 13 32t30 13q18 0 33 -15l-6 -6q-9 12 -27 12q-14 0 -24.5 -10.5t-10.5 -25.5q0 -14 11 -24.5t26 -10.5q6 0 12.5 2t9.5 4l3 2v10h-21v8h29v-22q-13 -12 -33 -12t-32.5 12t-12.5 31zM1800 -231h23q13 0 22.5 -10.5t9.5 -22.5q0 -22 -18 -31l21 -22h-13l-16 18h-21v-18 h-8v86zM1808 -240v-51h15q10 1 17 9.5t7 17.5q0 10 -7.5 17t-16.5 7h-15z" />
<glyph unicode="&#xa5;" horiz-adv-x="1449" d="M274 319l23 121h416l6 37l-8 49h-396l21 121h326l-318 797h201l301 -766l600 766h203l-633 -797h327l-22 -121h-397l-29 -49l-6 -37h414l-23 -121h-414l-61 -319h-178l63 319h-416z" />
<glyph unicode="&#xa6;" horiz-adv-x="571" d="M166 -260l151 784h136l-152 -784h-135zM381 850l154 784h135l-154 -784h-135z" />
<glyph unicode="&#xa7;" horiz-adv-x="1282" d="M176 90l88 119q88 -46 165 -67t200 -21q69 0 138 20.5t122 68.5t53 112q0 47 -69.5 77.5t-231.5 67.5q-151 34 -211 60q-147 64 -147 184q0 45 20 84.5t54 68.5t69.5 50t75.5 36q-94 58 -94 166q0 81 43.5 148t113 108t150.5 63.5t162 22.5q204 0 448 -90l-78 -129 q-240 86 -399 86q-65 0 -128 -22t-109 -69.5t-46 -109.5q0 -42 38 -71t99 -46t134.5 -31t147 -33t134.5 -46t99 -75t38 -115q0 -75 -56.5 -138t-131.5 -96q49 -46 49 -131q0 -67 -32 -125.5t-83.5 -99t-116.5 -70t-130.5 -43.5t-126.5 -14q-137 0 -242.5 22t-208.5 78z M416 731q0 -36 40 -63.5t106 -45t135 -31t143 -30t114 -33.5q68 23 116 61t48 91q0 46 -60 80t-202 69q-177 42 -252 70q-61 -20 -124.5 -71.5t-63.5 -96.5z" />
<glyph unicode="&#xa8;" horiz-adv-x="1024" d="M561 1651q0 43 31.5 72.5t71.5 29.5q34 0 57.5 -23t23.5 -57q0 -44 -30 -74t-70 -30q-36 0 -60 24t-24 58zM915 1653q0 43 30.5 71.5t70.5 28.5q35 0 59.5 -23t24.5 -57q0 -44 -31.5 -74t-71.5 -30q-35 0 -58.5 25t-23.5 59z" />
<glyph unicode="&#xa9;" horiz-adv-x="1699" d="M244 653q0 211 113 396t304.5 296.5t413.5 116.5q186 0 334.5 -89t229.5 -239.5t81 -332.5q0 -156 -62.5 -303.5t-170.5 -260t-264.5 -181t-333.5 -68.5q-186 0 -334.5 89t-229.5 240.5t-81 335.5zM309 653q0 -165 74 -302t208.5 -217.5t301.5 -80.5q126 0 243 39 t210 109.5t162.5 163t107 204.5t37.5 230q0 164 -73 300.5t-207 217t-302 80.5q-149 0 -289.5 -60.5t-244 -160.5t-166 -238t-62.5 -285zM563 686q0 123 64.5 231t174.5 172t236 64q97 0 177 -42.5t128 -117.5q-34 -27 -92 -67q-34 58 -92 90.5t-131 32.5 q-132 0 -242 -106.5t-110 -242.5q0 -128 72 -212.5t198 -84.5q74 0 140 33.5t114 89.5q9 -9 39 -35.5t39 -35.5q-62 -69 -145 -110.5t-172 -47.5q-176 0 -287 105t-111 284z" />
<glyph unicode="&#xaa;" horiz-adv-x="1001" d="M295 956q0 126 68 237t179 176t232 65q137 0 236 -72l12 57h127l-150 -764h-127l11 58q-120 -74 -262 -74q-148 0 -237 90.5t-89 226.5zM422 983q0 -99 65 -164t172 -65q137 0 248 77l78 408q-32 37 -90 58.5t-125 21.5q-137 0 -242.5 -103t-105.5 -233z" />
<glyph unicode="&#xab;" horiz-adv-x="1130" d="M203 545l461 526l94 -80l-400 -446l228 -445l-129 -82zM672 545l461 526l94 -80l-400 -446l228 -445l-129 -82z" />
<glyph unicode="&#xac;" horiz-adv-x="1216" d="M242 821l28 146h1022l-94 -488h-147l65 342h-874z" />
<glyph unicode="&#xad;" horiz-adv-x="835" d="M213 608l27 144h645l-27 -144h-645z" />
<glyph unicode="&#xae;" horiz-adv-x="1699" d="M244 653q0 211 113 396t304.5 296.5t413.5 116.5q186 0 334.5 -89t229.5 -239.5t81 -332.5q0 -156 -62.5 -303.5t-170.5 -260t-264.5 -181t-333.5 -68.5q-186 0 -334.5 89t-229.5 240.5t-81 335.5zM309 653q0 -165 74 -302t208.5 -217.5t301.5 -80.5q126 0 243 39 t210 109.5t162.5 163t107 204.5t37.5 230q0 164 -73 300.5t-207 217t-302 80.5q-149 0 -289.5 -60.5t-244 -160.5t-166 -238t-62.5 -285zM604 315l162 832h342q134 0 196 -59.5t62 -155.5q0 -115 -60.5 -204t-162.5 -126l141 -233l-94 -74l-174 276q-14 -2 -49 -2h-199 l-51 -254h-113zM784 657h191q119 0 194.5 69.5t75.5 174.5q0 66 -40.5 108t-129.5 42h-215z" />
<glyph unicode="&#xaf;" horiz-adv-x="1024" d="M498 1602l24 112h647l-24 -112h-647z" />
<glyph unicode="&#xb0;" horiz-adv-x="966" d="M319 1067q0 102 58 196.5t155.5 153t206.5 58.5q137 0 233.5 -95t96.5 -231q0 -102 -58 -195.5t-155.5 -151t-206.5 -57.5q-140 0 -235 93t-95 229zM422 1073q0 -97 67 -163t168 -66q123 0 216.5 91t93.5 208q0 98 -69.5 165.5t-166.5 67.5q-123 0 -216 -92.5t-93 -210.5 z" />
<glyph unicode="&#xb1;" horiz-adv-x="1310" d="M145 0l29 141h1022l-27 -141h-1024zM303 813l29 141h440l86 441h141l-86 -441h441l-29 -141h-440l-86 -440h-142l86 440h-440z" />
<glyph unicode="&#xb2;" horiz-adv-x="849" d="M213 612l8 50q44 65 127 121t166.5 96t162 82t128 99t49.5 128q0 50 -16.5 85.5t-44.5 54t-57.5 26.5t-61.5 8q-91 0 -166 -66.5t-94 -167.5h-101q28 148 133.5 242t243.5 94q117 0 194 -70.5t77 -181.5q0 -80 -31.5 -145.5t-80 -107t-111 -79t-119 -61.5t-109.5 -53 t-78 -55h445l-19 -99h-645z" />
<glyph unicode="&#xb3;" horiz-adv-x="849" d="M197 662l59 88q116 -54 268 -54q100 0 179 54.5t79 144.5q0 59 -54 94t-150 35h-43l-13 45l275 277h-424q14 81 18 96h592l-10 -49l-293 -293q97 -12 155 -61t58 -126q0 -79 -38.5 -141.5t-100 -98.5t-131 -54.5t-138.5 -18.5q-90 0 -153.5 14t-134.5 48z" />
<glyph unicode="&#xb4;" horiz-adv-x="1024" d="M508 1546l323 336l191 -14l-395 -322h-119z" />
<glyph unicode="&#xb5;" horiz-adv-x="1341" d="M86 -350l283 1458h170l-121 -621q-33 -167 41 -257.5t225 -90.5q215 0 381 125l164 844h170l-215 -1108h-168l20 111q-80 -59 -182.5 -91t-210.5 -32q-104 0 -180.5 45t-106.5 129l-100 -512h-170z" />
<glyph unicode="&#xb6;" horiz-adv-x="1157" d="M238 864q0 131 49.5 240t133.5 180.5t194 110.5t231 39h448l-278 -1434h-129l248 1280h-142l-248 -1280h-129l101 528h-43q-199 0 -317.5 87.5t-118.5 248.5zM424 915q0 -98 80.5 -160.5t200.5 -62.5h45l114 588h-41q-162 0 -280.5 -104.5t-118.5 -260.5z" />
<glyph unicode="&#xb7;" horiz-adv-x="415" d="M219 633q0 49 34.5 82t80.5 33q40 0 69 -29.5t29 -69.5q0 -49 -34.5 -81.5t-80.5 -32.5q-42 0 -70 29t-28 69z" />
<glyph unicode="&#xb8;" horiz-adv-x="878" d="M182 -371l15 70q38 -10 92 -10q67 0 110 28.5t43 67.5q0 59 -133 59l146 158h108q-53 -79 -80 -117q31 0 54.5 -23t23.5 -61q0 -70 -64 -125t-186 -55q-26 0 -58.5 2t-51.5 4z" />
<glyph unicode="&#xb9;" horiz-adv-x="731" d="M436 1382l287 62h47l-162 -832h-110l139 721l-197 -41z" />
<glyph unicode="&#xba;" horiz-adv-x="1038" d="M283 967q0 135 74.5 245t189.5 168t241 58q153 0 252 -94t99 -234q0 -109 -44.5 -199.5t-117 -148.5t-161.5 -89.5t-181 -31.5q-154 0 -253 93.5t-99 232.5zM410 987q0 -99 68.5 -165t176.5 -66q145 0 251 92.5t106 241.5q0 100 -69.5 166.5t-176.5 66.5 q-141 0 -248.5 -100.5t-107.5 -235.5z" />
<glyph unicode="&#xbb;" horiz-adv-x="1126" d="M125 100l399 445l-225 446l127 80l254 -526l-459 -527zM594 100l397 445l-225 446l129 80l252 -526l-459 -527z" />
<glyph unicode="&#xbc;" horiz-adv-x="1769" d="M283 0l1267 1436h133l-1267 -1436h-133zM403 1382l287 62h49l-161 -832h-113l139 721l-194 -41zM967 262l604 572h84l-105 -541h156l-20 -94h-156l-37 -199h-109l37 199h-440zM1128 293h314l69 362z" />
<glyph unicode="&#xbd;" horiz-adv-x="1867" d="M285 0l1267 1436h131l-1267 -1436h-131zM403 1382l287 62h49l-161 -832h-113l139 721l-194 -41zM1077 0l8 49q44 65 127 121t166.5 96t162 82t128 99t49.5 128q0 40 -11.5 71.5t-29.5 50.5t-42.5 31.5t-48 17t-48.5 4.5q-91 0 -166 -66.5t-94 -167.5h-100q28 148 133 242 t243 94q117 0 194 -70.5t77 -181.5q0 -80 -31.5 -145.5t-80 -107.5t-111 -79.5t-119 -61.5t-109.5 -53t-78 -55h445l-19 -98h-645z" />
<glyph unicode="&#xbe;" horiz-adv-x="1822" d="M197 662l59 88q116 -54 268 -54q100 0 179 54.5t79 144.5q0 59 -54 94t-150 35h-43l-13 45l275 277h-424q14 81 18 96h592l-10 -49l-293 -293q97 -12 155 -61t58 -126q0 -82 -40 -145t-104.5 -98t-135 -52.5t-142.5 -17.5q-82 0 -142 14t-132 48zM362 0l1268 1436h131 l-1267 -1436h-132zM1044 262l605 572h84l-105 -541h156l-21 -94h-155l-37 -199h-109l37 199h-440zM1206 293h314l69 362z" />
<glyph unicode="&#xbf;" horiz-adv-x="1105" d="M160 360q0 89 31 165.5t85 131.5t126 95t154 60t169 22l53 223h123l-47 -295l-27 -41h-57q-83 0 -162 -21.5t-145 -62t-106 -106.5t-40 -148q0 -116 86.5 -183t229.5 -67q129 0 226 19.5t208 70.5l35 -133q-128 -62 -233.5 -83t-258.5 -21q-214 0 -332 98t-118 276z M793 1339q3 50 36 82.5t78 32.5q42 0 70.5 -29t28.5 -69q0 -49 -35 -82t-78 -33q-41 0 -70.5 29t-29.5 69z" />
<glyph unicode="&#xc0;" d="M39 0l948 1444h96l390 -1444h-185l-92 362h-743l-230 -362h-184zM545 506h616l-174 698zM694 1868l195 14l219 -336h-119z" />
<glyph unicode="&#xc1;" d="M39 0l948 1444h96l390 -1444h-185l-92 362h-743l-230 -362h-184zM545 506h616l-174 698zM993 1546l324 336l190 -14l-395 -322h-119z" />
<glyph unicode="&#xc2;" d="M39 0l948 1444h96l390 -1444h-185l-92 362h-743l-230 -362h-184zM545 506h616l-174 698zM705 1546l350 293h108l240 -293h-135l-176 199l-252 -199h-135z" />
<glyph unicode="&#xc3;" d="M39 0l948 1444h96l390 -1444h-185l-92 362h-743l-230 -362h-184zM545 506h616l-174 698zM662 1550q35 125 109 193.5t171 68.5q65 0 167.5 -46t147.5 -46q47 0 92 38.5t72 107.5l90 -13q-36 -122 -109.5 -191t-156.5 -69q-51 0 -110.5 23.5t-112.5 47.5t-90 24 q-117 0 -180 -148z" />
<glyph unicode="&#xc4;" d="M39 0l948 1444h96l390 -1444h-185l-92 362h-743l-230 -362h-184zM545 506h616l-174 698zM799 1651q0 43 31 72.5t71 29.5q34 0 58 -23t24 -57q0 -44 -30 -74t-70 -30q-36 0 -60 24t-24 58zM1153 1653q0 43 30 71.5t70 28.5q35 0 59.5 -23t24.5 -57q0 -44 -31 -74t-71 -30 q-35 0 -58.5 25t-23.5 59z" />
<glyph unicode="&#xc5;" d="M39 0l915 1395q-47 22 -75.5 67t-28.5 99q0 92 63 152.5t148 60.5q73 0 126.5 -53.5t53.5 -127.5q0 -72 -40 -125.5t-103 -76.5l375 -1391h-185l-92 362h-743l-230 -362h-184zM545 506h616l-174 698zM928 1561q0 -41 29 -71t71 -30q54 0 93.5 37.5t39.5 95.5 q0 40 -30 70.5t-70 30.5q-54 0 -93.5 -37.5t-39.5 -95.5z" />
<glyph unicode="&#xc6;" horiz-adv-x="2064" d="M25 0l1036 1444h1141l-31 -150h-832l-100 -520h705l-29 -147h-705l-92 -477h875l-29 -150h-1044l69 362h-522l-256 -362h-186zM563 506h455l149 776h-53z" />
<glyph unicode="&#xc7;" horiz-adv-x="1548" d="M236 606q0 148 45.5 281.5t126.5 236.5t189.5 179t239 115.5t269.5 39.5q182 0 330 -73.5t233 -200.5l-147 -115q-64 103 -181.5 164t-261.5 61q-177 0 -329.5 -90t-242 -242.5t-89.5 -328.5q0 -207 136.5 -344t350.5 -137q133 0 262 60t226 163l110 -113 q-118 -121 -272 -193t-316 -79l-69 -105q31 0 54.5 -23t23.5 -61q0 -70 -64 -125t-186 -55q-26 0 -58.5 2t-51.5 4l-19 2l14 70q38 -10 92 -10q67 0 110.5 28.5t43.5 67.5q0 59 -133 59l135 148q-244 25 -407.5 200.5t-163.5 413.5z" />
<glyph unicode="&#xc8;" horiz-adv-x="1318" d="M174 0l281 1444h1001l-29 -150h-831l-102 -520h704l-27 -147h-704l-94 -477h874l-28 -150h-1045zM627 1868l194 14l219 -336h-118z" />
<glyph unicode="&#xc9;" horiz-adv-x="1318" d="M174 0l281 1444h1001l-29 -150h-831l-102 -520h704l-27 -147h-704l-94 -477h874l-28 -150h-1045zM909 1546l324 336l190 -14l-395 -322h-119z" />
<glyph unicode="&#xca;" horiz-adv-x="1318" d="M174 0l281 1444h1001l-29 -150h-831l-102 -520h704l-27 -147h-704l-94 -477h874l-28 -150h-1045zM635 1546l350 293h109l239 -293h-135l-176 199l-252 -199h-135z" />
<glyph unicode="&#xcb;" horiz-adv-x="1318" d="M174 0l281 1444h1001l-29 -150h-831l-102 -520h704l-27 -147h-704l-94 -477h874l-28 -150h-1045zM733 1651q0 43 31.5 72.5t71.5 29.5q34 0 58 -23t24 -57q0 -44 -30.5 -74t-70.5 -30q-36 0 -60 24t-24 58zM1087 1653q0 43 30.5 71.5t70.5 28.5q35 0 59.5 -23t24.5 -57 q0 -44 -31.5 -74t-71.5 -30q-35 0 -58.5 25t-23.5 59z" />
<glyph unicode="&#xcc;" horiz-adv-x="530" d="M176 0l281 1444h178l-281 -1444h-178zM213 1894l195 15l219 -336h-119z" />
<glyph unicode="&#xcd;" horiz-adv-x="530" d="M176 0l281 1444h178l-281 -1444h-178zM514 1573l324 336l190 -15l-395 -321h-119z" />
<glyph unicode="&#xce;" horiz-adv-x="530" d="M176 0l281 1444h178l-281 -1444h-178zM223 1573l350 293h109l240 -293h-136l-176 199l-252 -199h-135z" />
<glyph unicode="&#xcf;" horiz-adv-x="530" d="M176 0l281 1444h178l-281 -1444h-178zM324 1677q0 43 31 73t71 30q34 0 58 -23t24 -57q0 -44 -30 -74.5t-70 -30.5q-36 0 -60 24t-24 58zM678 1679q0 43 30 72t70 29q35 0 59.5 -23t24.5 -57q0 -44 -31 -74.5t-71 -30.5q-35 0 -58.5 25t-23.5 59z" />
<glyph unicode="&#xd0;" horiz-adv-x="1568" d="M158 651l28 142h201l127 651h502q174 0 311.5 -73.5t213 -202t75.5 -289.5q0 -173 -70 -335.5t-184 -281t-267 -190.5t-313 -72h-549l125 651h-200zM434 158h363q123 0 244 61t210.5 158.5t145 225.5t55.5 255q0 190 -130.5 309t-336.5 119h-332l-96 -493h373l-29 -142 h-371z" />
<glyph unicode="&#xd1;" horiz-adv-x="1583" d="M174 0l281 1444h92l751 -1114l218 1114h174l-281 -1444h-92l-752 1114l-215 -1114h-176zM692 1550q35 125 109 193.5t172 68.5q65 0 167.5 -46t147.5 -46q47 0 92 38.5t72 107.5l90 -13q-36 -122 -109.5 -191t-156.5 -69q-51 0 -110.5 23.5t-112.5 47.5t-90 24 q-118 0 -181 -148z" />
<glyph unicode="&#xd2;" horiz-adv-x="1740" d="M233 616q0 167 63.5 320t175 267.5t274.5 182.5t350 68q144 0 270.5 -50t215.5 -135.5t140.5 -204.5t51.5 -253q0 -149 -45.5 -280t-126 -229.5t-188.5 -169.5t-236.5 -107.5t-266.5 -36.5q-143 0 -269.5 49t-216 133t-141 200t-51.5 246zM414 631q0 -204 146.5 -342.5 t367.5 -138.5q132 0 253 47t212.5 130t145.5 205t54 263q0 139 -66 252.5t-184 179t-264 65.5q-187 0 -341 -92t-239 -243.5t-85 -325.5zM799 1868l194 14l219 -336h-118z" />
<glyph unicode="&#xd3;" horiz-adv-x="1740" d="M233 616q0 167 63.5 320t175 267.5t274.5 182.5t350 68q144 0 270.5 -50t215.5 -135.5t140.5 -204.5t51.5 -253q0 -149 -45.5 -280t-126 -229.5t-188.5 -169.5t-236.5 -107.5t-266.5 -36.5q-143 0 -269.5 49t-216 133t-141 200t-51.5 246zM414 631q0 -204 146.5 -342.5 t367.5 -138.5q132 0 253 47t212.5 130t145.5 205t54 263q0 139 -66 252.5t-184 179t-264 65.5q-187 0 -341 -92t-239 -243.5t-85 -325.5zM1067 1546l324 336l190 -14l-395 -322h-119z" />
<glyph unicode="&#xd4;" horiz-adv-x="1740" d="M233 616q0 167 63.5 320t175 267.5t274.5 182.5t350 68q144 0 270.5 -50t215.5 -135.5t140.5 -204.5t51.5 -253q0 -149 -45.5 -280t-126 -229.5t-188.5 -169.5t-236.5 -107.5t-266.5 -36.5q-143 0 -269.5 49t-216 133t-141 200t-51.5 246zM414 631q0 -204 146.5 -342.5 t367.5 -138.5q132 0 253 47t212.5 130t145.5 205t54 263q0 139 -66 252.5t-184 179t-264 65.5q-187 0 -341 -92t-239 -243.5t-85 -325.5zM809 1546l350 293h109l239 -293h-135l-176 199l-252 -199h-135z" />
<glyph unicode="&#xd5;" horiz-adv-x="1740" d="M233 616q0 167 63.5 320t175 267.5t274.5 182.5t350 68q144 0 270.5 -50t215.5 -135.5t140.5 -204.5t51.5 -253q0 -149 -45.5 -280t-126 -229.5t-188.5 -169.5t-236.5 -107.5t-266.5 -36.5q-143 0 -269.5 49t-216 133t-141 200t-51.5 246zM414 631q0 -204 146.5 -342.5 t367.5 -138.5q132 0 253 47t212.5 130t145.5 205t54 263q0 139 -66 252.5t-184 179t-264 65.5q-187 0 -341 -92t-239 -243.5t-85 -325.5zM768 1550q35 125 109 193.5t172 68.5q65 0 167.5 -46t147.5 -46q47 0 92 38.5t72 107.5l90 -13q-36 -122 -109.5 -191t-156.5 -69 q-51 0 -110.5 23.5t-113 47.5t-90.5 24q-117 0 -180 -148z" />
<glyph unicode="&#xd6;" horiz-adv-x="1740" d="M233 616q0 167 63.5 320t175 267.5t274.5 182.5t350 68q144 0 270.5 -50t215.5 -135.5t140.5 -204.5t51.5 -253q0 -149 -45.5 -280t-126 -229.5t-188.5 -169.5t-236.5 -107.5t-266.5 -36.5q-143 0 -269.5 49t-216 133t-141 200t-51.5 246zM414 631q0 -204 146.5 -342.5 t367.5 -138.5q132 0 253 47t212.5 130t145.5 205t54 263q0 139 -66 252.5t-184 179t-264 65.5q-187 0 -341 -92t-239 -243.5t-85 -325.5zM913 1651q0 43 31.5 72.5t71.5 29.5q34 0 58 -23t24 -57q0 -44 -30.5 -74t-70.5 -30q-36 0 -60 24t-24 58zM1268 1653q0 43 30 71.5 t70 28.5q35 0 59.5 -23t24.5 -57q0 -44 -31 -74t-71 -30q-35 0 -58.5 25t-23.5 59z" />
<glyph unicode="&#xd7;" horiz-adv-x="1189" d="M172 258l465 389l-315 389l120 103l314 -394l467 394l82 -101l-467 -391l315 -389l-121 -102l-315 391l-465 -389z" />
<glyph unicode="&#xd8;" horiz-adv-x="1718" d="M145 0l238 215q-150 166 -150 401q0 167 63.5 320t175 267.5t274.5 182.5t350 68q268 0 456 -164l172 154h154l-250 -230q146 -173 146 -403q0 -149 -45.5 -280t-126 -229.5t-188.5 -169.5t-236.5 -107.5t-266.5 -36.5q-265 0 -452 157l-160 -145h-154zM414 631 q0 -168 102 -289l907 825q-141 125 -344 125q-140 0 -265 -54t-212 -144.5t-137.5 -211t-50.5 -251.5zM588 266q135 -116 340 -116q132 0 253 47t212.5 130t145.5 205t54 263q0 168 -102 292z" />
<glyph unicode="&#xd9;" horiz-adv-x="1546" d="M268 457q0 50 19 147l159 840h172q-144 -731 -161 -850q-11 -71 -11 -107q0 -169 90 -254.5t263 -85.5q211 0 348.5 125.5t179.5 343.5l162 828h170l-168 -864q-47 -266 -237.5 -426t-452.5 -160q-259 0 -396 121.5t-137 341.5zM719 1868l194 14l220 -336h-119z" />
<glyph unicode="&#xda;" horiz-adv-x="1546" d="M268 457q0 50 19 147l159 840h172q-144 -731 -161 -850q-11 -71 -11 -107q0 -169 90 -254.5t263 -85.5q211 0 348.5 125.5t179.5 343.5l162 828h170l-168 -864q-47 -266 -237.5 -426t-452.5 -160q-259 0 -396 121.5t-137 341.5zM999 1546l324 336l190 -14l-395 -322h-119 z" />
<glyph unicode="&#xdb;" horiz-adv-x="1546" d="M268 457q0 50 19 147l159 840h172q-144 -731 -161 -850q-11 -71 -11 -107q0 -169 90 -254.5t263 -85.5q211 0 348.5 125.5t179.5 343.5l162 828h170l-168 -864q-47 -266 -237.5 -426t-452.5 -160q-259 0 -396 121.5t-137 341.5zM727 1546l350 293h109l239 -293h-135 l-176 199l-252 -199h-135z" />
<glyph unicode="&#xdc;" horiz-adv-x="1546" d="M268 457q0 50 19 147l159 840h172q-144 -731 -161 -850q-11 -71 -11 -107q0 -169 90 -254.5t263 -85.5q211 0 348.5 125.5t179.5 343.5l162 828h170l-168 -864q-47 -266 -237.5 -426t-452.5 -160q-259 0 -396 121.5t-137 341.5zM825 1651q0 43 31.5 72.5t71.5 29.5 q34 0 58 -23t24 -57q0 -44 -30.5 -74t-70.5 -30q-36 0 -60 24t-24 58zM1180 1653q0 43 30 71.5t70 28.5q35 0 59.5 -23t24.5 -57q0 -44 -31 -74t-71 -30q-35 0 -58.5 25t-23.5 59z" />
<glyph unicode="&#xdd;" horiz-adv-x="1374" d="M315 1444h201l303 -766l600 766h203l-750 -948l-96 -496h-176l94 496zM920 1546l323 336l191 -14l-396 -322h-118z" />
<glyph unicode="&#xde;" horiz-adv-x="1351" d="M174 0l281 1444h174l-43 -213h356q244 0 367 -90t123 -258q0 -152 -54.5 -275.5t-148.5 -203t-216.5 -122t-262.5 -42.5h-355l-47 -240h-174zM422 385h352q138 0 248.5 64t170.5 171t60 236q0 106 -77 166.5t-232 60.5h-385z" />
<glyph unicode="&#xdf;" horiz-adv-x="1327" d="M86 -350l268 1378q46 240 209 384t363 144q182 0 289.5 -81t107.5 -230q0 -125 -66 -230t-174 -155q122 -29 185 -111.5t63 -187.5q0 -127 -54 -236.5t-141 -182t-195 -113.5t-218 -41q-109 0 -186 26l38 144q71 -23 152 -23q117 1 217 57t158.5 149.5t58.5 201.5 q0 100 -76 167.5t-229 67.5h-37l27 133h31q123 10 202.5 98.5t79.5 207.5q0 94 -70.5 146t-189.5 52q-133 0 -235.5 -100t-133.5 -260l-272 -1405h-172z" />
<glyph unicode="&#xe0;" horiz-adv-x="1370" d="M195 434q0 138 56.5 267t149.5 222t220 149t262 56q107 0 201 -32.5t157 -89.5l21 102h170l-215 -1108h-168l20 111q-189 -123 -410 -123q-208 0 -336 123.5t-128 322.5zM365 461q0 -143 96.5 -232.5t253.5 -89.5q221 0 385 129l110 576q-52 63 -140.5 98t-192.5 35 q-136 0 -255 -74t-188 -193t-69 -249zM571 1579l195 14l219 -336h-119z" />
<glyph unicode="&#xe1;" horiz-adv-x="1370" d="M195 434q0 138 56.5 267t149.5 222t220 149t262 56q107 0 201 -32.5t157 -89.5l21 102h170l-215 -1108h-168l20 111q-189 -123 -410 -123q-208 0 -336 123.5t-128 322.5zM365 461q0 -143 96.5 -232.5t253.5 -89.5q221 0 385 129l110 576q-52 63 -140.5 98t-192.5 35 q-136 0 -255 -74t-188 -193t-69 -249zM840 1257l323 336l191 -14l-396 -322h-118z" />
<glyph unicode="&#xe2;" horiz-adv-x="1370" d="M195 434q0 138 56.5 267t149.5 222t220 149t262 56q107 0 201 -32.5t157 -89.5l21 102h170l-215 -1108h-168l20 111q-189 -123 -410 -123q-208 0 -336 123.5t-128 322.5zM365 461q0 -143 96.5 -232.5t253.5 -89.5q221 0 385 129l110 576q-52 63 -140.5 98t-192.5 35 q-136 0 -255 -74t-188 -193t-69 -249zM592 1257l350 293h109l239 -293h-135l-176 199l-252 -199h-135z" />
<glyph unicode="&#xe3;" horiz-adv-x="1370" d="M195 434q0 138 56.5 267t149.5 222t220 149t262 56q107 0 201 -32.5t157 -89.5l21 102h170l-215 -1108h-168l20 111q-189 -123 -410 -123q-208 0 -336 123.5t-128 322.5zM365 461q0 -143 96.5 -232.5t253.5 -89.5q221 0 385 129l110 576q-52 63 -140.5 98t-192.5 35 q-136 0 -255 -74t-188 -193t-69 -249zM549 1262q35 125 109 193.5t171 68.5q65 0 168 -46t148 -46q47 0 92 38t72 107l90 -12q-36 -122 -109.5 -191t-156.5 -69q-51 0 -110.5 23.5t-113 47t-90.5 23.5q-117 0 -180 -148z" />
<glyph unicode="&#xe4;" horiz-adv-x="1370" d="M195 434q0 138 56.5 267t149.5 222t220 149t262 56q107 0 201 -32.5t157 -89.5l21 102h170l-215 -1108h-168l20 111q-189 -123 -410 -123q-208 0 -336 123.5t-128 322.5zM365 461q0 -143 96.5 -232.5t253.5 -89.5q221 0 385 129l110 576q-52 63 -140.5 98t-192.5 35 q-136 0 -255 -74t-188 -193t-69 -249zM690 1362q0 43 31.5 72.5t71.5 29.5q34 0 57.5 -23t23.5 -57q0 -44 -30 -74t-70 -30q-36 0 -60 24t-24 58zM1044 1364q0 43 30.5 71.5t70.5 28.5q35 0 59.5 -23t24.5 -57q0 -44 -31.5 -74t-71.5 -30q-35 0 -58.5 25t-23.5 59z" />
<glyph unicode="&#xe5;" horiz-adv-x="1370" d="M195 434q0 138 56.5 267t149.5 222t220 149t262 56q107 0 201 -32.5t157 -89.5l21 102h170l-215 -1108h-168l20 111q-189 -123 -410 -123q-208 0 -336 123.5t-128 322.5zM365 461q0 -143 96.5 -232.5t253.5 -89.5q221 0 385 129l110 576q-52 63 -140.5 98t-192.5 35 q-136 0 -255 -74t-188 -193t-69 -249zM772 1460q0 92 63 152.5t148 60.5q73 0 126.5 -53.5t53.5 -126.5q0 -93 -63.5 -153t-149.5 -60q-75 0 -126.5 53.5t-51.5 126.5zM850 1460q0 -40 29 -70t71 -30q54 0 93.5 37.5t39.5 95.5q0 40 -30 70t-70 30q-54 0 -93.5 -37.5 t-39.5 -95.5z" />
<glyph unicode="&#xe6;" horiz-adv-x="2293" d="M190 424q0 138 58 268.5t153 225.5t222 152.5t260 57.5q107 0 202 -32.5t158 -89.5l21 102h168l-43 -227q85 118 212 180.5t283 62.5q207 0 320.5 -116.5t113.5 -313.5q0 -67 -24 -190h-930q-2 -16 -2 -47q0 -147 91.5 -238.5t248.5 -91.5q112 0 215.5 45.5t181.5 126.5 l94 -90q-99 -103 -238 -162t-296 -59q-146 0 -249.5 66t-147.5 179l-43 -233h-170l20 111q-179 -119 -399 -119q-211 0 -345.5 119.5t-134.5 312.5zM362 457q0 -143 107.5 -228.5t273.5 -85.5q210 6 357 125l110 576q-52 63 -139.5 98t-191.5 35q-135 0 -255 -74 t-191 -194.5t-71 -251.5zM1393 637h761q5 45 5 55q0 136 -78 216.5t-228 80.5q-156 0 -282.5 -99.5t-177.5 -252.5z" />
<glyph unicode="&#xe7;" horiz-adv-x="1193" d="M190 436q0 160 59.5 293t160 219t230 133t271.5 47q125 0 222.5 -53t154.5 -147l-131 -103q-41 71 -112.5 111.5t-161.5 40.5q-101 0 -196.5 -38t-168 -104.5t-116.5 -164t-44 -207.5q0 -139 102 -231.5t261 -92.5q89 0 176 42t158 114l88 -102q-83 -85 -186 -135.5 t-212 -61.5q-54 -84 -73 -111q31 0 54.5 -23t23.5 -61q0 -70 -64 -125t-186 -55q-26 0 -58.5 2t-51.5 4l-19 2l14 70q38 -10 92 -10q67 0 110.5 28.5t43.5 67.5q0 59 -133 59l137 150q-202 15 -323.5 136.5t-121.5 305.5z" />
<glyph unicode="&#xe8;" horiz-adv-x="1284" d="M193 438q0 182 90 341t247.5 254t343.5 95q208 0 323.5 -120.5t115.5 -315.5q0 -70 -25 -188h-930q-2 -12 -2 -39q0 -147 96 -237.5t248 -90.5q114 0 217 42.5t177 119.5l94 -90q-211 -221 -535 -221q-217 0 -338.5 126t-121.5 324zM387 637h762q4 36 4 55 q0 137 -81.5 217t-225.5 80q-155 0 -281.5 -99.5t-177.5 -252.5zM535 1579l194 14l219 -336h-119z" />
<glyph unicode="&#xe9;" horiz-adv-x="1284" d="M193 438q0 182 90 341t247.5 254t343.5 95q208 0 323.5 -120.5t115.5 -315.5q0 -70 -25 -188h-930q-2 -12 -2 -39q0 -147 96 -237.5t248 -90.5q114 0 217 42.5t177 119.5l94 -90q-211 -221 -535 -221q-217 0 -338.5 126t-121.5 324zM387 637h762q4 36 4 55 q0 137 -81.5 217t-225.5 80q-155 0 -281.5 -99.5t-177.5 -252.5zM825 1257l324 336l190 -14l-395 -322h-119z" />
<glyph unicode="&#xea;" horiz-adv-x="1284" d="M193 438q0 182 90 341t247.5 254t343.5 95q208 0 323.5 -120.5t115.5 -315.5q0 -70 -25 -188h-930q-2 -12 -2 -39q0 -147 96 -237.5t248 -90.5q114 0 217 42.5t177 119.5l94 -90q-211 -221 -535 -221q-217 0 -338.5 126t-121.5 324zM387 637h762q4 36 4 55 q0 137 -81.5 217t-225.5 80q-155 0 -281.5 -99.5t-177.5 -252.5zM541 1257l350 293h108l240 -293h-135l-176 199l-252 -199h-135z" />
<glyph unicode="&#xeb;" horiz-adv-x="1284" d="M193 438q0 182 90 341t247.5 254t343.5 95q208 0 323.5 -120.5t115.5 -315.5q0 -70 -25 -188h-930q-2 -12 -2 -39q0 -147 96 -237.5t248 -90.5q114 0 217 42.5t177 119.5l94 -90q-211 -221 -535 -221q-217 0 -338.5 126t-121.5 324zM387 637h762q4 36 4 55 q0 137 -81.5 217t-225.5 80q-155 0 -281.5 -99.5t-177.5 -252.5zM639 1362q0 43 31 72.5t71 29.5q34 0 58 -23t24 -57q0 -44 -30 -74t-70 -30q-36 0 -60 24t-24 58zM993 1364q0 43 30.5 71.5t70.5 28.5q35 0 59.5 -23t24.5 -57q0 -44 -31.5 -74t-71.5 -30q-35 0 -58.5 25 t-23.5 59z" />
<glyph unicode="&#xec;" horiz-adv-x="491" d="M123 1559l194 14l220 -336h-119zM160 0l213 1108h172l-215 -1108h-170z" />
<glyph unicode="&#xed;" horiz-adv-x="491" d="M160 0l213 1108h172l-215 -1108h-170zM426 1237l324 336l190 -14l-395 -322h-119z" />
<glyph unicode="&#xee;" horiz-adv-x="491" d="M137 1237l350 293h109l240 -293h-136l-176 199l-252 -199h-135zM160 0l213 1108h172l-215 -1108h-170z" />
<glyph unicode="&#xef;" horiz-adv-x="491" d="M160 0l213 1108h172l-215 -1108h-170zM236 1341q0 43 31 73t71 30q34 0 58 -23t24 -57q0 -44 -30.5 -74t-70.5 -30q-36 0 -59.5 23.5t-23.5 57.5zM590 1343q0 43 30 72t70 29q35 0 59.5 -23t24.5 -57q0 -44 -31 -74t-71 -30q-35 0 -58.5 24.5t-23.5 58.5z" />
<glyph unicode="&#xf0;" horiz-adv-x="1349" d="M154 428q0 157 91 294t247 218.5t337 81.5q193 0 306 -102q-46 95 -92.5 164.5t-110.5 150.5l-359 -117l-49 90l353 117l-164 219h192l133 -168l297 97l45 -91l-284 -94q128 -177 203 -333t75 -306q0 -131 -59 -253t-156 -211.5t-228 -143t-269 -53.5 q-221 0 -364.5 125.5t-143.5 314.5zM326 453q0 -135 101.5 -227.5t262.5 -92.5q128 0 247 64t193 172t74 229q0 132 -104 209.5t-260 77.5q-133 0 -250.5 -55t-190.5 -155.5t-73 -221.5z" />
<glyph unicode="&#xf1;" horiz-adv-x="1306" d="M156 0l213 1108h170l-21 -107q172 127 395 127q190 0 294 -88t104 -262q0 -61 -19 -162l-121 -616h-170l121 616q13 80 13 111q0 122 -74 186t-203 64q-198 0 -369 -125l-163 -852h-170zM500 1241q35 125 109 193.5t171 68.5q65 0 168 -46t148 -46q47 0 92 38t72 107 l90 -12q-36 -122 -110 -191t-157 -69q-51 0 -110.5 23.5t-112.5 47t-90 23.5q-118 0 -180 -147z" />
<glyph unicode="&#xf2;" horiz-adv-x="1386" d="M193 457q0 135 49 256.5t137.5 214t223.5 146.5t296 54q220 0 370 -137.5t150 -331.5q0 -133 -40.5 -245t-108.5 -189.5t-159.5 -131.5t-192.5 -79.5t-207 -25.5q-143 0 -262.5 63.5t-187.5 171.5t-68 234zM365 477q0 -141 102.5 -239.5t259.5 -98.5q100 0 192.5 32.5 t166.5 93.5t118.5 158t44.5 216q0 142 -104.5 240t-261.5 98q-116 0 -214.5 -41.5t-164 -110.5t-102.5 -159.5t-37 -188.5zM565 1559l195 14l219 -336h-119z" />
<glyph unicode="&#xf3;" horiz-adv-x="1386" d="M193 457q0 135 49 256.5t137.5 214t223.5 146.5t296 54q220 0 370 -137.5t150 -331.5q0 -133 -40.5 -245t-108.5 -189.5t-159.5 -131.5t-192.5 -79.5t-207 -25.5q-143 0 -262.5 63.5t-187.5 171.5t-68 234zM365 477q0 -141 102.5 -239.5t259.5 -98.5q100 0 192.5 32.5 t166.5 93.5t118.5 158t44.5 216q0 142 -104.5 240t-261.5 98q-116 0 -214.5 -41.5t-164 -110.5t-102.5 -159.5t-37 -188.5zM854 1237l324 336l190 -14l-395 -322h-119z" />
<glyph unicode="&#xf4;" horiz-adv-x="1386" d="M193 457q0 135 49 256.5t137.5 214t223.5 146.5t296 54q220 0 370 -137.5t150 -331.5q0 -133 -40.5 -245t-108.5 -189.5t-159.5 -131.5t-192.5 -79.5t-207 -25.5q-143 0 -262.5 63.5t-187.5 171.5t-68 234zM365 477q0 -141 102.5 -239.5t259.5 -98.5q100 0 192.5 32.5 t166.5 93.5t118.5 158t44.5 216q0 142 -104.5 240t-261.5 98q-116 0 -214.5 -41.5t-164 -110.5t-102.5 -159.5t-37 -188.5zM575 1237l351 293h108l240 -293h-135l-176 199l-252 -199h-136z" />
<glyph unicode="&#xf5;" horiz-adv-x="1386" d="M193 457q0 135 49 256.5t137.5 214t223.5 146.5t296 54q220 0 370 -137.5t150 -331.5q0 -133 -40.5 -245t-108.5 -189.5t-159.5 -131.5t-192.5 -79.5t-207 -25.5q-143 0 -262.5 63.5t-187.5 171.5t-68 234zM365 477q0 -141 102.5 -239.5t259.5 -98.5q100 0 192.5 32.5 t166.5 93.5t118.5 158t44.5 216q0 142 -104.5 240t-261.5 98q-116 0 -214.5 -41.5t-164 -110.5t-102.5 -159.5t-37 -188.5zM532 1241q35 125 109 193.5t172 68.5q65 0 167.5 -46t147.5 -46q47 0 92 38t72 107l90 -12q-36 -122 -109.5 -191t-156.5 -69q-51 0 -110.5 23.5 t-112.5 47t-90 23.5q-118 0 -180 -147z" />
<glyph unicode="&#xf6;" horiz-adv-x="1386" d="M193 457q0 135 49 256.5t137.5 214t223.5 146.5t296 54q220 0 370 -137.5t150 -331.5q0 -133 -40.5 -245t-108.5 -189.5t-159.5 -131.5t-192.5 -79.5t-207 -25.5q-143 0 -262.5 63.5t-187.5 171.5t-68 234zM365 477q0 -141 102.5 -239.5t259.5 -98.5q100 0 192.5 32.5 t166.5 93.5t118.5 158t44.5 216q0 142 -104.5 240t-261.5 98q-116 0 -214.5 -41.5t-164 -110.5t-102.5 -159.5t-37 -188.5zM674 1341q0 43 31 73t71 30q34 0 58 -23t24 -57q0 -44 -30 -74t-70 -30q-36 0 -60 23.5t-24 57.5zM1028 1343q0 43 30 72t70 29q35 0 59.5 -23 t24.5 -57q0 -44 -31 -74t-71 -30q-35 0 -58.5 24.5t-23.5 58.5z" />
<glyph unicode="&#xf7;" horiz-adv-x="1077" d="M213 610l27 142h893l-29 -142h-891zM463 162q0 46 31.5 76t72.5 30q38 0 65 -26.5t27 -63.5q0 -46 -31.5 -76t-74.5 -30q-38 0 -64 26.5t-26 63.5zM653 1149q0 44 32 74t73 30q38 0 65 -26.5t27 -63.5q0 -46 -32 -76t-75 -30q-38 0 -64 27.5t-26 64.5z" />
<glyph unicode="&#xf8;" horiz-adv-x="1386" d="M129 0l176 162q-112 131 -112 295q0 139 49 261.5t138 213.5t223 143.5t296 52.5q194 0 334 -108l104 98h136l-175 -160q121 -134 121 -299q0 -133 -40 -245t-108 -189.5t-159 -131.5t-192.5 -79.5t-208.5 -25.5q-197 0 -338 112l-109 -100h-135zM362 475q0 -112 74 -192 l672 622q-94 72 -225 72q-155 0 -275.5 -70t-183 -183.5t-62.5 -248.5zM500 215q95 -76 227 -76q101 0 192.5 32t165 92t117 156t43.5 216q0 105 -78 203z" />
<glyph unicode="&#xf9;" horiz-adv-x="1320" d="M215 317q0 34 3 67t6.5 63.5t16 98.5t23.5 123.5t37.5 189.5t48.5 249h170q-131 -664 -131 -721q0 -121 74 -184.5t203 -63.5q200 0 381 133l163 836h168l-213 -1108h-170l23 115q-165 -123 -412 -123q-183 0 -287 85t-104 240zM543 1559l194 14l219 -336h-118z" />
<glyph unicode="&#xfa;" horiz-adv-x="1320" d="M215 317q0 34 3 67t6.5 63.5t16 98.5t23.5 123.5t37.5 189.5t48.5 249h170q-131 -664 -131 -721q0 -121 74 -184.5t203 -63.5q200 0 381 133l163 836h168l-213 -1108h-170l23 115q-165 -123 -412 -123q-183 0 -287 85t-104 240zM840 1237l323 336l191 -14l-396 -322h-118 z" />
<glyph unicode="&#xfb;" horiz-adv-x="1320" d="M215 317q0 34 3 67t6.5 63.5t16 98.5t23.5 123.5t37.5 189.5t48.5 249h170q-131 -664 -131 -721q0 -121 74 -184.5t203 -63.5q200 0 381 133l163 836h168l-213 -1108h-170l23 115q-165 -123 -412 -123q-183 0 -287 85t-104 240zM539 1237l350 293h108l240 -293h-135 l-176 199l-252 -199h-135z" />
<glyph unicode="&#xfc;" horiz-adv-x="1320" d="M215 317q0 34 3 67t6.5 63.5t16 98.5t23.5 123.5t37.5 189.5t48.5 249h170q-131 -664 -131 -721q0 -121 74 -184.5t203 -63.5q200 0 381 133l163 836h168l-213 -1108h-170l23 115q-165 -123 -412 -123q-183 0 -287 85t-104 240zM635 1341q0 43 31 73t71 30q34 0 58 -23 t24 -57q0 -44 -30 -74t-70 -30q-36 0 -60 23.5t-24 57.5zM989 1343q0 43 30.5 72t70.5 29q35 0 59.5 -23t24.5 -57q0 -44 -31.5 -74t-71.5 -30q-35 0 -58.5 24.5t-23.5 58.5z" />
<glyph unicode="&#xfd;" horiz-adv-x="1318" d="M94 -311l58 127q77 -24 120.5 -35.5t114.5 -21t154 -9.5q93 0 168 22.5t122.5 56t85.5 85t58.5 96.5t38.5 103q-177 -125 -408 -125q-184 0 -289.5 90.5t-105.5 253.5q0 31 2 47q3 31 36.5 213.5t66.5 349.5l32 166h170l-127 -702q-4 -20 -4 -56q0 -110 74.5 -160.5 t200.5 -50.5q201 0 382 133l162 836h170l-145 -756q-43 -226 -73 -317q-74 -228 -229 -326q-145 -92 -378 -92q-47 0 -87 1.5t-68.5 3t-60.5 6.5t-48 7t-48 10.5t-43 12t-49.5 15.5t-52.5 16zM811 1237l324 336l190 -14l-395 -322h-119z" />
<glyph unicode="&#xfe;" horiz-adv-x="1376" d="M84 -358l371 1902h170l-105 -536q84 56 192 88t216 32q209 0 338 -122t129 -320q0 -135 -57.5 -264t-151 -224t-220.5 -152.5t-259 -57.5q-224 0 -363 116l-90 -462h-170zM377 268q110 -129 334 -129q78 0 155 27t141 75.5t113.5 112t77 141.5t27.5 158 q0 141 -97.5 232.5t-255.5 91.5q-220 0 -385 -133z" />
<glyph unicode="&#xff;" horiz-adv-x="1318" d="M94 -311l58 127q77 -24 120.5 -35.5t114.5 -21t154 -9.5q93 0 168 22.5t122.5 56t85.5 85t58.5 96.5t38.5 103q-177 -125 -408 -125q-184 0 -289.5 90.5t-105.5 253.5q0 31 2 47q3 31 36.5 213.5t66.5 349.5l32 166h170l-127 -702q-4 -20 -4 -56q0 -110 74.5 -160.5 t200.5 -50.5q201 0 382 133l162 836h170l-145 -756q-43 -226 -73 -317q-74 -228 -229 -326q-145 -92 -378 -92q-47 0 -87 1.5t-68.5 3t-60.5 6.5t-48 7t-48 10.5t-43 12t-49.5 15.5t-52.5 16zM627 1341q0 43 31 73t71 30q34 0 58 -23t24 -57q0 -44 -30 -74t-70 -30 q-36 0 -60 23.5t-24 57.5zM981 1343q0 43 30 72t70 29q35 0 59.5 -23t24.5 -57q0 -44 -31 -74t-71 -30q-35 0 -58.5 24.5t-23.5 58.5z" />
<glyph unicode="&#x152;" horiz-adv-x="2113" d="M233 567q0 186 72 350t193.5 279t287.5 181.5t349 66.5h1118l-31 -150h-831l-101 -520h705l-29 -147h-704l-93 -477h875l-29 -150h-1179q-173 0 -312 75.5t-215 205t-76 286.5zM416 580q0 -140 67.5 -239t178.5 -145t256 -46h79l230 1144h-70q-119 0 -229 -30.5t-203 -91 t-162 -145t-108 -199.5t-39 -248z" />
<glyph unicode="&#x153;" horiz-adv-x="2316" d="M184 457q0 132 49 252.5t138 214t224.5 149t297.5 55.5q160 0 285.5 -79.5t173.5 -206.5q96 132 240 209t311 77q208 0 323 -120.5t115 -315.5q0 -70 -25 -188h-930q-2 -12 -2 -39q0 -147 96.5 -237.5t248.5 -90.5q114 0 216.5 42.5t176.5 119.5l94 -90 q-211 -221 -535 -221q-159 0 -268 69t-158 189q-90 -125 -237.5 -191.5t-312.5 -66.5q-151 0 -271 64t-185 170.5t-65 234.5zM358 477q0 -141 103 -239.5t260 -98.5q101 0 191 33t159.5 94.5t110.5 157.5t41 215q0 144 -96 241t-250 97q-117 0 -215.5 -40t-164.5 -108.5 t-102.5 -159.5t-36.5 -192zM1415 637h762q4 36 4 55q0 137 -81.5 217t-225.5 80q-155 0 -281.5 -99.5t-177.5 -252.5z" />
<glyph unicode="&#x178;" horiz-adv-x="1374" d="M315 1444h201l303 -766l600 766h203l-750 -948l-96 -496h-176l94 496zM737 1651q0 43 31.5 72.5t71.5 29.5q34 0 58 -23t24 -57q0 -44 -30.5 -74t-70.5 -30q-36 0 -60 24t-24 58zM1092 1653q0 43 30 71.5t70 28.5q35 0 59.5 -23t24.5 -57q0 -44 -31 -74t-71 -30 q-35 0 -58.5 25t-23.5 59z" />
<glyph unicode="&#x2c6;" horiz-adv-x="1024" d="M459 1546l350 293h109l239 -293h-135l-176 199l-252 -199h-135z" />
<glyph unicode="&#x2dc;" horiz-adv-x="1024" d="M412 1550q35 125 109 193.5t171 68.5q65 0 168 -46t148 -46q47 0 91.5 38.5t71.5 107.5l91 -13q-36 -122 -110 -191t-157 -69q-51 0 -110.5 23.5t-112.5 47.5t-90 24q-117 0 -180 -148z" />
<glyph unicode="&#x2000;" horiz-adv-x="954" />
<glyph unicode="&#x2001;" horiz-adv-x="1909" />
<glyph unicode="&#x2002;" horiz-adv-x="954" />
<glyph unicode="&#x2003;" horiz-adv-x="1909" />
<glyph unicode="&#x2004;" horiz-adv-x="636" />
<glyph unicode="&#x2005;" horiz-adv-x="477" />
<glyph unicode="&#x2006;" horiz-adv-x="318" />
<glyph unicode="&#x2007;" horiz-adv-x="318" />
<glyph unicode="&#x2008;" horiz-adv-x="238" />
<glyph unicode="&#x2009;" horiz-adv-x="381" />
<glyph unicode="&#x200a;" horiz-adv-x="106" />
<glyph unicode="&#x2010;" horiz-adv-x="835" d="M213 608l27 144h645l-27 -144h-645z" />
<glyph unicode="&#x2011;" horiz-adv-x="835" d="M213 608l27 144h645l-27 -144h-645z" />
<glyph unicode="&#x2012;" horiz-adv-x="835" d="M213 608l27 144h645l-27 -144h-645z" />
<glyph unicode="&#x2013;" horiz-adv-x="1081" d="M211 608l29 144h890l-26 -144h-893z" />
<glyph unicode="&#x2014;" horiz-adv-x="1839" d="M213 608l27 144h1646l-26 -144h-1647z" />
<glyph unicode="&#x2018;" horiz-adv-x="434" d="M328 1120q0 141 93.5 231.5t227.5 92.5l10 -72q-164 -3 -196 -141q31 -5 49 -26.5t18 -53.5q0 -47 -36.5 -84t-81.5 -37q-84 0 -84 90z" />
<glyph unicode="&#x2019;" horiz-adv-x="411" d="M262 1102q165 7 199 141q-31 5 -50.5 27t-19.5 53q0 47 38 84t83 37q84 0 84 -88q0 -141 -94 -232t-228 -94z" />
<glyph unicode="&#x201a;" horiz-adv-x="442" d="M-2 -141q165 3 199 141q-31 5 -50.5 26.5t-19.5 53.5q0 47 38 84t83 37q41 0 62.5 -23t21.5 -65q0 -142 -94.5 -233t-229.5 -93z" />
<glyph unicode="&#x201c;" horiz-adv-x="788" d="M313 1106q0 88 35.5 162t110 122.5t176.5 51.5l10 -72q-164 -7 -196 -141q30 -4 48.5 -26.5t18.5 -53.5q0 -47 -37 -84t-82 -37q-78 0 -84 78zM676 1106q0 88 35.5 162t109.5 122.5t176 51.5l11 -72q-165 -7 -197 -141q31 -4 49.5 -26.5t18.5 -53.5q0 -47 -37 -84 t-82 -37q-78 0 -84 78z" />
<glyph unicode="&#x201d;" horiz-adv-x="778" d="M268 1102q165 7 199 141q-32 4 -52 26.5t-20 53.5q0 47 38 84t83 37q84 0 84 -88q0 -141 -93.5 -232t-227.5 -94zM631 1102q164 7 198 141q-32 4 -51.5 26.5t-19.5 53.5q0 47 38 84t83 37q84 0 84 -88q0 -141 -94 -232t-228 -94z" />
<glyph unicode="&#x201e;" horiz-adv-x="772" d="M2 -141q165 3 199 141q-31 5 -50.5 26.5t-19.5 53.5q0 47 38 84t83 37q41 0 62.5 -23t21.5 -65q0 -142 -94 -233t-228 -93zM367 -141q162 3 196 141q-31 5 -50 26.5t-19 53.5q0 47 37.5 84t82.5 37q41 0 62.5 -23t21.5 -65q0 -142 -93.5 -233t-227.5 -93z" />
<glyph unicode="&#x2022;" horiz-adv-x="839" d="M324 702q0 107 74 177.5t175 70.5q86 0 148.5 -62.5t62.5 -148.5q0 -107 -73.5 -178.5t-173.5 -71.5q-90 0 -151.5 63t-61.5 150z" />
<glyph unicode="&#x2026;" horiz-adv-x="1234" d="M96 88q0 48 34 80.5t79 32.5q41 0 70.5 -29t29.5 -70q0 -49 -34 -81.5t-80 -32.5q-42 0 -70.5 29t-28.5 71zM520 88q0 48 34 80.5t79 32.5q41 0 70.5 -29t29.5 -70q0 -49 -34.5 -81.5t-80.5 -32.5q-42 0 -70 29t-28 71zM950 88q0 48 34.5 80.5t80.5 32.5q40 0 69 -29 t29 -70q0 -49 -34 -81.5t-80 -32.5q-42 0 -70.5 29t-28.5 71z" />
<glyph unicode="&#x202f;" horiz-adv-x="381" />
<glyph unicode="&#x2039;" horiz-adv-x="636" d="M170 545l459 526l96 -80l-399 -446l225 -445l-127 -82z" />
<glyph unicode="&#x203a;" horiz-adv-x="606" d="M86 100l397 445l-225 446l127 80l254 -526l-459 -527z" />
<glyph unicode="&#x205f;" horiz-adv-x="477" />
<glyph unicode="&#x20ac;" horiz-adv-x="1441" d="M178 535l15 92h135q0 91 32 182h-135l15 94h147q92 238 286.5 392.5t416.5 154.5q366 0 516 -270l-136 -103q-123 211 -364 211q-163 0 -310 -108t-223 -277h537l-12 -94h-561q-30 -81 -33 -182h561l-14 -92h-537q14 -169 121.5 -277t267.5 -108q243 0 438 208l109 -100 q-113 -127 -262.5 -198.5t-306.5 -71.5q-234 0 -387.5 151.5t-165.5 395.5h-150z" />
<glyph unicode="&#x2122;" horiz-adv-x="1423" d="M295 1352l14 80h555l-14 -80h-232l-106 -559h-94l108 559h-231zM842 793l123 639h43l215 -410l372 410h41l-123 -639h-90l84 434l-311 -346l-180 346l-84 -434h-90z" />
<glyph unicode="&#x25fc;" horiz-adv-x="1105" d="M0 0v1106h1106v-1106h-1106z" />
</font>
</defs>
</svg>
